<?xml version="1.0" standalone="no"?>
 <!DOCTYPE svg PUBLIC "-//W3C//DTD SVG 1.1//EN" 
 "http://www.w3.org/Graphics/SVG/1.1/DTD/svg11.dtd"> 
<svg
  xmlns:svg="http://www.w3.org/2000/svg"
  xmlns="http://www.w3.org/2000/svg"
  xmlns:xlink="http://www.w3.org/1999/xlink"
  version="1.1"
  width="51.5620mm" height="31.9786mm" viewBox="0.0000 0.0000 51.5620 31.9786">
<title>SVG Image created as Sensor Board-F_Cu.svg date 2024/04/30 00:10:26 </title>
  <desc>Image generated by PCBNEW </desc>
<g style="fill:#000000; fill-opacity:1.0000;stroke:#000000; stroke-opacity:1.0000;
stroke-linecap:round; stroke-linejoin:round;"
 transform="translate(0 0) scale(1 1)">
<path style="fill:#000000; fill-opacity:1.0000; stroke:none;fill-rule:evenodd;"
d="M 49.4920,8.0462
49.4920,6.0962
47.5420,6.0962
47.5420,8.0462
Z" /> 
</g>
<g style="fill:#000000; fill-opacity:1.0000; stroke:none;">
<circle cx="43.4370" cy="7.0713" r="0.9750" /> 
</g>
<g style="fill:#000000; fill-opacity:1.0000; stroke:none;">
<circle cx="38.3570" cy="7.0713" r="0.9750" /> 
</g>
<g style="fill:#000000; fill-opacity:1.0000; stroke:none;">
<circle cx="33.2770" cy="7.0713" r="0.9750" /> 
</g>
<g style="fill:#000000; fill-opacity:1.0000; stroke:none;">
<circle cx="28.1970" cy="7.0713" r="0.9750" /> 
</g>
<g style="fill:#000000; fill-opacity:1.0000; stroke:none;">
<circle cx="23.1170" cy="7.0713" r="0.9750" /> 
</g>
<g style="fill:#000000; fill-opacity:1.0000; stroke:none;">
<circle cx="18.0370" cy="7.0713" r="0.9750" /> 
</g>
<g style="fill:#000000; fill-opacity:1.0000; stroke:none;">
<circle cx="12.9570" cy="7.0713" r="0.9750" /> 
</g>
<g style="fill:#000000; fill-opacity:1.0000; stroke:none;">
<circle cx="7.8770" cy="7.0713" r="0.9750" /> 
</g>
<g style="fill:#000000; fill-opacity:1.0000; stroke:none;">
<circle cx="2.7970" cy="7.0713" r="0.9750" /> 
<path style="fill:#000000; fill-opacity:1.0000; stroke:none;fill-rule:evenodd;"
d="M 31.7750,25.4082
33.2990,25.4082
33.2990,23.8842
31.7750,23.8842
Z" /> 
</g>
<g style="fill:#000000; fill-opacity:1.0000; stroke:none;">
<circle cx="30.5370" cy="24.6462" r="0.7620" /> 
</g>
<g style="fill:#000000; fill-opacity:1.0000; stroke:none;">
<circle cx="28.5370" cy="24.6462" r="0.7620" /> 
</g>
<g style="fill:#000000; fill-opacity:1.0000; stroke:none;">
<circle cx="26.5370" cy="24.6462" r="0.7620" /> 
</g>
<g style="fill:#000000; fill-opacity:1.0000; stroke:none;">
<circle cx="24.5370" cy="24.6462" r="0.7620" /> 
</g>
<g style="fill:#000000; fill-opacity:1.0000; stroke:none;">
<circle cx="22.5370" cy="24.6462" r="0.7620" /> 
</g>
<g style="fill:#000000; fill-opacity:1.0000; stroke:none;">
<circle cx="20.5370" cy="24.6462" r="0.7620" /> 
</g>
<g style="fill:#000000; fill-opacity:1.0000; stroke:none;">
<circle cx="18.5370" cy="24.6462" r="0.7620" /> 
</g>
<g style="fill:none; 
stroke:#000000; stroke-width:1.4000; stroke-opacity:1; 
stroke-linecap:round; stroke-linejoin:round;">
<path d="M34.7870 17.4962
L34.7870 18.6962
" />
<path d="M16.2870 17.4962
L16.2870 18.6962
" />
</g>
<g style="fill:#000000; fill-opacity:1.0000; stroke:none;">
<circle cx="40.0370" cy="15.5712" r="0.8000" /> 
</g>
<g style="fill:#000000; fill-opacity:1.0000; stroke:none;">
<circle cx="40.0370" cy="21.5712" r="0.8000" /> 
</g>
<g style="fill:none; 
stroke:#000000; stroke-width:1.5000; stroke-opacity:1; 
stroke-linecap:round; stroke-linejoin:round;">
<path d="M40.0370 21.5712
L32.1880 21.5712
" />
<path d="M40.0370 15.5712
L40.0370 21.5712
" />
<path d="M48.5170 7.0713
L48.5170 7.0912
" />
<path d="M48.5170 7.0912
L40.0370 15.5712
" />
<path d="M30.5370 23.2222
L29.9610 23.2222
" />
<path d="M29.9610 23.2222
L28.5370 24.6462
" />
<path d="M40.1620 21.4462
L40.0370 21.5712
" />
<path d="M32.1880 21.5712
L30.5370 23.2222
" />
<path d="M30.5370 23.2222
L30.5370 24.6462
" />
<path d="M38.2870 4.2713
L28.2870 4.2713
" />
<path d="M38.2870 4.2713
L38.3570 4.3412
" />
<path d="M45.7170 4.2713
L38.2870 4.2713
" />
<path d="M38.3570 4.3412
L38.3570 7.0713
" />
<path d="M28.2870 4.2713
L18.0370 4.2713
" />
<path d="M28.2870 4.2713
L28.1970 4.3613
" />
<path d="M28.1970 4.3613
L28.1970 7.0713
" />
<path d="M18.0370 4.2713
L10.6770 4.2713
" />
<path d="M18.0370 4.2713
L18.0370 7.0713
" />
<path d="M48.5170 7.0713
L45.7170 4.2713
" />
<path d="M10.6770 4.2713
L7.8770 7.0713
" />
</g>
<g style="fill:none; 
stroke:#000000; stroke-width:0.4000; stroke-opacity:1; 
stroke-linecap:round; stroke-linejoin:round;">
<path d="M22.5370 24.6462
L22.5370 7.6512
" />
<path d="M22.5370 7.6512
L23.1170 7.0713
" />
<path d="M37.4370 13.0712
L43.4370 7.0713
" />
<path d="M26.5370 24.6462
L26.5370 19.5712
" />
<path d="M33.0370 13.0712
L37.4370 13.0712
" />
<path d="M26.5370 19.5712
L33.0370 13.0712
" />
<path d="M24.5370 24.6462
L24.5370 15.8112
" />
<path d="M24.5370 15.8112
L33.2770 7.0713
" />
<path d="M8.7970 13.0712
L2.7970 7.0713
" />
<path d="M18.5370 24.6462
L18.5370 15.5712
" />
<path d="M16.0370 13.0712
L8.7970 13.0712
" />
<path d="M18.5370 15.5712
L16.0370 13.0712
" />
<path d="M20.5370 24.6462
L20.5370 14.6512
" />
<path d="M20.5370 14.6512
L12.9570 7.0713
" />
</g>
<g style="fill:#FFFFFF; fill-opacity:1.0000; stroke:none;">
<circle cx="40.0370" cy="15.5712" r="0.4000" /> 
</g>
<g style="fill:#FFFFFF; fill-opacity:1.0000; stroke:none;">
<circle cx="40.0370" cy="21.5712" r="0.4000" /> 
</g>
<g style="fill:#FFFFFF; fill-opacity:1.0000; stroke:none;">
<circle cx="5.7870" cy="15.3212" r="1.1000" /> 
</g>
<g style="fill:#FFFFFF; fill-opacity:1.0000; stroke:none;">
<circle cx="45.5370" cy="15.3212" r="1.1000" /> 
</g>
<g style="fill:#FFFFFF; fill-opacity:1.0000; stroke:none;">
<circle cx="48.5170" cy="7.0713" r="0.6500" /> 
</g>
<g style="fill:#FFFFFF; fill-opacity:1.0000; stroke:none;">
<circle cx="43.4370" cy="7.0713" r="0.6500" /> 
</g>
<g style="fill:#FFFFFF; fill-opacity:1.0000; stroke:none;">
<circle cx="38.3570" cy="7.0713" r="0.6500" /> 
</g>
<g style="fill:#FFFFFF; fill-opacity:1.0000; stroke:none;">
<circle cx="33.2770" cy="7.0713" r="0.6500" /> 
</g>
<g style="fill:#FFFFFF; fill-opacity:1.0000; stroke:none;">
<circle cx="28.1970" cy="7.0713" r="0.6500" /> 
</g>
<g style="fill:#FFFFFF; fill-opacity:1.0000; stroke:none;">
<circle cx="23.1170" cy="7.0713" r="0.6500" /> 
</g>
<g style="fill:#FFFFFF; fill-opacity:1.0000; stroke:none;">
<circle cx="18.0370" cy="7.0713" r="0.6500" /> 
</g>
<g style="fill:#FFFFFF; fill-opacity:1.0000; stroke:none;">
<circle cx="12.9570" cy="7.0713" r="0.6500" /> 
</g>
<g style="fill:#FFFFFF; fill-opacity:1.0000; stroke:none;">
<circle cx="7.8770" cy="7.0713" r="0.6500" /> 
</g>
<g style="fill:#FFFFFF; fill-opacity:1.0000; stroke:none;">
<circle cx="2.7970" cy="7.0713" r="0.6500" /> 
</g>
<g style="fill:#FFFFFF; fill-opacity:1.0000; stroke:none;">
<circle cx="32.5370" cy="24.6462" r="0.4050" /> 
</g>
<g style="fill:#FFFFFF; fill-opacity:1.0000; stroke:none;">
<circle cx="30.5370" cy="24.6462" r="0.4050" /> 
</g>
<g style="fill:#FFFFFF; fill-opacity:1.0000; stroke:none;">
<circle cx="28.5370" cy="24.6462" r="0.4050" /> 
</g>
<g style="fill:#FFFFFF; fill-opacity:1.0000; stroke:none;">
<circle cx="26.5370" cy="24.6462" r="0.4050" /> 
</g>
<g style="fill:#FFFFFF; fill-opacity:1.0000; stroke:none;">
<circle cx="24.5370" cy="24.6462" r="0.4050" /> 
</g>
<g style="fill:#FFFFFF; fill-opacity:1.0000; stroke:none;">
<circle cx="22.5370" cy="24.6462" r="0.4050" /> 
</g>
<g style="fill:#FFFFFF; fill-opacity:1.0000; stroke:none;">
<circle cx="20.5370" cy="24.6462" r="0.4050" /> 
</g>
<g style="fill:#FFFFFF; fill-opacity:1.0000; stroke:none;">
<circle cx="18.5370" cy="24.6462" r="0.4050" /> 
</g>
<g style="fill:none; 
stroke:#FFFFFF; stroke-width:0.7000; stroke-opacity:1; 
stroke-linecap:round; stroke-linejoin:round;">
<path d="M34.7870 17.7963
L34.7870 18.3962
" />
<path d="M16.2870 17.7963
L16.2870 18.3962
" />
<path style="fill:none; 
stroke:#000000; stroke-width:0.0500; stroke-opacity:1; 
stroke-linecap:round; stroke-linejoin:round;fill:none"
d="M 51.5370,2.5713
0.5370,2.5713
0.5370,26.0712
51.5370,26.0712
Z" /> 
</g> 
</svg>
