<?xml version="1.0" standalone="no"?>
 <!DOCTYPE svg PUBLIC "-//W3C//DTD SVG 1.1//EN" 
 "http://www.w3.org/Graphics/SVG/1.1/DTD/svg11.dtd"> 
<svg
  xmlns:svg="http://www.w3.org/2000/svg"
  xmlns="http://www.w3.org/2000/svg"
  xmlns:xlink="http://www.w3.org/1999/xlink"
  version="1.1"
  width="51.5620mm" height="31.9786mm" viewBox="0.0000 0.0000 51.5620 31.9786">
<title>SVG Image created as Sensor Board-B_Cu.svg date 2024/04/30 00:10:26 </title>
  <desc>Image generated by PCBNEW </desc>
<g style="fill:#000000; fill-opacity:1.0000;stroke:#000000; stroke-opacity:1.0000;
stroke-linecap:round; stroke-linejoin:round;"
 transform="translate(0 0) scale(1 1)">
<path style="fill:#000000; fill-opacity:1.0000; stroke:none;fill-rule:evenodd;"
d="M 49.4920,8.0462
49.4920,6.0962
47.5420,6.0962
47.5420,8.0462
Z" /> 
</g>
<g style="fill:#000000; fill-opacity:1.0000; stroke:none;">
<circle cx="43.4370" cy="7.0713" r="0.9750" /> 
</g>
<g style="fill:#000000; fill-opacity:1.0000; stroke:none;">
<circle cx="38.3570" cy="7.0713" r="0.9750" /> 
</g>
<g style="fill:#000000; fill-opacity:1.0000; stroke:none;">
<circle cx="33.2770" cy="7.0713" r="0.9750" /> 
</g>
<g style="fill:#000000; fill-opacity:1.0000; stroke:none;">
<circle cx="28.1970" cy="7.0713" r="0.9750" /> 
</g>
<g style="fill:#000000; fill-opacity:1.0000; stroke:none;">
<circle cx="23.1170" cy="7.0713" r="0.9750" /> 
</g>
<g style="fill:#000000; fill-opacity:1.0000; stroke:none;">
<circle cx="18.0370" cy="7.0713" r="0.9750" /> 
</g>
<g style="fill:#000000; fill-opacity:1.0000; stroke:none;">
<circle cx="12.9570" cy="7.0713" r="0.9750" /> 
</g>
<g style="fill:#000000; fill-opacity:1.0000; stroke:none;">
<circle cx="7.8770" cy="7.0713" r="0.9750" /> 
</g>
<g style="fill:#000000; fill-opacity:1.0000; stroke:none;">
<circle cx="2.7970" cy="7.0713" r="0.9750" /> 
<path style="fill:#000000; fill-opacity:1.0000; stroke:none;fill-rule:evenodd;"
d="M 31.7750,25.4082
33.2990,25.4082
33.2990,23.8842
31.7750,23.8842
Z" /> 
</g>
<g style="fill:#000000; fill-opacity:1.0000; stroke:none;">
<circle cx="30.5370" cy="24.6462" r="0.7620" /> 
</g>
<g style="fill:#000000; fill-opacity:1.0000; stroke:none;">
<circle cx="28.5370" cy="24.6462" r="0.7620" /> 
</g>
<g style="fill:#000000; fill-opacity:1.0000; stroke:none;">
<circle cx="26.5370" cy="24.6462" r="0.7620" /> 
</g>
<g style="fill:#000000; fill-opacity:1.0000; stroke:none;">
<circle cx="24.5370" cy="24.6462" r="0.7620" /> 
</g>
<g style="fill:#000000; fill-opacity:1.0000; stroke:none;">
<circle cx="22.5370" cy="24.6462" r="0.7620" /> 
</g>
<g style="fill:#000000; fill-opacity:1.0000; stroke:none;">
<circle cx="20.5370" cy="24.6462" r="0.7620" /> 
</g>
<g style="fill:#000000; fill-opacity:1.0000; stroke:none;">
<circle cx="18.5370" cy="24.6462" r="0.7620" /> 
</g>
<g style="fill:none; 
stroke:#000000; stroke-width:1.4000; stroke-opacity:1; 
stroke-linecap:round; stroke-linejoin:round;">
<path d="M34.7870 17.4962
L34.7870 18.6962
" />
<path d="M16.2870 17.4962
L16.2870 18.6962
" />
</g>
<g style="fill:#000000; fill-opacity:1.0000; stroke:none;">
<circle cx="40.0370" cy="15.5712" r="0.8000" /> 
</g>
<g style="fill:#000000; fill-opacity:1.0000; stroke:none;">
<circle cx="40.0370" cy="21.5712" r="0.8000" /> 
<path style="fill:#000000; fill-opacity:1.0000; stroke:none;fill-rule:evenodd;"
d="M 1.0945,3.0914
1.0487,3.1442
1.0375,3.1957
1.0375,25.4467
1.0572,25.5138
1.1100,25.5595
1.1615,25.5708
17.4049,25.5708
17.4719,25.5511
17.5177,25.4983
17.5276,25.4291
17.5065,25.3756
17.4395,25.2799
17.4395,25.2799
17.4395,25.2799
17.3461,25.0797
17.2889,24.8663
17.2697,24.6462
17.2889,24.4262
17.3461,24.2128
17.4395,24.0126
17.5370,23.8733
17.5662,23.8316
17.6247,23.7731
17.7224,23.6754
17.7224,23.6754
17.7224,23.6754
17.9033,23.5487
17.9033,23.5487
17.9505,23.5267
18.1035,23.4554
18.1036,23.4554
18.1036,23.4554
18.3169,23.3982
18.3169,23.3982
18.5370,23.3789
18.5370,23.3789
18.7571,23.3982
18.7571,23.3982
18.9704,23.4554
18.9705,23.4554
19.1707,23.5487
19.1707,23.5487
19.3516,23.6754
19.4493,23.7731
19.5106,23.8066
19.5803,23.8016
19.6247,23.7731
19.7224,23.6754
19.7224,23.6754
19.9033,23.5487
19.9033,23.5487
19.9505,23.5267
20.1035,23.4554
20.1036,23.4554
20.1036,23.4554
20.3169,23.3982
20.3169,23.3982
20.5370,23.3789
20.5370,23.3789
20.7571,23.3982
20.7571,23.3982
20.9704,23.4554
20.9705,23.4554
21.1707,23.5487
21.1707,23.5487
21.3516,23.6754
21.4493,23.7731
21.5106,23.8066
21.5803,23.8016
21.6247,23.7731
21.7224,23.6754
21.7224,23.6754
21.9033,23.5487
21.9033,23.5487
21.9505,23.5267
22.1035,23.4554
22.1036,23.4554
22.1036,23.4554
22.3169,23.3982
22.3169,23.3982
22.5370,23.3789
22.5370,23.3789
22.7571,23.3982
22.7571,23.3982
22.9704,23.4554
22.9705,23.4554
23.1707,23.5487
23.1707,23.5487
23.3516,23.6754
23.4493,23.7731
23.5106,23.8066
23.5803,23.8016
23.6247,23.7731
23.7224,23.6754
23.7224,23.6754
23.9033,23.5487
23.9033,23.5487
23.9505,23.5267
24.1035,23.4554
24.1036,23.4554
24.1036,23.4554
24.3169,23.3982
24.3169,23.3982
24.5370,23.3789
24.5370,23.3789
24.7571,23.3982
24.7571,23.3982
24.9704,23.4554
24.9705,23.4554
25.1707,23.5487
25.1707,23.5487
25.3516,23.6754
25.4493,23.7731
25.5106,23.8066
25.5803,23.8016
25.6247,23.7731
25.7224,23.6754
25.7224,23.6754
25.9033,23.5487
25.9033,23.5487
25.9505,23.5267
26.1035,23.4554
26.1036,23.4554
26.1036,23.4554
26.3169,23.3982
26.3169,23.3982
26.5370,23.3789
26.5370,23.3789
26.7571,23.3982
26.7571,23.3982
26.9704,23.4554
26.9705,23.4554
27.1707,23.5487
27.1707,23.5487
27.3516,23.6754
27.5078,23.8316
27.6345,24.0126
27.6993,24.1516
27.7240,24.1868
28.1320,24.5948
28.1320,24.5929
28.1596,24.4899
28.2129,24.3976
28.2883,24.3222
28.3807,24.2689
28.4837,24.2412
28.4856,24.2412
27.8388,23.5945
27.8388,23.5945
27.9036,23.5492
27.9036,23.5491
28.1037,23.4558
28.1037,23.4558
28.3170,23.3987
28.3170,23.3987
28.5370,23.3794
28.5370,23.3794
28.7570,23.3987
28.7570,23.3987
28.9703,23.4558
28.9703,23.4558
29.1704,23.5492
29.2352,23.5945
28.5884,24.2412
28.5903,24.2412
28.6933,24.2689
28.7857,24.3222
28.8611,24.3976
28.9144,24.4899
28.9420,24.5929
28.9420,24.5948
29.5370,23.9998
30.1320,24.5948
30.1320,24.5929
30.1596,24.4899
30.2129,24.3976
30.2883,24.3222
30.3807,24.2689
30.4837,24.2412
30.4856,24.2412
29.8388,23.5945
29.9036,23.5492
29.9036,23.5491
30.1037,23.4558
30.1037,23.4558
30.3170,23.3987
30.3170,23.3987
30.5370,23.3794
30.5370,23.3794
30.7570,23.3987
30.7570,23.3987
30.9703,23.4558
30.9703,23.4558
31.1704,23.5491
31.2231,23.5860
31.2893,23.6083
31.3570,23.5913
31.3935,23.5588
31.4175,23.5267
31.4403,23.5096
31.5327,23.4405
31.5327,23.4405
31.6675,23.3902
31.6675,23.3902
31.7271,23.3838
31.7271,23.3837
31.7271,23.3837
31.7271,23.3837
33.3469,23.3837
33.3469,23.3838
33.4065,23.3902
33.5413,23.4405
33.5413,23.4405
33.6565,23.5267
33.6565,23.5267
33.7428,23.6419
33.7428,23.6419
33.7931,23.7768
33.7990,23.8316
33.7995,23.8364
33.7995,24.6462
33.7995,25.4467
33.8192,25.5138
33.8720,25.5595
33.9235,25.5708
50.9125,25.5708
50.9795,25.5511
51.0253,25.4983
51.0365,25.4467
51.0365,18.7907
35.9875,18.7907
35.9579,18.9774
35.8995,19.1571
35.8138,19.3254
35.7027,19.4783
35.5691,19.6119
35.4162,19.7230
35.3367,19.7635
35.2478,19.8088
35.2478,19.8088
35.2478,19.8088
35.1515,19.8401
35.0681,19.8672
34.8815,19.8968
34.8815,19.8968
34.6925,19.8968
34.5059,19.8672
34.3262,19.8088
34.1578,19.7230
34.0049,19.6119
33.8713,19.4783
33.7602,19.3254
33.6745,19.1571
33.6161,18.9774
33.5865,18.7907
17.4875,18.7907
17.4579,18.9774
17.3995,19.1571
17.3138,19.3254
17.2027,19.4783
17.0691,19.6119
16.9162,19.7230
16.8367,19.7635
16.7478,19.8088
16.7478,19.8088
16.7478,19.8088
16.6515,19.8401
16.5681,19.8672
16.3815,19.8968
16.3815,19.8968
16.1925,19.8968
16.0059,19.8672
15.8262,19.8088
15.6578,19.7230
15.5049,19.6119
15.3713,19.4783
15.2602,19.3254
15.1745,19.1571
15.1161,18.9774
15.0865,18.7907
15.0865,17.4018
15.1161,17.2151
15.1745,17.0354
15.2602,16.8670
15.3713,16.7142
15.5049,16.5806
15.6578,16.4695
15.8262,16.3837
16.0059,16.3253
16.1925,16.2957
16.1925,16.2957
16.3815,16.2957
16.3815,16.2957
16.5681,16.3253
16.7478,16.3837
16.9162,16.4695
17.0034,16.5329
17.0691,16.5806
17.0691,16.5806
17.0691,16.5806
17.2027,16.7142
17.2027,16.7142
17.2027,16.7142
17.2504,16.7798
17.3138,16.8670
17.3995,17.0354
17.4579,17.2151
17.4875,17.4018
17.4875,18.7907
33.5865,18.7907
33.5865,17.4018
33.6161,17.2151
33.6745,17.0354
33.7602,16.8670
33.8713,16.7142
34.0049,16.5806
34.1578,16.4695
34.3262,16.3837
34.5059,16.3253
34.6925,16.2957
34.6925,16.2957
34.8815,16.2957
34.8815,16.2957
35.0681,16.3253
35.2478,16.3837
35.4162,16.4695
35.5034,16.5329
35.5691,16.5806
35.5691,16.5806
35.5691,16.5806
35.7027,16.7142
35.7027,16.7142
35.7027,16.7142
35.7504,16.7798
35.8138,16.8670
35.8995,17.0354
35.9579,17.2151
35.9875,17.4018
35.9875,18.7907
51.0365,18.7907
51.0365,15.4275
46.8875,15.4275
46.8542,15.6375
46.7886,15.8397
46.6920,16.0291
46.5671,16.2010
46.4168,16.3514
46.2448,16.4763
46.2448,16.4763
46.2448,16.4763
46.0554,16.5728
45.8532,16.6385
45.6433,16.6717
45.6433,16.6717
45.4307,16.6717
45.4307,16.6717
45.2208,16.6385
45.0186,16.5728
44.8292,16.4763
44.7017,16.3837
44.6572,16.3514
44.6572,16.3514
44.6572,16.3514
44.5069,16.2010
44.5069,16.2010
44.5069,16.2010
44.3820,16.0291
44.3820,16.0291
44.3819,16.0291
44.2854,15.8397
44.2198,15.6375
44.1865,15.4275
44.1865,15.4275
7.1375,15.4275
7.1042,15.6375
7.0386,15.8397
6.9420,16.0291
6.8171,16.2010
6.6668,16.3514
6.4948,16.4763
6.4948,16.4763
6.4948,16.4763
6.3054,16.5728
6.1032,16.6385
5.8933,16.6717
5.8933,16.6717
5.6807,16.6717
5.6807,16.6717
5.4708,16.6385
5.2686,16.5728
5.0792,16.4763
4.9517,16.3837
4.9072,16.3514
4.9072,16.3514
4.9072,16.3514
4.7569,16.2010
4.7569,16.2010
4.7569,16.2010
4.6320,16.0291
4.6320,16.0291
4.6319,16.0291
4.5354,15.8397
4.4698,15.6375
4.4365,15.4275
4.4365,15.2150
4.4698,15.0050
4.5354,14.8028
4.6319,14.6134
4.6320,14.6134
4.6320,14.6134
4.7569,14.4415
4.9072,14.2911
5.0792,14.1662
5.2686,14.0697
5.2686,14.0697
5.2686,14.0697
5.4708,14.0040
5.4708,14.0040
5.4708,14.0040
5.6320,13.9785
5.6807,13.9707
5.8933,13.9707
5.9420,13.9785
6.1032,14.0040
6.3054,14.0697
6.4948,14.1662
6.6668,14.2911
6.8171,14.4415
6.9420,14.6134
7.0386,14.8028
7.1042,15.0050
7.1375,15.2150
7.1375,15.4275
44.1865,15.4275
44.1865,15.2150
44.2198,15.0050
44.2854,14.8028
44.3819,14.6134
44.3820,14.6134
44.3820,14.6134
44.5069,14.4415
44.6572,14.2911
44.8292,14.1662
45.0186,14.0697
45.0186,14.0697
45.0186,14.0697
45.2208,14.0040
45.2208,14.0040
45.2208,14.0040
45.3820,13.9785
45.4307,13.9707
45.6433,13.9707
45.6920,13.9785
45.8532,14.0040
46.0554,14.0697
46.2448,14.1662
46.4168,14.2911
46.5671,14.4415
46.6920,14.6134
46.7886,14.8028
46.8542,15.0050
46.8875,15.2150
46.8875,15.4275
51.0365,15.4275
51.0365,8.0941
49.9920,8.0941
49.9856,8.1536
49.9856,8.1536
49.9354,8.2883
49.9354,8.2883
49.8492,8.4034
49.8492,8.4034
49.7341,8.4896
49.7341,8.4896
49.5994,8.5398
49.5994,8.5398
49.5398,8.5462
49.5398,8.5462
48.7670,8.5462
48.7670,7.6713
48.7066,7.6963
48.5810,7.7212
48.4530,7.7212
48.3274,7.6963
48.2670,7.6713
48.2670,8.5462
47.4942,8.5462
47.4942,8.5462
47.4346,8.5398
47.4346,8.5398
47.2999,8.4896
47.2999,8.4896
47.1848,8.4034
47.1848,8.4034
47.0986,8.2883
47.0986,8.2883
47.0484,8.1536
47.0484,8.1536
47.0420,8.0941
47.0420,8.0941
47.0420,7.3213
47.9170,7.3213
47.8920,7.2608
47.8670,7.1353
47.8670,7.0713
44.9176,7.0713
44.8974,7.3149
44.8974,7.3149
44.8373,7.5520
44.7391,7.7759
44.6054,7.9806
44.4398,8.1605
44.4397,8.1605
44.2473,8.3103
44.2468,8.3107
44.0317,8.4271
44.0317,8.4271
43.8005,8.5065
43.8005,8.5065
43.8005,8.5065
43.5593,8.5467
43.5593,8.5467
43.3147,8.5467
43.3147,8.5467
43.0735,8.5065
42.8423,8.4271
42.6272,8.3107
42.4342,8.1605
42.2686,7.9806
42.1349,7.7759
42.0367,7.5520
41.9766,7.3149
41.9766,7.3149
41.9564,7.0713
39.8371,7.0713
39.8169,7.3149
39.7569,7.5518
39.6587,7.7757
39.5624,7.9231
38.9580,7.3187
38.9330,7.3791
38.8619,7.4856
38.7714,7.5761
38.6649,7.6473
38.6045,7.6723
39.2092,8.2770
39.2092,8.2770
39.1665,8.3103
39.1665,8.3103
38.9515,8.4266
38.9515,8.4266
38.7203,8.5060
38.4792,8.5462
38.2348,8.5462
37.9937,8.5060
37.7625,8.4266
37.7625,8.4266
37.5475,8.3103
37.5475,8.3103
37.5048,8.2770
37.5048,8.2770
38.1095,7.6723
38.0491,7.6473
37.9426,7.5761
37.8521,7.4856
37.7810,7.3791
37.7560,7.3187
37.1516,7.9231
37.0553,7.7757
37.0553,7.7757
36.9571,7.5518
36.8971,7.3149
36.8769,7.0713
34.7576,7.0713
34.7374,7.3149
34.7374,7.3149
34.6773,7.5520
34.5791,7.7759
34.4454,7.9806
34.2798,8.1605
34.2797,8.1605
34.0873,8.3103
34.0868,8.3107
33.8717,8.4271
33.8717,8.4271
33.6405,8.5065
33.6405,8.5065
33.6405,8.5065
33.3993,8.5467
33.3993,8.5467
33.1547,8.5467
33.1547,8.5467
32.9135,8.5065
32.6823,8.4271
32.4672,8.3107
32.2742,8.1605
32.1086,7.9806
31.9749,7.7759
31.8767,7.5520
31.8166,7.3149
31.8166,7.3149
31.7964,7.0713
29.6771,7.0713
29.6569,7.3149
29.5969,7.5518
29.4987,7.7757
29.4024,7.9231
28.7980,7.3187
28.7730,7.3791
28.7019,7.4856
28.6114,7.5761
28.5049,7.6473
28.4445,7.6723
29.0492,8.2770
29.0492,8.2770
29.0065,8.3103
29.0065,8.3103
28.7915,8.4266
28.7915,8.4266
28.5603,8.5060
28.3192,8.5462
28.0748,8.5462
27.8337,8.5060
27.6025,8.4266
27.6025,8.4266
27.3875,8.3103
27.3875,8.3103
27.3448,8.2770
27.3448,8.2770
27.9495,7.6723
27.8891,7.6473
27.7826,7.5761
27.6921,7.4856
27.6210,7.3791
27.5960,7.3187
26.9916,7.9231
26.8953,7.7757
26.8953,7.7757
26.7971,7.5518
26.7371,7.3149
26.7169,7.0713
24.5976,7.0713
24.5774,7.3149
24.5774,7.3149
24.5173,7.5520
24.4191,7.7759
24.2854,7.9806
24.1198,8.1605
24.1197,8.1605
23.9273,8.3103
23.9268,8.3107
23.7117,8.4271
23.7117,8.4271
23.4805,8.5065
23.4805,8.5065
23.4805,8.5065
23.2393,8.5467
23.2393,8.5467
22.9947,8.5467
22.9947,8.5467
22.7535,8.5065
22.5223,8.4271
22.3072,8.3107
22.1142,8.1605
21.9486,7.9806
21.8149,7.7759
21.7167,7.5520
21.6566,7.3149
21.6566,7.3149
21.6364,7.0713
19.5171,7.0713
19.4969,7.3149
19.4369,7.5518
19.3387,7.7757
19.2424,7.9231
18.6380,7.3187
18.6130,7.3791
18.5419,7.4856
18.4514,7.5761
18.3449,7.6473
18.2845,7.6723
18.8892,8.2770
18.8892,8.2770
18.8465,8.3103
18.8465,8.3103
18.6315,8.4266
18.6315,8.4266
18.4003,8.5060
18.1592,8.5462
17.9148,8.5462
17.6737,8.5060
17.4425,8.4266
17.4425,8.4266
17.2275,8.3103
17.2275,8.3103
17.1848,8.2770
17.1848,8.2770
17.7895,7.6723
17.7291,7.6473
17.6226,7.5761
17.5321,7.4856
17.4610,7.3791
17.4360,7.3187
16.8316,7.9231
16.7353,7.7757
16.7353,7.7757
16.6371,7.5518
16.5771,7.3149
16.5569,7.0713
14.4376,7.0713
14.4174,7.3149
14.4174,7.3149
14.3573,7.5520
14.2591,7.7759
14.1254,7.9806
13.9598,8.1605
13.9597,8.1605
13.7673,8.3103
13.7668,8.3107
13.5517,8.4271
13.5517,8.4271
13.3205,8.5065
13.3205,8.5065
13.3205,8.5065
13.0793,8.5467
13.0793,8.5467
12.8347,8.5467
12.8347,8.5467
12.5935,8.5065
12.3623,8.4271
12.1472,8.3107
11.9542,8.1605
11.7886,7.9806
11.6549,7.7759
11.5567,7.5520
11.4966,7.3149
11.4966,7.3149
11.4764,7.0713
9.3571,7.0713
9.3369,7.3149
9.2769,7.5518
9.1787,7.7757
9.0824,7.9231
8.4780,7.3187
8.4530,7.3791
8.3819,7.4856
8.2914,7.5761
8.1849,7.6473
8.1245,7.6723
8.7292,8.2770
8.7292,8.2770
8.6865,8.3103
8.6865,8.3103
8.4715,8.4266
8.4715,8.4266
8.2403,8.5060
7.9992,8.5462
7.7548,8.5462
7.5137,8.5060
7.2825,8.4266
7.2825,8.4266
7.0675,8.3103
7.0675,8.3103
7.0248,8.2770
7.0248,8.2770
7.6295,7.6723
7.5691,7.6473
7.4626,7.5761
7.3721,7.4856
7.3010,7.3791
7.2760,7.3187
6.6716,7.9231
6.5753,7.7757
6.5753,7.7757
6.4771,7.5518
6.4171,7.3149
6.3969,7.0713
4.2776,7.0713
4.2574,7.3149
4.2574,7.3149
4.1973,7.5520
4.0991,7.7759
3.9654,7.9806
3.7998,8.1605
3.7997,8.1605
3.6073,8.3103
3.6068,8.3107
3.3917,8.4271
3.3917,8.4271
3.1605,8.5065
3.1605,8.5065
3.1605,8.5065
2.9193,8.5467
2.9193,8.5467
2.6747,8.5467
2.6747,8.5467
2.4335,8.5065
2.2023,8.4271
1.9872,8.3107
1.7942,8.1605
1.6286,7.9806
1.4949,7.7759
1.3967,7.5520
1.3366,7.3149
1.3366,7.3149
1.3164,7.0713
1.3164,7.0712
1.3366,6.8276
1.3366,6.8276
1.3967,6.5905
1.4949,6.3666
1.6286,6.1619
1.7942,5.9820
1.7943,5.9820
1.9872,5.8318
1.9872,5.8318
2.2023,5.7154
2.2023,5.7154
2.4335,5.6360
2.6334,5.6027
2.6747,5.5957
2.9193,5.5957
2.9606,5.6027
3.1605,5.6360
3.3917,5.7154
3.3917,5.7154
3.6068,5.8318
3.6068,5.8318
3.7997,5.9820
3.7998,5.9820
3.9654,6.1619
4.0991,6.3666
4.1973,6.5905
4.2574,6.8276
4.2574,6.8276
4.2776,7.0712
4.2776,7.0713
6.3969,7.0713
6.3969,7.0712
6.4171,6.8276
6.4771,6.5907
6.5753,6.3668
6.6716,6.2194
7.2760,6.8238
7.3010,6.7634
7.3721,6.6569
7.4626,6.5664
7.5691,6.4952
7.6295,6.4702
7.0248,5.8655
7.0248,5.8655
7.0675,5.8322
7.2825,5.7159
7.2825,5.7159
7.5137,5.6365
7.7548,5.5962
7.9992,5.5962
8.2403,5.6365
8.4715,5.7159
8.4715,5.7159
8.6865,5.8322
8.7292,5.8655
8.7292,5.8655
8.1245,6.4702
8.1849,6.4952
8.2914,6.5664
8.3819,6.6569
8.4530,6.7634
8.4780,6.8238
9.0824,6.2194
9.1787,6.3668
9.2769,6.5907
9.3369,6.8276
9.3571,7.0712
9.3571,7.0713
11.4764,7.0713
11.4764,7.0712
11.4966,6.8276
11.4966,6.8276
11.5567,6.5905
11.6549,6.3666
11.7886,6.1619
11.9542,5.9820
11.9543,5.9820
12.1472,5.8318
12.1472,5.8318
12.3623,5.7154
12.3623,5.7154
12.5935,5.6360
12.7934,5.6027
12.8347,5.5957
13.0793,5.5957
13.1206,5.6027
13.3205,5.6360
13.5517,5.7154
13.5517,5.7154
13.7668,5.8318
13.7668,5.8318
13.9597,5.9820
13.9598,5.9820
14.1254,6.1619
14.2591,6.3666
14.3573,6.5905
14.4174,6.8276
14.4174,6.8276
14.4376,7.0712
14.4376,7.0713
16.5569,7.0713
16.5569,7.0712
16.5771,6.8276
16.6371,6.5907
16.7353,6.3668
16.8316,6.2194
17.4360,6.8238
17.4610,6.7634
17.5321,6.6569
17.6226,6.5664
17.7291,6.4952
17.7895,6.4702
17.1848,5.8655
17.1848,5.8655
17.2275,5.8322
17.4425,5.7159
17.4425,5.7159
17.6737,5.6365
17.9148,5.5962
18.1592,5.5962
18.4003,5.6365
18.6315,5.7159
18.6315,5.7159
18.8465,5.8322
18.8892,5.8655
18.8892,5.8655
18.2845,6.4702
18.3449,6.4952
18.4514,6.5664
18.5419,6.6569
18.6130,6.7634
18.6380,6.8238
19.2424,6.2194
19.3387,6.3668
19.4369,6.5907
19.4969,6.8276
19.5171,7.0712
19.5171,7.0713
21.6364,7.0713
21.6364,7.0712
21.6566,6.8276
21.6566,6.8276
21.7167,6.5905
21.8149,6.3666
21.9486,6.1619
22.1142,5.9820
22.1143,5.9820
22.3072,5.8318
22.3072,5.8318
22.5223,5.7154
22.5223,5.7154
22.7535,5.6360
22.9534,5.6027
22.9947,5.5957
23.2393,5.5957
23.2806,5.6027
23.4805,5.6360
23.7117,5.7154
23.7117,5.7154
23.9268,5.8318
23.9268,5.8318
24.1197,5.9820
24.1198,5.9820
24.2854,6.1619
24.4191,6.3666
24.5173,6.5905
24.5774,6.8276
24.5774,6.8276
24.5976,7.0712
24.5976,7.0713
26.7169,7.0713
26.7169,7.0712
26.7371,6.8276
26.7971,6.5907
26.8953,6.3668
26.9916,6.2194
27.5960,6.8238
27.6210,6.7634
27.6921,6.6569
27.7826,6.5664
27.8891,6.4952
27.9495,6.4702
27.3448,5.8655
27.3448,5.8655
27.3875,5.8322
27.6025,5.7159
27.6025,5.7159
27.8337,5.6365
28.0748,5.5962
28.3192,5.5962
28.5603,5.6365
28.7915,5.7159
28.7915,5.7159
29.0065,5.8322
29.0492,5.8655
29.0492,5.8655
28.4445,6.4702
28.5049,6.4952
28.6114,6.5664
28.7019,6.6569
28.7730,6.7634
28.7980,6.8238
29.4024,6.2194
29.4987,6.3668
29.5969,6.5907
29.6569,6.8276
29.6771,7.0712
29.6771,7.0713
31.7964,7.0713
31.7964,7.0712
31.8166,6.8276
31.8166,6.8276
31.8767,6.5905
31.9749,6.3666
32.1086,6.1619
32.2742,5.9820
32.2743,5.9820
32.4672,5.8318
32.4672,5.8318
32.6823,5.7154
32.6823,5.7154
32.9135,5.6360
33.1134,5.6027
33.1547,5.5957
33.3993,5.5957
33.4406,5.6027
33.6405,5.6360
33.8717,5.7154
33.8717,5.7154
34.0868,5.8318
34.0868,5.8318
34.2797,5.9820
34.2798,5.9820
34.4454,6.1619
34.5791,6.3666
34.6773,6.5905
34.7374,6.8276
34.7374,6.8276
34.7576,7.0712
34.7576,7.0713
36.8769,7.0713
36.8769,7.0712
36.8971,6.8276
36.9571,6.5907
37.0553,6.3668
37.1516,6.2194
37.7560,6.8238
37.7810,6.7634
37.8521,6.6569
37.9426,6.5664
38.0491,6.4952
38.1095,6.4702
37.5048,5.8655
37.5048,5.8655
37.5475,5.8322
37.7625,5.7159
37.7625,5.7159
37.9937,5.6365
38.2348,5.5962
38.4792,5.5962
38.7203,5.6365
38.9515,5.7159
38.9515,5.7159
39.1665,5.8322
39.2092,5.8655
39.2092,5.8655
38.6045,6.4702
38.6649,6.4952
38.7714,6.5664
38.8619,6.6569
38.9330,6.7634
38.9580,6.8238
39.5624,6.2194
39.6587,6.3668
39.7569,6.5907
39.8169,6.8276
39.8371,7.0712
39.8371,7.0713
41.9564,7.0713
41.9564,7.0712
41.9766,6.8276
41.9766,6.8276
42.0367,6.5905
42.1349,6.3666
42.2686,6.1619
42.4342,5.9820
42.4343,5.9820
42.6272,5.8318
42.6272,5.8318
42.8423,5.7154
42.8423,5.7154
43.0735,5.6360
43.2734,5.6027
43.3147,5.5957
43.5593,5.5957
43.6006,5.6027
43.8005,5.6360
44.0317,5.7154
44.0317,5.7154
44.2468,5.8318
44.2468,5.8318
44.4397,5.9820
44.4398,5.9820
44.6054,6.1619
44.7391,6.3666
44.8373,6.5905
44.8974,6.8276
44.8974,6.8276
44.9176,7.0712
44.9176,7.0713
47.8670,7.0713
47.8670,7.0072
47.8920,6.8817
47.9170,6.8213
47.0420,6.8213
47.0420,6.0484
47.0420,6.0484
47.0484,5.9889
47.0484,5.9889
47.0986,5.8542
47.0986,5.8542
47.1848,5.7391
47.1848,5.7391
47.2999,5.6529
47.2999,5.6529
47.4346,5.6027
47.4346,5.6027
47.4942,5.5962
48.2670,5.5962
48.2670,6.4712
48.3274,6.4462
48.4530,6.4212
48.5810,6.4212
48.7066,6.4462
48.7670,6.4712
48.7670,5.5962
49.5398,5.5962
49.5994,5.6027
49.5994,5.6027
49.7341,5.6529
49.7341,5.6529
49.8492,5.7391
49.8492,5.7391
49.9354,5.8542
49.9354,5.8542
49.9856,5.9889
49.9856,5.9889
49.9920,6.0484
49.9920,6.8213
49.1170,6.8213
49.1420,6.8817
49.1670,7.0072
49.1670,7.1353
49.1420,7.2608
49.1170,7.3213
49.9920,7.3213
49.9920,8.0941
51.0365,8.0941
51.0365,3.1957
51.0168,3.1287
50.9640,3.0830
50.9125,3.0717
1.1615,3.0717
Z" /> 
</g>
<g style="fill:#FFFFFF; fill-opacity:1.0000; stroke:none;">
<circle cx="40.0370" cy="15.5712" r="0.4000" /> 
</g>
<g style="fill:#FFFFFF; fill-opacity:1.0000; stroke:none;">
<circle cx="40.0370" cy="21.5712" r="0.4000" /> 
</g>
<g style="fill:#FFFFFF; fill-opacity:1.0000; stroke:none;">
<circle cx="5.7870" cy="15.3212" r="1.1000" /> 
</g>
<g style="fill:#FFFFFF; fill-opacity:1.0000; stroke:none;">
<circle cx="45.5370" cy="15.3212" r="1.1000" /> 
</g>
<g style="fill:#FFFFFF; fill-opacity:1.0000; stroke:none;">
<circle cx="48.5170" cy="7.0713" r="0.6500" /> 
</g>
<g style="fill:#FFFFFF; fill-opacity:1.0000; stroke:none;">
<circle cx="43.4370" cy="7.0713" r="0.6500" /> 
</g>
<g style="fill:#FFFFFF; fill-opacity:1.0000; stroke:none;">
<circle cx="38.3570" cy="7.0713" r="0.6500" /> 
</g>
<g style="fill:#FFFFFF; fill-opacity:1.0000; stroke:none;">
<circle cx="33.2770" cy="7.0713" r="0.6500" /> 
</g>
<g style="fill:#FFFFFF; fill-opacity:1.0000; stroke:none;">
<circle cx="28.1970" cy="7.0713" r="0.6500" /> 
</g>
<g style="fill:#FFFFFF; fill-opacity:1.0000; stroke:none;">
<circle cx="23.1170" cy="7.0713" r="0.6500" /> 
</g>
<g style="fill:#FFFFFF; fill-opacity:1.0000; stroke:none;">
<circle cx="18.0370" cy="7.0713" r="0.6500" /> 
</g>
<g style="fill:#FFFFFF; fill-opacity:1.0000; stroke:none;">
<circle cx="12.9570" cy="7.0713" r="0.6500" /> 
</g>
<g style="fill:#FFFFFF; fill-opacity:1.0000; stroke:none;">
<circle cx="7.8770" cy="7.0713" r="0.6500" /> 
</g>
<g style="fill:#FFFFFF; fill-opacity:1.0000; stroke:none;">
<circle cx="2.7970" cy="7.0713" r="0.6500" /> 
</g>
<g style="fill:#FFFFFF; fill-opacity:1.0000; stroke:none;">
<circle cx="32.5370" cy="24.6462" r="0.4050" /> 
</g>
<g style="fill:#FFFFFF; fill-opacity:1.0000; stroke:none;">
<circle cx="30.5370" cy="24.6462" r="0.4050" /> 
</g>
<g style="fill:#FFFFFF; fill-opacity:1.0000; stroke:none;">
<circle cx="28.5370" cy="24.6462" r="0.4050" /> 
</g>
<g style="fill:#FFFFFF; fill-opacity:1.0000; stroke:none;">
<circle cx="26.5370" cy="24.6462" r="0.4050" /> 
</g>
<g style="fill:#FFFFFF; fill-opacity:1.0000; stroke:none;">
<circle cx="24.5370" cy="24.6462" r="0.4050" /> 
</g>
<g style="fill:#FFFFFF; fill-opacity:1.0000; stroke:none;">
<circle cx="22.5370" cy="24.6462" r="0.4050" /> 
</g>
<g style="fill:#FFFFFF; fill-opacity:1.0000; stroke:none;">
<circle cx="20.5370" cy="24.6462" r="0.4050" /> 
</g>
<g style="fill:#FFFFFF; fill-opacity:1.0000; stroke:none;">
<circle cx="18.5370" cy="24.6462" r="0.4050" /> 
</g>
<g style="fill:none; 
stroke:#FFFFFF; stroke-width:0.7000; stroke-opacity:1; 
stroke-linecap:round; stroke-linejoin:round;">
<path d="M34.7870 17.7963
L34.7870 18.3962
" />
<path d="M16.2870 17.7963
L16.2870 18.3962
" />
<path style="fill:none; 
stroke:#000000; stroke-width:0.0500; stroke-opacity:1; 
stroke-linecap:round; stroke-linejoin:round;fill:none"
d="M 51.5370,2.5713
0.5370,2.5713
0.5370,26.0712
51.5370,26.0712
Z" /> 
</g> 
</svg>
