<?xml version="1.0" standalone="no"?>
 <!DOCTYPE svg PUBLIC "-//W3C//DTD SVG 1.1//EN" 
 "http://www.w3.org/Graphics/SVG/1.1/DTD/svg11.dtd"> 
<svg
  xmlns:svg="http://www.w3.org/2000/svg"
  xmlns="http://www.w3.org/2000/svg"
  xmlns:xlink="http://www.w3.org/1999/xlink"
  version="1.1"
  width="78.3082mm" height="70.6374mm" viewBox="0.0000 0.0000 78.3082 70.6374">
<title>SVG Image created as Bachelor Shield-F_Cu.svg date 2024/04/29 22:54:03 </title>
  <desc>Image generated by PCBNEW </desc>
<g style="fill:#000000; fill-opacity:1.0000;stroke:#000000; stroke-opacity:1.0000;
stroke-linecap:round; stroke-linejoin:round;"
 transform="translate(0 0) scale(1 1)">
<path style="fill:#000000; fill-opacity:1.0000; stroke:none;fill-rule:evenodd;"
d="M 18.8762,42.3625
20.5762,42.3625
20.5762,40.6625
18.8762,40.6625
Z" /> 
</g>
<g style="fill:#000000; fill-opacity:1.0000; stroke:none;">
<circle cx="17.1862" cy="41.5125" r="0.8500" /> 
<circle cx="14.6462" cy="41.5125" r="0.8500" /> 
<path style="fill:#000000; fill-opacity:1.0000; stroke:none;fill-rule:evenodd;"
d="M 25.0712,59.8125
25.0902,59.9082
25.1444,59.9893
25.2255,60.0435
25.3212,60.0625
26.1462,60.0625
26.2418,60.0435
26.3230,59.9893
26.3771,59.9082
26.3962,59.8125
26.3962,58.5125
26.3771,58.4168
26.3230,58.3357
26.2418,58.2815
26.1462,58.2625
25.3212,58.2625
25.2255,58.2815
25.1444,58.3357
25.0902,58.4168
25.0712,58.5125
Z" /> 
<path style="fill:#000000; fill-opacity:1.0000; stroke:none;fill-rule:evenodd;"
d="M 28.1962,59.8125
28.2152,59.9082
28.2694,59.9893
28.3505,60.0435
28.4462,60.0625
29.2712,60.0625
29.3668,60.0435
29.4480,59.9893
29.5021,59.9082
29.5212,59.8125
29.5212,58.5125
29.5021,58.4168
29.4480,58.3357
29.3668,58.2815
29.2712,58.2625
28.4462,58.2625
28.3505,58.2815
28.2694,58.3357
28.2152,58.4168
28.1962,58.5125
Z" /> 
<path style="fill:#000000; fill-opacity:1.0000; stroke:none;fill-rule:evenodd;"
d="M 14.9337,53.1625
14.9527,53.2582
15.0069,53.3393
15.0880,53.3935
15.1837,53.4125
16.0087,53.4125
16.1043,53.3935
16.1855,53.3393
16.2396,53.2582
16.2587,53.1625
16.2587,51.8625
16.2396,51.7668
16.1855,51.6857
16.1043,51.6315
16.0087,51.6125
15.1837,51.6125
15.0880,51.6315
15.0069,51.6857
14.9527,51.7668
14.9337,51.8625
Z" /> 
<path style="fill:#000000; fill-opacity:1.0000; stroke:none;fill-rule:evenodd;"
d="M 18.0587,53.1625
18.0777,53.2582
18.1319,53.3393
18.2130,53.3935
18.3087,53.4125
19.1337,53.4125
19.2293,53.3935
19.3105,53.3393
19.3646,53.2582
19.3837,53.1625
19.3837,51.8625
19.3646,51.7668
19.3105,51.6857
19.2293,51.6315
19.1337,51.6125
18.3087,51.6125
18.2130,51.6315
18.1319,51.6857
18.0777,51.7668
18.0587,51.8625
Z" /> 
<path style="fill:#000000; fill-opacity:1.0000; stroke:none;fill-rule:evenodd;"
d="M 11.2462,3.0375
11.1505,3.0565
11.0694,3.1107
11.0152,3.1918
10.9962,3.2875
10.9962,4.1125
11.0152,4.2082
11.0694,4.2893
11.1505,4.3435
11.2462,4.3625
12.5462,4.3625
12.6418,4.3435
12.7230,4.2893
12.7771,4.2082
12.7962,4.1125
12.7962,3.2875
12.7771,3.1918
12.7230,3.1107
12.6418,3.0565
12.5462,3.0375
Z" /> 
<path style="fill:#000000; fill-opacity:1.0000; stroke:none;fill-rule:evenodd;"
d="M 11.2462,6.1625
11.1505,6.1815
11.0694,6.2357
11.0152,6.3168
10.9962,6.4125
10.9962,7.2375
11.0152,7.3332
11.0694,7.4143
11.1505,7.4685
11.2462,7.4875
12.5462,7.4875
12.6418,7.4685
12.7230,7.4143
12.7771,7.3332
12.7962,7.2375
12.7962,6.4125
12.7771,6.3168
12.7230,6.2357
12.6418,6.1815
12.5462,6.1625
Z" /> 
<circle cx="20.3962" cy="5.7625" r="0.7493" /> 
</g>
<g style="fill:#000000; fill-opacity:1.0000; stroke:none;">
<circle cx="24.8962" cy="5.7625" r="0.7493" /> 
</g>
<g style="fill:#000000; fill-opacity:1.0000; stroke:none;">
<circle cx="19.1412" cy="8.2528" r="0.9017" /> 
</g>
<g style="fill:#000000; fill-opacity:1.0000; stroke:none;">
<circle cx="26.1512" cy="8.2528" r="0.9017" /> 
<path style="fill:#000000; fill-opacity:1.0000; stroke:none;fill-rule:evenodd;"
d="M 31.6462,60.9000
31.5505,60.9190
31.4694,60.9732
31.4152,61.0543
31.3962,61.1500
31.3962,61.9750
31.4152,62.0707
31.4694,62.1518
31.5505,62.2060
31.6462,62.2250
32.9462,62.2250
33.0418,62.2060
33.1230,62.1518
33.1771,62.0707
33.1962,61.9750
33.1962,61.1500
33.1771,61.0543
33.1230,60.9732
33.0418,60.9190
32.9462,60.9000
Z" /> 
<path style="fill:#000000; fill-opacity:1.0000; stroke:none;fill-rule:evenodd;"
d="M 31.6462,64.0250
31.5505,64.0440
31.4694,64.0982
31.4152,64.1793
31.3962,64.2750
31.3962,65.1000
31.4152,65.1957
31.4694,65.2768
31.5505,65.3310
31.6462,65.3500
32.9462,65.3500
33.0418,65.3310
33.1230,65.2768
33.1771,65.1957
33.1962,65.1000
33.1962,64.2750
33.1771,64.1793
33.1230,64.0982
33.0418,64.0440
32.9462,64.0250
Z" /> 
<path style="fill:#000000; fill-opacity:1.0000; stroke:none;fill-rule:evenodd;"
d="M 26.7462,11.8875
26.7652,11.9832
26.8194,12.0643
26.9005,12.1185
26.9962,12.1375
27.7962,12.1375
27.8918,12.1185
27.9730,12.0643
28.0271,11.9832
28.0462,11.8875
28.0462,10.6375
28.0271,10.5418
27.9730,10.4607
27.8918,10.4065
27.7962,10.3875
26.9962,10.3875
26.9005,10.4065
26.8194,10.4607
26.7652,10.5418
26.7462,10.6375
Z" /> 
<path style="fill:#000000; fill-opacity:1.0000; stroke:none;fill-rule:evenodd;"
d="M 29.8462,11.8875
29.8652,11.9832
29.9194,12.0643
30.0005,12.1185
30.0962,12.1375
30.8962,12.1375
30.9918,12.1185
31.0730,12.0643
31.1271,11.9832
31.1462,11.8875
31.1462,10.6375
31.1271,10.5418
31.0730,10.4607
30.9918,10.4065
30.8962,10.3875
30.0962,10.3875
30.0005,10.4065
29.9194,10.4607
29.8652,10.5418
29.8462,10.6375
Z" /> 
<path style="fill:#000000; fill-opacity:1.0000; stroke:none;fill-rule:evenodd;"
d="M 16.0212,15.7125
16.1168,15.6935
16.1980,15.6393
16.2521,15.5582
16.2712,15.4625
16.2712,14.6625
16.2521,14.5668
16.1980,14.4857
16.1168,14.4315
16.0212,14.4125
14.7712,14.4125
14.6755,14.4315
14.5944,14.4857
14.5402,14.5668
14.5212,14.6625
14.5212,15.4625
14.5402,15.5582
14.5944,15.6393
14.6755,15.6935
14.7712,15.7125
Z" /> 
<path style="fill:#000000; fill-opacity:1.0000; stroke:none;fill-rule:evenodd;"
d="M 16.0212,12.6125
16.1168,12.5935
16.1980,12.5393
16.2521,12.4582
16.2712,12.3625
16.2712,11.5625
16.2521,11.4668
16.1980,11.3857
16.1168,11.3315
16.0212,11.3125
14.7712,11.3125
14.6755,11.3315
14.5944,11.3857
14.5402,11.4668
14.5212,11.5625
14.5212,12.3625
14.5402,12.4582
14.5944,12.5393
14.6755,12.5935
14.7712,12.6125
Z" /> 
<path style="fill:#000000; fill-opacity:1.0000; stroke:none;fill-rule:evenodd;"
d="M 61.6712,29.2125
61.6902,29.3082
61.7444,29.3893
61.8255,29.4435
61.9212,29.4625
62.7462,29.4625
62.8418,29.4435
62.9230,29.3893
62.9771,29.3082
62.9962,29.2125
62.9962,27.9125
62.9771,27.8168
62.9230,27.7357
62.8418,27.6815
62.7462,27.6625
61.9212,27.6625
61.8255,27.6815
61.7444,27.7357
61.6902,27.8168
61.6712,27.9125
Z" /> 
<path style="fill:#000000; fill-opacity:1.0000; stroke:none;fill-rule:evenodd;"
d="M 64.7962,29.2125
64.8152,29.3082
64.8694,29.3893
64.9505,29.4435
65.0462,29.4625
65.8712,29.4625
65.9668,29.4435
66.0480,29.3893
66.1021,29.3082
66.1212,29.2125
66.1212,27.9125
66.1021,27.8168
66.0480,27.7357
65.9668,27.6815
65.8712,27.6625
65.0462,27.6625
64.9505,27.6815
64.8694,27.7357
64.8152,27.8168
64.7962,27.9125
Z" /> 
</g>
<g style="fill:#000000; fill-opacity:1.0000; stroke:none;">
<circle cx="56.4212" cy="68.0400" r="0.7110" /> 
</g>
<g style="fill:#000000; fill-opacity:1.0000; stroke:none;">
<circle cx="53.8812" cy="68.0400" r="0.7110" /> 
</g>
<g style="fill:#000000; fill-opacity:1.0000; stroke:none;">
<circle cx="51.3412" cy="68.0400" r="0.7110" /> 
<path style="fill:#000000; fill-opacity:1.0000; stroke:none;fill-rule:evenodd;"
d="M 25.6062,46.6000
24.0062,46.6000
24.0062,48.2000
25.6062,48.2000
Z" /> 
</g>
<g style="fill:#000000; fill-opacity:1.0000; stroke:none;">
<circle cx="27.3462" cy="47.4000" r="0.8000" /> 
<circle cx="29.8862" cy="47.4000" r="0.8000" /> 
<circle cx="32.4262" cy="47.4000" r="0.8000" /> 
<circle cx="34.9662" cy="47.4000" r="0.8000" /> 
<circle cx="37.5062" cy="47.4000" r="0.8000" /> 
<circle cx="40.0462" cy="47.4000" r="0.8000" /> 
<circle cx="40.0462" cy="55.0200" r="0.8000" /> 
<circle cx="37.5062" cy="55.0200" r="0.8000" /> 
<circle cx="34.9662" cy="55.0200" r="0.8000" /> 
<circle cx="32.4262" cy="55.0200" r="0.8000" /> 
<circle cx="29.8862" cy="55.0200" r="0.8000" /> 
<circle cx="27.3462" cy="55.0200" r="0.8000" /> 
<circle cx="24.8062" cy="55.0200" r="0.8000" /> 
<path style="fill:#000000; fill-opacity:1.0000; stroke:none;fill-rule:evenodd;"
d="M 9.5212,57.0125
9.6168,56.9935
9.6980,56.9393
9.7521,56.8582
9.7712,56.7625
9.7712,55.9625
9.7521,55.8668
9.6980,55.7857
9.6168,55.7315
9.5212,55.7125
8.2712,55.7125
8.1755,55.7315
8.0944,55.7857
8.0402,55.8668
8.0212,55.9625
8.0212,56.7625
8.0402,56.8582
8.0944,56.9393
8.1755,56.9935
8.2712,57.0125
Z" /> 
<path style="fill:#000000; fill-opacity:1.0000; stroke:none;fill-rule:evenodd;"
d="M 9.5212,53.9125
9.6168,53.8935
9.6980,53.8393
9.7521,53.7582
9.7712,53.6625
9.7712,52.8625
9.7521,52.7668
9.6980,52.6857
9.6168,52.6315
9.5212,52.6125
8.2712,52.6125
8.1755,52.6315
8.0944,52.6857
8.0402,52.7668
8.0212,52.8625
8.0212,53.6625
8.0402,53.7582
8.0944,53.8393
8.1755,53.8935
8.2712,53.9125
Z" /> 
<path style="fill:#000000; fill-opacity:1.0000; stroke:none;fill-rule:evenodd;"
d="M 63.1342,61.4380
63.1342,62.9620
64.6582,62.9620
64.6582,61.4380
Z" /> 
<circle cx="63.8962" cy="60.2000" r="0.7620" /> 
</g>
<g style="fill:#000000; fill-opacity:1.0000; stroke:none;">
<circle cx="63.8962" cy="58.2000" r="0.7620" /> 
</g>
<g style="fill:#000000; fill-opacity:1.0000; stroke:none;">
<circle cx="63.8962" cy="56.2000" r="0.7620" /> 
</g>
<g style="fill:#000000; fill-opacity:1.0000; stroke:none;">
<circle cx="63.8962" cy="54.2000" r="0.7620" /> 
</g>
<g style="fill:#000000; fill-opacity:1.0000; stroke:none;">
<circle cx="63.8962" cy="52.2000" r="0.7620" /> 
</g>
<g style="fill:#000000; fill-opacity:1.0000; stroke:none;">
<circle cx="63.8962" cy="50.2000" r="0.7620" /> 
</g>
<g style="fill:#000000; fill-opacity:1.0000; stroke:none;">
<circle cx="63.8962" cy="48.2000" r="0.7620" /> 
</g>
<g style="fill:none; 
stroke:#000000; stroke-width:1.4000; stroke-opacity:1; 
stroke-linecap:round; stroke-linejoin:round;">
<path d="M71.0462 64.4500
L69.8462 64.4500
" />
<path d="M71.0462 45.9500
L69.8462 45.9500
" />
<path style="fill:#000000; fill-opacity:1.0000; stroke:none;fill-rule:evenodd;"
d="M 47.5212,63.2000
47.6168,63.1810
47.6980,63.1268
47.7521,63.0457
47.7712,62.9500
47.7712,62.1500
47.7521,62.0543
47.6980,61.9732
47.6168,61.9190
47.5212,61.9000
46.2712,61.9000
46.1755,61.9190
46.0944,61.9732
46.0402,62.0543
46.0212,62.1500
46.0212,62.9500
46.0402,63.0457
46.0944,63.1268
46.1755,63.1810
46.2712,63.2000
Z" /> 
<path style="fill:#000000; fill-opacity:1.0000; stroke:none;fill-rule:evenodd;"
d="M 47.5212,60.1000
47.6168,60.0810
47.6980,60.0268
47.7521,59.9457
47.7712,59.8500
47.7712,59.0500
47.7521,58.9543
47.6980,58.8732
47.6168,58.8190
47.5212,58.8000
46.2712,58.8000
46.1755,58.8190
46.0944,58.8732
46.0402,58.9543
46.0212,59.0500
46.0212,59.8500
46.0402,59.9457
46.0944,60.0268
46.1755,60.0810
46.2712,60.1000
Z" /> 
<path style="fill:#000000; fill-opacity:1.0000; stroke:none;fill-rule:evenodd;"
d="M 29.3362,37.6825
30.9362,37.6825
30.9362,36.0825
29.3362,36.0825
Z" /> 
</g>
<g style="fill:#000000; fill-opacity:1.0000; stroke:none;">
<circle cx="27.5962" cy="36.8825" r="0.8000" /> 
<circle cx="25.0562" cy="36.8825" r="0.8000" /> 
<circle cx="22.5162" cy="36.8825" r="0.8000" /> 
<circle cx="19.9762" cy="36.8825" r="0.8000" /> 
<circle cx="17.4362" cy="36.8825" r="0.8000" /> 
<circle cx="14.8962" cy="36.8825" r="0.8000" /> 
<circle cx="14.8962" cy="29.2625" r="0.8000" /> 
<circle cx="17.4362" cy="29.2625" r="0.8000" /> 
<circle cx="19.9762" cy="29.2625" r="0.8000" /> 
<circle cx="22.5162" cy="29.2625" r="0.8000" /> 
<circle cx="25.0562" cy="29.2625" r="0.8000" /> 
<circle cx="27.5962" cy="29.2625" r="0.8000" /> 
<circle cx="30.1362" cy="29.2625" r="0.8000" /> 
<path style="fill:#000000; fill-opacity:1.0000; stroke:none;fill-rule:evenodd;"
d="M 67.1342,11.3245
68.6582,11.3245
68.6582,9.8005
67.1342,9.8005
Z" /> 
<circle cx="65.8962" cy="10.5625" r="0.7620" /> 
</g>
<g style="fill:#000000; fill-opacity:1.0000; stroke:none;">
<circle cx="63.8962" cy="10.5625" r="0.7620" /> 
</g>
<g style="fill:#000000; fill-opacity:1.0000; stroke:none;">
<circle cx="61.8962" cy="10.5625" r="0.7620" /> 
</g>
<g style="fill:#000000; fill-opacity:1.0000; stroke:none;">
<circle cx="59.8962" cy="10.5625" r="0.7620" /> 
</g>
<g style="fill:#000000; fill-opacity:1.0000; stroke:none;">
<circle cx="57.8962" cy="10.5625" r="0.7620" /> 
</g>
<g style="fill:#000000; fill-opacity:1.0000; stroke:none;">
<circle cx="55.8962" cy="10.5625" r="0.7620" /> 
</g>
<g style="fill:#000000; fill-opacity:1.0000; stroke:none;">
<circle cx="53.8962" cy="10.5625" r="0.7620" /> 
</g>
<g style="fill:none; 
stroke:#000000; stroke-width:1.4000; stroke-opacity:1; 
stroke-linecap:round; stroke-linejoin:round;">
<path d="M70.1462 3.4125
L70.1462 4.6125
" />
<path d="M51.6462 3.4125
L51.6462 4.6125
" />
<path style="fill:#000000; fill-opacity:1.0000; stroke:none;fill-rule:evenodd;"
d="M 28.9962,2.9750
28.9005,2.9940
28.8194,3.0482
28.7652,3.1293
28.7462,3.2250
28.7462,4.0500
28.7652,4.1457
28.8194,4.2268
28.9005,4.2810
28.9962,4.3000
30.2962,4.3000
30.3918,4.2810
30.4730,4.2268
30.5271,4.1457
30.5462,4.0500
30.5462,3.2250
30.5271,3.1293
30.4730,3.0482
30.3918,2.9940
30.2962,2.9750
Z" /> 
<path style="fill:#000000; fill-opacity:1.0000; stroke:none;fill-rule:evenodd;"
d="M 28.9962,6.1000
28.9005,6.1190
28.8194,6.1732
28.7652,6.2543
28.7462,6.3500
28.7462,7.1750
28.7652,7.2707
28.8194,7.3518
28.9005,7.4060
28.9962,7.4250
30.2962,7.4250
30.3918,7.4060
30.4730,7.3518
30.5271,7.2707
30.5462,7.1750
30.5462,6.3500
30.5271,6.2543
30.4730,6.1732
30.3918,6.1190
30.2962,6.1000
Z" /> 
<path style="fill:#000000; fill-opacity:1.0000; stroke:none;fill-rule:evenodd;"
d="M 14.8962,48.1375
14.9152,48.2332
14.9694,48.3143
15.0505,48.3685
15.1462,48.3875
15.9462,48.3875
16.0418,48.3685
16.1230,48.3143
16.1771,48.2332
16.1962,48.1375
16.1962,46.8875
16.1771,46.7918
16.1230,46.7107
16.0418,46.6565
15.9462,46.6375
15.1462,46.6375
15.0505,46.6565
14.9694,46.7107
14.9152,46.7918
14.8962,46.8875
Z" /> 
<path style="fill:#000000; fill-opacity:1.0000; stroke:none;fill-rule:evenodd;"
d="M 17.9962,48.1375
18.0152,48.2332
18.0694,48.3143
18.1505,48.3685
18.2462,48.3875
19.0462,48.3875
19.1418,48.3685
19.2230,48.3143
19.2771,48.2332
19.2962,48.1375
19.2962,46.8875
19.2771,46.7918
19.2230,46.7107
19.1418,46.6565
19.0462,46.6375
18.2462,46.6375
18.1505,46.6565
18.0694,46.7107
18.0152,46.7918
17.9962,46.8875
Z" /> 
<path style="fill:#000000; fill-opacity:1.0000; stroke:none;fill-rule:evenodd;"
d="M 26.7462,23.9125
25.0462,23.9125
25.0462,25.6125
26.7462,25.6125
Z" /> 
</g>
<g style="fill:#000000; fill-opacity:1.0000; stroke:none;">
<circle cx="28.4362" cy="24.7625" r="0.8500" /> 
<circle cx="30.9762" cy="24.7625" r="0.8500" /> 
<circle cx="10.5942" cy="40.1150" r="0.7110" /> 
</g>
<g style="fill:#000000; fill-opacity:1.0000; stroke:none;">
<circle cx="8.0542" cy="40.1150" r="0.7110" /> 
</g>
<g style="fill:#000000; fill-opacity:1.0000; stroke:none;">
<circle cx="10.5942" cy="42.6550" r="0.7110" /> 
</g>
<g style="fill:#000000; fill-opacity:1.0000; stroke:none;">
<circle cx="8.0542" cy="42.6550" r="0.7110" /> 
</g>
<g style="fill:#000000; fill-opacity:1.0000; stroke:none;">
<circle cx="10.5942" cy="45.1950" r="0.7110" /> 
</g>
<g style="fill:#000000; fill-opacity:1.0000; stroke:none;">
<circle cx="8.0542" cy="45.1950" r="0.7110" /> 
<path style="fill:#000000; fill-opacity:1.0000; stroke:none;fill-rule:evenodd;"
d="M 64.0212,39.0125
63.9255,39.0315
63.8444,39.0857
63.7902,39.1668
63.7712,39.2625
63.7712,40.0625
63.7902,40.1582
63.8444,40.2393
63.9255,40.2935
64.0212,40.3125
65.2712,40.3125
65.3668,40.2935
65.4480,40.2393
65.5021,40.1582
65.5212,40.0625
65.5212,39.2625
65.5021,39.1668
65.4480,39.0857
65.3668,39.0315
65.2712,39.0125
Z" /> 
<path style="fill:#000000; fill-opacity:1.0000; stroke:none;fill-rule:evenodd;"
d="M 64.0212,42.1125
63.9255,42.1315
63.8444,42.1857
63.7902,42.2668
63.7712,42.3625
63.7712,43.1625
63.7902,43.2582
63.8444,43.3393
63.9255,43.3935
64.0212,43.4125
65.2712,43.4125
65.3668,43.3935
65.4480,43.3393
65.5021,43.2582
65.5212,43.1625
65.5212,42.3625
65.5021,42.2668
65.4480,42.1857
65.3668,42.1315
65.2712,42.1125
Z" /> 
<path style="fill:#000000; fill-opacity:1.0000; stroke:none;fill-rule:evenodd;"
d="M 15.7462,3.0375
15.6505,3.0565
15.5694,3.1107
15.5152,3.1918
15.4962,3.2875
15.4962,4.1125
15.5152,4.2082
15.5694,4.2893
15.6505,4.3435
15.7462,4.3625
17.0462,4.3625
17.1418,4.3435
17.2230,4.2893
17.2771,4.2082
17.2962,4.1125
17.2962,3.2875
17.2771,3.1918
17.2230,3.1107
17.1418,3.0565
17.0462,3.0375
Z" /> 
<path style="fill:#000000; fill-opacity:1.0000; stroke:none;fill-rule:evenodd;"
d="M 15.7462,6.1625
15.6505,6.1815
15.5694,6.2357
15.5152,6.3168
15.4962,6.4125
15.4962,7.2375
15.5152,7.3332
15.5694,7.4143
15.6505,7.4685
15.7462,7.4875
17.0462,7.4875
17.1418,7.4685
17.2230,7.4143
17.2771,7.3332
17.2962,7.2375
17.2962,6.4125
17.2771,6.3168
17.2230,6.2357
17.1418,6.1815
17.0462,6.1625
Z" /> 
<path style="fill:#000000; fill-opacity:1.0000; stroke:none;fill-rule:evenodd;"
d="M 68.3712,22.9125
68.3521,22.8168
68.2980,22.7357
68.2168,22.6815
68.1212,22.6625
67.2962,22.6625
67.2005,22.6815
67.1194,22.7357
67.0652,22.8168
67.0462,22.9125
67.0462,24.2125
67.0652,24.3082
67.1194,24.3893
67.2005,24.4435
67.2962,24.4625
68.1212,24.4625
68.2168,24.4435
68.2980,24.3893
68.3521,24.3082
68.3712,24.2125
Z" /> 
<path style="fill:#000000; fill-opacity:1.0000; stroke:none;fill-rule:evenodd;"
d="M 65.2462,22.9125
65.2271,22.8168
65.1730,22.7357
65.0918,22.6815
64.9962,22.6625
64.1712,22.6625
64.0755,22.6815
63.9944,22.7357
63.9402,22.8168
63.9212,22.9125
63.9212,24.2125
63.9402,24.3082
63.9944,24.3893
64.0755,24.4435
64.1712,24.4625
64.9962,24.4625
65.0918,24.4435
65.1730,24.3893
65.2271,24.3082
65.2462,24.2125
Z" /> 
<path style="fill:#000000; fill-opacity:1.0000; stroke:none;fill-rule:evenodd;"
d="M 53.0212,63.2000
53.1168,63.1810
53.1980,63.1268
53.2521,63.0457
53.2712,62.9500
53.2712,62.1500
53.2521,62.0543
53.1980,61.9732
53.1168,61.9190
53.0212,61.9000
51.7712,61.9000
51.6755,61.9190
51.5944,61.9732
51.5402,62.0543
51.5212,62.1500
51.5212,62.9500
51.5402,63.0457
51.5944,63.1268
51.6755,63.1810
51.7712,63.2000
Z" /> 
<path style="fill:#000000; fill-opacity:1.0000; stroke:none;fill-rule:evenodd;"
d="M 53.0212,60.1000
53.1168,60.0810
53.1980,60.0268
53.2521,59.9457
53.2712,59.8500
53.2712,59.0500
53.2521,58.9543
53.1980,58.8732
53.1168,58.8190
53.0212,58.8000
51.7712,58.8000
51.6755,58.8190
51.5944,58.8732
51.5402,58.9543
51.5212,59.0500
51.5212,59.8500
51.5402,59.9457
51.5944,60.0268
51.6755,60.0810
51.7712,60.1000
Z" /> 
<path style="fill:#000000; fill-opacity:1.0000; stroke:none;fill-rule:evenodd;"
d="M 14.7212,23.9125
13.0212,23.9125
13.0212,25.6125
14.7212,25.6125
Z" /> 
</g>
<g style="fill:#000000; fill-opacity:1.0000; stroke:none;">
<circle cx="16.4112" cy="24.7625" r="0.8500" /> 
<circle cx="18.9512" cy="24.7625" r="0.8500" /> 
<circle cx="37.3962" cy="5.7625" r="0.7493" /> 
</g>
<g style="fill:#000000; fill-opacity:1.0000; stroke:none;">
<circle cx="41.8962" cy="5.7625" r="0.7493" /> 
</g>
<g style="fill:#000000; fill-opacity:1.0000; stroke:none;">
<circle cx="36.1412" cy="8.2528" r="0.9017" /> 
</g>
<g style="fill:#000000; fill-opacity:1.0000; stroke:none;">
<circle cx="43.1512" cy="8.2528" r="0.9017" /> 
<path style="fill:#000000; fill-opacity:1.0000; stroke:none;fill-rule:evenodd;"
d="M 37.7212,63.1625
37.8168,63.1435
37.8980,63.0893
37.9521,63.0082
37.9712,62.9125
37.9712,62.1125
37.9521,62.0168
37.8980,61.9357
37.8168,61.8815
37.7212,61.8625
36.4712,61.8625
36.3755,61.8815
36.2944,61.9357
36.2402,62.0168
36.2212,62.1125
36.2212,62.9125
36.2402,63.0082
36.2944,63.0893
36.3755,63.1435
36.4712,63.1625
Z" /> 
<path style="fill:#000000; fill-opacity:1.0000; stroke:none;fill-rule:evenodd;"
d="M 37.7212,60.0625
37.8168,60.0435
37.8980,59.9893
37.9521,59.9082
37.9712,59.8125
37.9712,59.0125
37.9521,58.9168
37.8980,58.8357
37.8168,58.7815
37.7212,58.7625
36.4712,58.7625
36.3755,58.7815
36.2944,58.8357
36.2402,58.9168
36.2212,59.0125
36.2212,59.8125
36.2402,59.9082
36.2944,59.9893
36.3755,60.0435
36.4712,60.0625
Z" /> 
<path style="fill:#000000; fill-opacity:1.0000; stroke:none;fill-rule:evenodd;"
d="M 42.5212,63.2000
42.6168,63.1810
42.6980,63.1268
42.7521,63.0457
42.7712,62.9500
42.7712,62.1500
42.7521,62.0543
42.6980,61.9732
42.6168,61.9190
42.5212,61.9000
41.2712,61.9000
41.1755,61.9190
41.0944,61.9732
41.0402,62.0543
41.0212,62.1500
41.0212,62.9500
41.0402,63.0457
41.0944,63.1268
41.1755,63.1810
41.2712,63.2000
Z" /> 
<path style="fill:#000000; fill-opacity:1.0000; stroke:none;fill-rule:evenodd;"
d="M 42.5212,60.1000
42.6168,60.0810
42.6980,60.0268
42.7521,59.9457
42.7712,59.8500
42.7712,59.0500
42.7521,58.9543
42.6980,58.8732
42.6168,58.8190
42.5212,58.8000
41.2712,58.8000
41.1755,58.8190
41.0944,58.8732
41.0402,58.9543
41.0212,59.0500
41.0212,59.8500
41.0402,59.9457
41.0944,60.0268
41.1755,60.0810
41.2712,60.1000
Z" /> 
<path style="fill:#000000; fill-opacity:1.0000; stroke:none;fill-rule:evenodd;"
d="M 68.5212,39.0125
68.4255,39.0315
68.3444,39.0857
68.2902,39.1668
68.2712,39.2625
68.2712,40.0625
68.2902,40.1582
68.3444,40.2393
68.4255,40.2935
68.5212,40.3125
69.7712,40.3125
69.8668,40.2935
69.9480,40.2393
70.0021,40.1582
70.0212,40.0625
70.0212,39.2625
70.0021,39.1668
69.9480,39.0857
69.8668,39.0315
69.7712,39.0125
Z" /> 
<path style="fill:#000000; fill-opacity:1.0000; stroke:none;fill-rule:evenodd;"
d="M 68.5212,42.1125
68.4255,42.1315
68.3444,42.1857
68.2902,42.2668
68.2712,42.3625
68.2712,43.1625
68.2902,43.2582
68.3444,43.3393
68.4255,43.3935
68.5212,43.4125
69.7712,43.4125
69.8668,43.3935
69.9480,43.3393
70.0021,43.2582
70.0212,43.1625
70.0212,42.3625
70.0021,42.2668
69.9480,42.1857
69.8668,42.1315
69.7712,42.1125
Z" /> 
<path style="fill:#000000; fill-opacity:1.0000; stroke:none;fill-rule:evenodd;"
d="M 45.7712,33.5125
45.8668,33.4935
45.9480,33.4393
46.0021,33.3582
46.0212,33.2625
46.0212,32.4625
46.0021,32.3668
45.9480,32.2857
45.8668,32.2315
45.7712,32.2125
44.5212,32.2125
44.4255,32.2315
44.3444,32.2857
44.2902,32.3668
44.2712,32.4625
44.2712,33.2625
44.2902,33.3582
44.3444,33.4393
44.4255,33.4935
44.5212,33.5125
Z" /> 
<path style="fill:#000000; fill-opacity:1.0000; stroke:none;fill-rule:evenodd;"
d="M 45.7712,30.4125
45.8668,30.3935
45.9480,30.3393
46.0021,30.2582
46.0212,30.1625
46.0212,29.3625
46.0021,29.2668
45.9480,29.1857
45.8668,29.1315
45.7712,29.1125
44.5212,29.1125
44.4255,29.1315
44.3444,29.1857
44.2902,29.2668
44.2712,29.3625
44.2712,30.1625
44.2902,30.2582
44.3444,30.3393
44.4255,30.3935
44.5212,30.4125
Z" /> 
<path style="fill:#000000; fill-opacity:1.0000; stroke:none;fill-rule:evenodd;"
d="M 23.3212,65.3125
23.4168,65.2935
23.4980,65.2393
23.5521,65.1582
23.5712,65.0625
23.5712,64.2625
23.5521,64.1668
23.4980,64.0857
23.4168,64.0315
23.3212,64.0125
22.0712,64.0125
21.9755,64.0315
21.8944,64.0857
21.8402,64.1668
21.8212,64.2625
21.8212,65.0625
21.8402,65.1582
21.8944,65.2393
21.9755,65.2935
22.0712,65.3125
Z" /> 
<path style="fill:#000000; fill-opacity:1.0000; stroke:none;fill-rule:evenodd;"
d="M 23.3212,62.2125
23.4168,62.1935
23.4980,62.1393
23.5521,62.0582
23.5712,61.9625
23.5712,61.1625
23.5521,61.0668
23.4980,60.9857
23.4168,60.9315
23.3212,60.9125
22.0712,60.9125
21.9755,60.9315
21.8944,60.9857
21.8402,61.0668
21.8212,61.1625
21.8212,61.9625
21.8402,62.0582
21.8944,62.1393
21.9755,62.1935
22.0712,62.2125
Z" /> 
</g>
<g style="fill:#000000; fill-opacity:1.0000; stroke:none;">
<circle cx="28.4962" cy="19.7800" r="0.7110" /> 
</g>
<g style="fill:#000000; fill-opacity:1.0000; stroke:none;">
<circle cx="25.9562" cy="19.7800" r="0.7110" /> 
</g>
<g style="fill:#000000; fill-opacity:1.0000; stroke:none;">
<circle cx="23.4162" cy="19.7800" r="0.7110" /> 
</g>
<g style="fill:#000000; fill-opacity:1.0000; stroke:none;">
<circle cx="20.8762" cy="19.7800" r="0.7110" /> 
</g>
<g style="fill:#000000; fill-opacity:1.0000; stroke:none;">
<circle cx="18.3362" cy="19.7800" r="0.7110" /> 
</g>
<g style="fill:#000000; fill-opacity:1.0000; stroke:none;">
<circle cx="15.7962" cy="19.7800" r="0.7110" /> 
</g>
<g style="fill:#000000; fill-opacity:1.0000; stroke:none;">
<circle cx="13.2562" cy="19.7800" r="0.7110" /> 
</g>
<g style="fill:#000000; fill-opacity:1.0000; stroke:none;">
<circle cx="10.7162" cy="19.7800" r="0.7110" /> 
<path style="fill:#000000; fill-opacity:1.0000; stroke:none;fill-rule:evenodd;"
d="M 62.1937,30.7625
62.1937,32.7625
64.0987,32.7625
64.0987,30.7625
Z" /> 
</g>
<g style="fill:none; 
stroke:#000000; stroke-width:1.9050; stroke-opacity:1; 
stroke-linecap:round; stroke-linejoin:round;">
<path d="M65.6862 31.8100
L65.6862 31.7150
" />
<path d="M68.2262 31.8100
L68.2262 31.7150
" />
</g>
<g style="fill:#000000; fill-opacity:1.0000; stroke:none;">
<circle cx="55.4202" cy="19.7800" r="0.7110" /> 
</g>
<g style="fill:#000000; fill-opacity:1.0000; stroke:none;">
<circle cx="52.8802" cy="19.7800" r="0.7110" /> 
</g>
<g style="fill:#000000; fill-opacity:1.0000; stroke:none;">
<circle cx="50.3402" cy="19.7800" r="0.7110" /> 
</g>
<g style="fill:#000000; fill-opacity:1.0000; stroke:none;">
<circle cx="47.8002" cy="19.7800" r="0.7110" /> 
</g>
<g style="fill:#000000; fill-opacity:1.0000; stroke:none;">
<circle cx="45.2602" cy="19.7800" r="0.7110" /> 
</g>
<g style="fill:#000000; fill-opacity:1.0000; stroke:none;">
<circle cx="42.7202" cy="19.7800" r="0.7110" /> 
</g>
<g style="fill:#000000; fill-opacity:1.0000; stroke:none;">
<circle cx="40.1802" cy="19.7800" r="0.7110" /> 
</g>
<g style="fill:#000000; fill-opacity:1.0000; stroke:none;">
<circle cx="37.6402" cy="19.7800" r="0.7110" /> 
</g>
<g style="fill:#000000; fill-opacity:1.0000; stroke:none;">
<circle cx="35.1002" cy="19.7800" r="0.7110" /> 
</g>
<g style="fill:#000000; fill-opacity:1.0000; stroke:none;">
<circle cx="32.5602" cy="19.7800" r="0.7110" /> 
</g>
<g style="fill:#000000; fill-opacity:1.0000; stroke:none;">
<circle cx="23.4162" cy="68.0400" r="0.7110" /> 
</g>
<g style="fill:#000000; fill-opacity:1.0000; stroke:none;">
<circle cx="20.8762" cy="68.0400" r="0.7110" /> 
</g>
<g style="fill:#000000; fill-opacity:1.0000; stroke:none;">
<circle cx="18.3362" cy="68.0400" r="0.7110" /> 
</g>
<g style="fill:#000000; fill-opacity:1.0000; stroke:none;">
<circle cx="15.7962" cy="68.0400" r="0.7110" /> 
</g>
<g style="fill:#000000; fill-opacity:1.0000; stroke:none;">
<circle cx="13.2562" cy="68.0400" r="0.7110" /> 
</g>
<g style="fill:#000000; fill-opacity:1.0000; stroke:none;">
<circle cx="10.7162" cy="68.0400" r="0.7110" /> 
</g>
<g style="fill:#000000; fill-opacity:1.0000; stroke:none;">
<circle cx="46.2762" cy="68.0400" r="0.7110" /> 
</g>
<g style="fill:#000000; fill-opacity:1.0000; stroke:none;">
<circle cx="43.7362" cy="68.0400" r="0.7110" /> 
</g>
<g style="fill:#000000; fill-opacity:1.0000; stroke:none;">
<circle cx="41.1962" cy="68.0400" r="0.7110" /> 
</g>
<g style="fill:#000000; fill-opacity:1.0000; stroke:none;">
<circle cx="38.6562" cy="68.0400" r="0.7110" /> 
</g>
<g style="fill:#000000; fill-opacity:1.0000; stroke:none;">
<circle cx="36.1162" cy="68.0400" r="0.7110" /> 
</g>
<g style="fill:#000000; fill-opacity:1.0000; stroke:none;">
<circle cx="33.5762" cy="68.0400" r="0.7110" /> 
</g>
<g style="fill:#000000; fill-opacity:1.0000; stroke:none;">
<circle cx="31.0362" cy="68.0400" r="0.7110" /> 
</g>
<g style="fill:#000000; fill-opacity:1.0000; stroke:none;">
<circle cx="28.4962" cy="68.0400" r="0.7110" /> 
<path style="fill:#000000; fill-opacity:1.0000; stroke:none;fill-rule:evenodd;"
d="M 11.2462,28.1000
11.1505,28.1190
11.0694,28.1732
11.0152,28.2543
10.9962,28.3500
10.9962,29.1750
11.0152,29.2707
11.0694,29.3518
11.1505,29.4060
11.2462,29.4250
12.5462,29.4250
12.6418,29.4060
12.7230,29.3518
12.7771,29.2707
12.7962,29.1750
12.7962,28.3500
12.7771,28.2543
12.7230,28.1732
12.6418,28.1190
12.5462,28.1000
Z" /> 
<path style="fill:#000000; fill-opacity:1.0000; stroke:none;fill-rule:evenodd;"
d="M 11.2462,31.2250
11.1505,31.2440
11.0694,31.2982
11.0152,31.3793
10.9962,31.4750
10.9962,32.3000
11.0152,32.3957
11.0694,32.4768
11.1505,32.5310
11.2462,32.5500
12.5462,32.5500
12.6418,32.5310
12.7230,32.4768
12.7771,32.3957
12.7962,32.3000
12.7962,31.4750
12.7771,31.3793
12.7230,31.2982
12.6418,31.2440
12.5462,31.2250
Z" /> 
<path style="fill:#000000; fill-opacity:1.0000; stroke:none;fill-rule:evenodd;"
d="M 4.5462,57.0500
4.6418,57.0310
4.7230,56.9768
4.7771,56.8957
4.7962,56.8000
4.7962,55.9750
4.7771,55.8793
4.7230,55.7982
4.6418,55.7440
4.5462,55.7250
3.2462,55.7250
3.1505,55.7440
3.0694,55.7982
3.0152,55.8793
2.9962,55.9750
2.9962,56.8000
3.0152,56.8957
3.0694,56.9768
3.1505,57.0310
3.2462,57.0500
Z" /> 
<path style="fill:#000000; fill-opacity:1.0000; stroke:none;fill-rule:evenodd;"
d="M 4.5462,53.9250
4.6418,53.9060
4.7230,53.8518
4.7771,53.7707
4.7962,53.6750
4.7962,52.8500
4.7771,52.7543
4.7230,52.6732
4.6418,52.6190
4.5462,52.6000
3.2462,52.6000
3.1505,52.6190
3.0694,52.6732
3.0152,52.7543
2.9962,52.8500
2.9962,53.6750
3.0152,53.7707
3.0694,53.8518
3.1505,53.9060
3.2462,53.9250
Z" /> 
</g>
<g style="fill:#000000; fill-opacity:1.0000; stroke:none;">
<circle cx="40.0413" cy="34.7625" r="0.9017" /> 
</g>
<g style="fill:#000000; fill-opacity:1.0000; stroke:none;">
<circle cx="35.0413" cy="34.7625" r="0.9017" /> 
<path style="fill:#000000; fill-opacity:1.0000; stroke:none;fill-rule:evenodd;"
d="M 14.2337,59.6625
14.2527,59.7582
14.3069,59.8393
14.3880,59.8935
14.4837,59.9125
15.3087,59.9125
15.4043,59.8935
15.4855,59.8393
15.5396,59.7582
15.5587,59.6625
15.5587,58.3625
15.5396,58.2668
15.4855,58.1857
15.4043,58.1315
15.3087,58.1125
14.4837,58.1125
14.3880,58.1315
14.3069,58.1857
14.2527,58.2668
14.2337,58.3625
Z" /> 
<path style="fill:#000000; fill-opacity:1.0000; stroke:none;fill-rule:evenodd;"
d="M 17.3587,59.6625
17.3777,59.7582
17.4319,59.8393
17.5130,59.8935
17.6087,59.9125
18.4337,59.9125
18.5293,59.8935
18.6105,59.8393
18.6646,59.7582
18.6837,59.6625
18.6837,58.3625
18.6646,58.2668
18.6105,58.1857
18.5293,58.1315
18.4337,58.1125
17.6087,58.1125
17.5130,58.1315
17.4319,58.1857
17.3777,58.2668
17.3587,58.3625
Z" /> 
</g>
<g style="fill:#000000; fill-opacity:1.0000; stroke:none;">
<circle cx="3.3962" cy="5.7625" r="0.7493" /> 
</g>
<g style="fill:#000000; fill-opacity:1.0000; stroke:none;">
<circle cx="7.8962" cy="5.7625" r="0.7493" /> 
</g>
<g style="fill:#000000; fill-opacity:1.0000; stroke:none;">
<circle cx="2.1412" cy="8.2528" r="0.9017" /> 
</g>
<g style="fill:#000000; fill-opacity:1.0000; stroke:none;">
<circle cx="9.1512" cy="8.2528" r="0.9017" /> 
<path style="fill:#000000; fill-opacity:1.0000; stroke:none;fill-rule:evenodd;"
d="M 14.2462,64.3875
14.2652,64.4832
14.3194,64.5643
14.4005,64.6185
14.4962,64.6375
15.2962,64.6375
15.3918,64.6185
15.4730,64.5643
15.5271,64.4832
15.5462,64.3875
15.5462,63.1375
15.5271,63.0418
15.4730,62.9607
15.3918,62.9065
15.2962,62.8875
14.4962,62.8875
14.4005,62.9065
14.3194,62.9607
14.2652,63.0418
14.2462,63.1375
Z" /> 
<path style="fill:#000000; fill-opacity:1.0000; stroke:none;fill-rule:evenodd;"
d="M 17.3462,64.3875
17.3652,64.4832
17.4194,64.5643
17.5005,64.6185
17.5962,64.6375
18.3962,64.6375
18.4918,64.6185
18.5730,64.5643
18.6271,64.4832
18.6462,64.3875
18.6462,63.1375
18.6271,63.0418
18.5730,62.9607
18.4918,62.9065
18.3962,62.8875
17.5962,62.8875
17.5005,62.9065
17.4194,62.9607
17.3652,63.0418
17.3462,63.1375
Z" /> 
<path style="fill:#000000; fill-opacity:1.0000; stroke:none;fill-rule:evenodd;"
d="M 10.7712,15.7125
10.8668,15.6935
10.9480,15.6393
11.0021,15.5582
11.0212,15.4625
11.0212,14.6625
11.0021,14.5668
10.9480,14.4857
10.8668,14.4315
10.7712,14.4125
9.5212,14.4125
9.4255,14.4315
9.3444,14.4857
9.2902,14.5668
9.2712,14.6625
9.2712,15.4625
9.2902,15.5582
9.3444,15.6393
9.4255,15.6935
9.5212,15.7125
Z" /> 
<path style="fill:#000000; fill-opacity:1.0000; stroke:none;fill-rule:evenodd;"
d="M 10.7712,12.6125
10.8668,12.5935
10.9480,12.5393
11.0021,12.4582
11.0212,12.3625
11.0212,11.5625
11.0021,11.4668
10.9480,11.3857
10.8668,11.3315
10.7712,11.3125
9.5212,11.3125
9.4255,11.3315
9.3444,11.3857
9.2902,11.4668
9.2712,11.5625
9.2712,12.3625
9.2902,12.4582
9.3444,12.5393
9.4255,12.5935
9.5212,12.6125
Z" /> 
</g>
<g style="fill:#000000; fill-opacity:1.0000; stroke:none;">
<circle cx="52.8802" cy="27.3492" r="0.7110" /> 
</g>
<g style="fill:#000000; fill-opacity:1.0000; stroke:none;">
<circle cx="52.8802" cy="29.8892" r="0.7110" /> 
</g>
<g style="fill:#000000; fill-opacity:1.0000; stroke:none;">
<circle cx="55.4202" cy="27.3492" r="0.7110" /> 
</g>
<g style="fill:#000000; fill-opacity:1.0000; stroke:none;">
<circle cx="55.4202" cy="29.8892" r="0.7110" /> 
</g>
<g style="fill:#000000; fill-opacity:1.0000; stroke:none;">
<circle cx="57.9602" cy="27.3492" r="0.7110" /> 
</g>
<g style="fill:#000000; fill-opacity:1.0000; stroke:none;">
<circle cx="57.9602" cy="29.8892" r="0.7110" /> 
</g>
<g style="fill:#000000; fill-opacity:1.0000; stroke:none;">
<circle cx="64.1462" cy="13.2625" r="0.8000" /> 
</g>
<g style="fill:#000000; fill-opacity:1.0000; stroke:none;">
<circle cx="33.1462" cy="8.2625" r="0.8000" /> 
</g>
<g style="fill:#000000; fill-opacity:1.0000; stroke:none;">
<circle cx="47.8962" cy="23.5125" r="0.8000" /> 
</g>
<g style="fill:#000000; fill-opacity:1.0000; stroke:none;">
<circle cx="16.6462" cy="55.7625" r="0.8000" /> 
</g>
<g style="fill:#000000; fill-opacity:1.0000; stroke:none;">
<circle cx="32.3962" cy="58.0125" r="0.8000" /> 
</g>
<g style="fill:#000000; fill-opacity:1.0000; stroke:none;">
<circle cx="9.1462" cy="26.0125" r="0.8000" /> 
</g>
<g style="fill:#000000; fill-opacity:1.0000; stroke:none;">
<circle cx="60.8962" cy="58.7000" r="0.8000" /> 
</g>
<g style="fill:#000000; fill-opacity:1.0000; stroke:none;">
<circle cx="12.8962" cy="9.7625" r="0.8000" /> 
</g>
<g style="fill:none; 
stroke:#000000; stroke-width:1.0000; stroke-opacity:1; 
stroke-linecap:round; stroke-linejoin:round;">
<path d="M32.2962 64.6875
L32.2962 66.7600
" />
<path d="M32.2962 66.7600
L33.5762 68.0400
" />
</g>
<g style="fill:none; 
stroke:#000000; stroke-width:1.9000; stroke-opacity:1; 
stroke-linecap:round; stroke-linejoin:round;">
<path d="M41.8962 3.2625
L24.8962 3.2625
" />
<path d="M24.8962 3.2625
L5.8962 3.2625
" />
</g>
<g style="fill:none; 
stroke:#000000; stroke-width:0.4000; stroke-opacity:1; 
stroke-linecap:round; stroke-linejoin:round;">
<path d="M24.8962 5.7625
L24.8962 3.2625
" />
</g>
<g style="fill:none; 
stroke:#000000; stroke-width:1.0000; stroke-opacity:1; 
stroke-linecap:round; stroke-linejoin:round;">
<path d="M62.4587 58.2000
L61.9587 58.7000
" />
<path d="M61.9587 58.7000
L60.8962 58.7000
" />
</g>
<g style="fill:none; 
stroke:#000000; stroke-width:1.9000; stroke-opacity:1; 
stroke-linecap:round; stroke-linejoin:round;">
<path d="M64.1462 13.2625
L64.8962 12.5125
" />
<path d="M64.8962 12.5125
L64.8962 11.7625
" />
</g>
<g style="fill:none; 
stroke:#000000; stroke-width:1.5000; stroke-opacity:1; 
stroke-linecap:round; stroke-linejoin:round;">
<path d="M63.8962 10.7875
L63.8962 11.7375
" />
</g>
<g style="fill:none; 
stroke:#000000; stroke-width:1.0000; stroke-opacity:1; 
stroke-linecap:round; stroke-linejoin:round;">
<path d="M62.4587 58.2000
L63.8962 58.2000
" />
</g>
<g style="fill:none; 
stroke:#000000; stroke-width:0.4000; stroke-opacity:1; 
stroke-linecap:round; stroke-linejoin:round;">
<path d="M33.1559 8.2528
L33.1462 8.2625
" />
</g>
<g style="fill:none; 
stroke:#000000; stroke-width:1.5000; stroke-opacity:1; 
stroke-linecap:round; stroke-linejoin:round;">
<path d="M33.1462 8.2625
L30.6462 10.7625
" />
<path d="M10.4109 9.5125
L9.1512 8.2528
" />
</g>
<g style="fill:none; 
stroke:#000000; stroke-width:1.9000; stroke-opacity:1; 
stroke-linecap:round; stroke-linejoin:round;">
<path d="M64.0962 23.5125
L64.1462 23.5625
" />
</g>
<g style="fill:none; 
stroke:#000000; stroke-width:1.0000; stroke-opacity:1; 
stroke-linecap:round; stroke-linejoin:round;">
<path d="M16.6462 55.7625
L18.0212 57.1375
" />
</g>
<g style="fill:none; 
stroke:#000000; stroke-width:1.9000; stroke-opacity:1; 
stroke-linecap:round; stroke-linejoin:round;">
<path d="M47.8962 23.5125
L64.0962 23.5125
" />
</g>
<g style="fill:none; 
stroke:#000000; stroke-width:1.0000; stroke-opacity:1; 
stroke-linecap:round; stroke-linejoin:round;">
<path d="M18.0212 57.1375
L18.0212 59.0125
" />
</g>
<g style="fill:none; 
stroke:#000000; stroke-width:1.5000; stroke-opacity:1; 
stroke-linecap:round; stroke-linejoin:round;">
<path d="M12.8962 9.7625
L10.8962 11.7625
" />
</g>
<g style="fill:none; 
stroke:#000000; stroke-width:1.9000; stroke-opacity:1; 
stroke-linecap:round; stroke-linejoin:round;">
<path d="M65.6862 27.3025
L65.6862 31.7625
" />
</g>
<g style="fill:none; 
stroke:#000000; stroke-width:1.5000; stroke-opacity:1; 
stroke-linecap:round; stroke-linejoin:round;">
<path d="M12.9462 9.5125
L12.8962 9.5125
" />
</g>
<g style="fill:none; 
stroke:#000000; stroke-width:0.4000; stroke-opacity:1; 
stroke-linecap:round; stroke-linejoin:round;">
<path d="M3.8962 53.2625
L3.8962 49.3530
" />
</g>
<g style="fill:none; 
stroke:#000000; stroke-width:1.9000; stroke-opacity:1; 
stroke-linecap:round; stroke-linejoin:round;">
<path d="M37.9087 26.2500
L35.0413 29.1174
" />
<path d="M64.1462 13.2625
L64.1462 23.5625
" />
</g>
<g style="fill:none; 
stroke:#000000; stroke-width:1.5000; stroke-opacity:1; 
stroke-linecap:round; stroke-linejoin:round;">
<path d="M22.5162 29.2625
L22.5162 30.3825
" />
<path d="M12.6462 9.5125
L12.9462 9.5125
" />
</g>
<g style="fill:none; 
stroke:#000000; stroke-width:0.4000; stroke-opacity:1; 
stroke-linecap:round; stroke-linejoin:round;">
<path d="M3.8962 49.3530
L8.0542 45.1950
" />
</g>
<g style="fill:none; 
stroke:#000000; stroke-width:1.5000; stroke-opacity:1; 
stroke-linecap:round; stroke-linejoin:round;">
<path d="M12.6462 9.5125
L10.4109 9.5125
" />
<path d="M32.4262 55.0200
L32.4262 57.9825
" />
<path d="M32.4262 57.9825
L32.3962 58.0125
" />
<path d="M30.0087 58.0125
L28.8587 59.1625
" />
</g>
<g style="fill:none; 
stroke:#000000; stroke-width:1.9000; stroke-opacity:1; 
stroke-linecap:round; stroke-linejoin:round;">
<path d="M35.0413 32.0125
L35.0413 34.7625
" />
</g>
<g style="fill:none; 
stroke:#000000; stroke-width:1.5000; stroke-opacity:1; 
stroke-linecap:round; stroke-linejoin:round;">
<path d="M12.8962 9.7625
L12.6462 9.7625
" />
<path d="M65.8962 10.5625
L65.8962 11.5125
" />
</g>
<g style="fill:none; 
stroke:#000000; stroke-width:1.9000; stroke-opacity:1; 
stroke-linecap:round; stroke-linejoin:round;">
<path d="M64.1462 23.5625
L64.1462 25.7625
" />
<path d="M45.1587 26.2500
L37.9087 26.2500
" />
</g>
<g style="fill:none; 
stroke:#000000; stroke-width:1.0000; stroke-opacity:1; 
stroke-linecap:round; stroke-linejoin:round;">
<path d="M16.6462 55.7625
L18.7212 53.6875
" />
</g>
<g style="fill:none; 
stroke:#000000; stroke-width:1.5000; stroke-opacity:1; 
stroke-linecap:round; stroke-linejoin:round;">
<path d="M12.8962 9.7625
L14.8962 11.7625
" />
</g>
<g style="fill:none; 
stroke:#000000; stroke-width:1.9000; stroke-opacity:1; 
stroke-linecap:round; stroke-linejoin:round;">
<path d="M35.0413 29.1174
L35.0413 32.0125
" />
</g>
<g style="fill:none; 
stroke:#000000; stroke-width:1.0000; stroke-opacity:1; 
stroke-linecap:round; stroke-linejoin:round;">
<path d="M62.3962 60.2000
L60.8962 58.7000
" />
</g>
<g style="fill:none; 
stroke:#000000; stroke-width:1.5000; stroke-opacity:1; 
stroke-linecap:round; stroke-linejoin:round;">
<path d="M33.1462 8.2625
L34.3962 8.2625
" />
<path d="M19.1412 8.2528
L17.8815 9.5125
" />
<path d="M22.5162 30.3825
L24.1462 32.0125
" />
</g>
<g style="fill:none; 
stroke:#000000; stroke-width:0.4000; stroke-opacity:1; 
stroke-linecap:round; stroke-linejoin:round;">
<path d="M36.1315 8.2625
L36.1412 8.2528
" />
</g>
<g style="fill:none; 
stroke:#000000; stroke-width:1.5000; stroke-opacity:1; 
stroke-linecap:round; stroke-linejoin:round;">
<path d="M12.8962 9.5125
L12.8962 9.7625
" />
<path d="M34.3962 8.2625
L36.1315 8.2625
" />
</g>
<g style="fill:none; 
stroke:#000000; stroke-width:0.4000; stroke-opacity:1; 
stroke-linecap:round; stroke-linejoin:round;">
<path d="M33.1462 8.6125
L33.1462 8.2625
" />
</g>
<g style="fill:none; 
stroke:#000000; stroke-width:1.9000; stroke-opacity:1; 
stroke-linecap:round; stroke-linejoin:round;">
<path d="M64.1462 25.7625
L65.6862 27.3025
" />
<path d="M47.8962 23.5125
L45.1587 26.2500
" />
<path d="M45.1587 26.2500
L45.1587 29.2500
" />
</g>
<g style="fill:#000000; fill-opacity:1.0000; stroke:none;">
<circle cx="12.8962" cy="9.5125" r="0.7500" /> 
</g>
<g style="fill:none; 
stroke:#000000; stroke-width:1.0000; stroke-opacity:1; 
stroke-linecap:round; stroke-linejoin:round;">
<path d="M18.7212 53.6875
L18.7212 52.5125
" />
</g>
<g style="fill:none; 
stroke:#000000; stroke-width:1.5000; stroke-opacity:1; 
stroke-linecap:round; stroke-linejoin:round;">
<path d="M17.8815 9.5125
L12.6462 9.5125
" />
</g>
<g style="fill:none; 
stroke:#000000; stroke-width:1.9000; stroke-opacity:1; 
stroke-linecap:round; stroke-linejoin:round;">
<path d="M47.8002 19.7800
L47.8002 23.4165
" />
</g>
<g style="fill:none; 
stroke:#000000; stroke-width:1.5000; stroke-opacity:1; 
stroke-linecap:round; stroke-linejoin:round;">
<path d="M24.1462 32.0125
L35.0413 32.0125
" />
</g>
<g style="fill:none; 
stroke:#000000; stroke-width:1.9000; stroke-opacity:1; 
stroke-linecap:round; stroke-linejoin:round;">
<path d="M45.1587 29.2500
L45.1462 29.2625
" />
</g>
<g style="fill:none; 
stroke:#000000; stroke-width:1.5000; stroke-opacity:1; 
stroke-linecap:round; stroke-linejoin:round;">
<path d="M11.8962 28.7625
L9.1462 26.0125
" />
</g>
<g style="fill:none; 
stroke:#000000; stroke-width:1.0000; stroke-opacity:1; 
stroke-linecap:round; stroke-linejoin:round;">
<path d="M63.8962 60.2000
L62.3962 60.2000
" />
</g>
<g style="fill:none; 
stroke:#000000; stroke-width:1.5000; stroke-opacity:1; 
stroke-linecap:round; stroke-linejoin:round;">
<path d="M32.3962 58.0125
L30.0087 58.0125
" />
</g>
<g style="fill:none; 
stroke:#000000; stroke-width:1.9000; stroke-opacity:1; 
stroke-linecap:round; stroke-linejoin:round;">
<path d="M49.8962 7.5125
L45.6462 3.2625
" />
</g>
<g style="fill:none; 
stroke:#000000; stroke-width:1.0000; stroke-opacity:1; 
stroke-linecap:round; stroke-linejoin:round;">
<path d="M52.1462 62.5500
L41.3087 62.5500
" />
</g>
<g style="fill:none; 
stroke:#000000; stroke-width:1.5000; stroke-opacity:1; 
stroke-linecap:round; stroke-linejoin:round;">
<path d="M11.8962 33.0125
L8.1462 29.2625
" />
</g>
<g style="fill:none; 
stroke:#000000; stroke-width:1.9000; stroke-opacity:1; 
stroke-linecap:round; stroke-linejoin:round;">
<path d="M3.6462 30.2625
L3.6462 38.7000
" />
<path d="M45.6462 3.2625
L41.8962 3.2625
" />
</g>
<g style="fill:none; 
stroke:#000000; stroke-width:1.0000; stroke-opacity:1; 
stroke-linecap:round; stroke-linejoin:round;">
<path d="M69.1462 39.6625
L64.6462 39.6625
" />
</g>
<g style="fill:none; 
stroke:#000000; stroke-width:1.9000; stroke-opacity:1; 
stroke-linecap:round; stroke-linejoin:round;">
<path d="M3.6462 38.7000
L5.0612 40.1150
" />
<path d="M68.1462 8.0125
L67.6462 7.5125
" />
<path d="M67.6462 7.5125
L49.8962 7.5125
" />
</g>
<g style="fill:none; 
stroke:#000000; stroke-width:1.0000; stroke-opacity:1; 
stroke-linecap:round; stroke-linejoin:round;">
<path d="M69.1462 39.6625
L69.1462 32.2625
" />
</g>
<g style="fill:none; 
stroke:#000000; stroke-width:1.5000; stroke-opacity:1; 
stroke-linecap:round; stroke-linejoin:round;">
<path d="M8.1462 29.2625
L4.6462 29.2625
" />
</g>
<g style="fill:none; 
stroke:#000000; stroke-width:1.9000; stroke-opacity:1; 
stroke-linecap:round; stroke-linejoin:round;">
<path d="M4.6462 4.5125
L4.6462 29.2625
" />
</g>
<g style="fill:none; 
stroke:#000000; stroke-width:1.5000; stroke-opacity:1; 
stroke-linecap:round; stroke-linejoin:round;">
<path d="M19.8962 33.0125
L11.8962 33.0125
" />
</g>
<g style="fill:none; 
stroke:#000000; stroke-width:1.9000; stroke-opacity:1; 
stroke-linecap:round; stroke-linejoin:round;">
<path d="M68.1462 10.7625
L68.1462 8.0125
" />
</g>
<g style="fill:none; 
stroke:#000000; stroke-width:2.8000; stroke-opacity:1; 
stroke-linecap:round; stroke-linejoin:round;">
<path d="M68.6462 11.0125
L68.6462 31.7625
" />
</g>
<g style="fill:none; 
stroke:#000000; stroke-width:1.5000; stroke-opacity:1; 
stroke-linecap:round; stroke-linejoin:round;">
<path d="M22.5162 35.6325
L19.8962 33.0125
" />
</g>
<g style="fill:none; 
stroke:#000000; stroke-width:1.9000; stroke-opacity:1; 
stroke-linecap:round; stroke-linejoin:round;">
<path d="M5.8962 3.2625
L4.8962 4.2625
" />
<path d="M5.0612 40.1150
L8.0542 40.1150
" />
</g>
<g style="fill:none; 
stroke:#000000; stroke-width:1.0000; stroke-opacity:1; 
stroke-linecap:round; stroke-linejoin:round;">
<path d="M69.1462 32.2625
L68.6462 31.7625
" />
<path d="M36.1162 67.7425
L36.1162 68.0400
" />
</g>
<g style="fill:none; 
stroke:#000000; stroke-width:1.5000; stroke-opacity:1; 
stroke-linecap:round; stroke-linejoin:round;">
<path d="M22.5162 36.8825
L22.5162 35.6325
" />
</g>
<g style="fill:none; 
stroke:#000000; stroke-width:1.0000; stroke-opacity:1; 
stroke-linecap:round; stroke-linejoin:round;">
<path d="M41.3087 62.5500
L36.1162 67.7425
" />
</g>
<g style="fill:none; 
stroke:#000000; stroke-width:1.9000; stroke-opacity:1; 
stroke-linecap:round; stroke-linejoin:round;">
<path d="M4.6462 29.2625
L3.6462 30.2625
" />
</g>
<g style="fill:none; 
stroke:#000000; stroke-width:0.4000; stroke-opacity:1; 
stroke-linecap:round; stroke-linejoin:round;">
<path d="M41.8962 5.7625
L41.8962 3.2625
" />
<path d="M28.8962 49.2000
L25.6462 49.2000
" />
<path d="M24.6937 47.5125
L24.8062 47.4000
" />
<path d="M24.8162 48.3700
L24.8162 47.3800
" />
<path d="M29.8962 48.2000
L28.8962 49.2000
" />
<path d="M18.7587 47.4000
L18.6462 47.5125
" />
<path d="M18.6462 47.5125
L24.6937 47.5125
" />
<path d="M25.6462 49.2000
L24.8162 48.3700
" />
<path d="M29.8962 47.3800
L29.8962 48.2000
" />
<path d="M34.9762 50.6200
L33.8962 51.7000
" />
<path d="M20.3962 56.2000
L20.3962 61.3625
" />
<path d="M33.8962 51.7000
L26.6462 51.7000
" />
<path d="M34.9762 46.3700
L34.9762 50.6200
" />
<path d="M35.8962 45.4500
L34.9762 46.3700
" />
<path d="M39.1462 45.4500
L35.8962 45.4500
" />
<path d="M40.0562 47.3800
L40.0562 46.3600
" />
<path d="M25.1462 53.2000
L23.3962 53.2000
" />
<path d="M40.0562 46.3600
L39.1462 45.4500
" />
<path d="M23.3962 53.2000
L20.3962 56.2000
" />
<path d="M26.6462 51.7000
L25.1462 53.2000
" />
<path d="M20.3962 61.3625
L17.9962 63.7625
" />
<path d="M34.9762 56.0300
L34.9762 55.0000
" />
<path d="M37.6462 56.9500
L37.0962 56.9500
" />
<path d="M39.1462 56.9500
L37.6462 56.9500
" />
<path d="M37.0962 56.9500
L35.8962 56.9500
" />
<path d="M40.0562 55.0000
L40.0562 56.0400
" />
<path d="M35.8962 56.9500
L34.9762 56.0300
" />
<path d="M40.0562 56.0400
L39.1462 56.9500
" />
<path d="M37.0962 59.4125
L37.0962 56.9500
" />
<path d="M28.8962 56.9500
L25.8962 56.9500
" />
<path d="M29.8962 55.0000
L29.8962 55.9500
" />
<path d="M22.6962 58.2400
L24.8162 56.1200
" />
<path d="M24.8162 56.1200
L24.8162 55.0000
" />
<path d="M29.8962 55.9500
L28.8962 56.9500
" />
<path d="M25.6462 56.9500
L24.8162 56.1200
" />
<path d="M22.6962 61.5625
L22.6962 58.2400
" />
<path d="M25.8962 56.9500
L25.6462 56.9500
" />
<path d="M25.0562 38.9225
L25.0562 36.8825
" />
<path d="M30.1362 35.4625
L28.8062 34.1325
" />
<path d="M25.0562 35.3825
L25.0562 36.8825
" />
<path d="M26.3062 34.1325
L25.0562 35.3825
" />
<path d="M28.8062 34.1325
L26.3062 34.1325
" />
<path d="M14.0837 44.7625
L25.3962 44.7625
" />
<path d="M8.8962 51.2625
L12.8962 47.2625
" />
<path d="M26.6462 40.5125
L25.0562 38.9225
" />
<path d="M26.6462 43.5125
L26.6462 40.5125
" />
<path d="M25.3962 44.7625
L26.6462 43.5125
" />
<path d="M8.8962 53.2625
L8.8962 51.2625
" />
<path d="M12.8962 45.9500
L14.0837 44.7625
" />
<path d="M30.1362 36.8825
L30.1362 35.4625
" />
<path d="M12.8962 47.2625
L12.8962 45.9500
" />
<path d="M20.8762 19.7800
L20.8762 13.7825
" />
<path d="M37.3962 5.7625
L32.3962 5.7625
" />
<path d="M31.3962 6.7625
L29.6462 6.7625
" />
<path d="M29.6462 8.2625
L29.6462 6.7625
" />
<path d="M32.3962 5.7625
L31.3962 6.7625
" />
<path d="M27.3962 10.5125
L29.6462 8.2625
" />
<path d="M27.3962 11.2625
L27.3962 10.5125
" />
<path d="M20.8762 13.7825
L23.3962 11.2625
" />
<path d="M23.3962 11.2625
L27.3962 11.2625
" />
<path d="M12.8462 17.7625
L10.1462 15.0625
" />
<path d="M15.7962 18.6625
L14.8962 17.7625
" />
<path d="M10.7087 6.8250
L11.8962 6.8250
" />
<path d="M9.1962 15.0625
L7.1462 13.0125
" />
<path d="M9.6462 5.7625
L10.7087 6.8250
" />
<path d="M7.8962 5.7625
L9.6462 5.7625
" />
<path d="M15.7962 19.7800
L15.7962 18.6625
" />
<path d="M14.8962 17.7625
L12.8462 17.7625
" />
<path d="M10.1462 15.0625
L9.1962 15.0625
" />
<path d="M7.1462 6.5125
L7.8962 5.7625
" />
<path d="M7.1462 13.0125
L7.1462 6.5125
" />
<path d="M18.3362 17.0525
L18.3362 19.7800
" />
<path d="M16.3462 15.0625
L15.3962 15.0625
" />
<path d="M18.6462 5.7625
L17.5837 6.8250
" />
<path d="M20.3962 5.7625
L18.6462 5.7625
" />
<path d="M20.3962 5.7625
L21.3962 6.7625
" />
<path d="M17.5837 6.8250
L16.3962 6.8250
" />
<path d="M16.3462 15.0625
L18.3362 17.0525
" />
<path d="M21.3962 10.0125
L16.3462 15.0625
" />
<path d="M21.3962 6.7625
L21.3962 10.0125
" />
<path d="M64.6462 54.2000
L66.1462 55.7000
" />
<path d="M27.3562 55.0000
L27.3562 53.7400
" />
<path d="M35.8962 52.9500
L37.6462 51.2000
" />
<path d="M28.1462 52.9500
L35.8962 52.9500
" />
<path d="M61.6462 54.2000
L63.8962 54.2000
" />
<path d="M46.8962 58.2000
L48.2712 56.8250
" />
<path d="M59.1462 51.7000
L61.6462 54.2000
" />
<path d="M53.3962 51.2000
L53.8962 51.7000
" />
<path d="M48.2712 56.8250
L55.2712 56.8250
" />
<path d="M62.8962 64.4500
L55.2712 56.8250
" />
<path d="M53.8962 51.7000
L59.1462 51.7000
" />
<path d="M65.3962 64.4500
L62.8962 64.4500
" />
<path d="M66.1462 55.7000
L66.1462 63.7000
" />
<path d="M46.8962 58.2000
L46.8962 59.4500
" />
<path d="M63.8962 54.2000
L64.6462 54.2000
" />
<path d="M27.3562 53.7400
L28.1462 52.9500
" />
<path d="M37.6462 51.2000
L53.3962 51.2000
" />
<path d="M66.1462 63.7000
L65.3962 64.4500
" />
<path d="M69.1462 42.7625
L67.5462 44.3625
" />
<path d="M27.3562 46.4900
L29.6462 44.2000
" />
<path d="M65.3962 50.2000
L63.8962 50.2000
" />
<path d="M27.3962 47.4200
L27.3562 47.3800
" />
<path d="M67.5462 48.0500
L65.3962 50.2000
" />
<path d="M62.8962 50.2000
L63.8962 50.2000
" />
<path d="M56.8962 44.2000
L62.8962 50.2000
" />
<path d="M29.6462 44.2000
L56.8962 44.2000
" />
<path d="M67.5462 44.3625
L67.5462 48.0500
" />
<path d="M27.3562 47.3800
L27.3562 46.4900
" />
<path d="M55.1462 62.9500
L55.1462 59.9500
" />
<path d="M55.1462 59.9500
L54.6462 59.4500
" />
<path d="M57.1462 49.2000
L55.6462 47.7000
" />
<path d="M41.8962 49.4500
L38.3962 49.4500
" />
<path d="M59.3962 49.2000
L57.1462 49.2000
" />
<path d="M67.6462 54.2000
L67.6462 65.7000
" />
<path d="M43.6462 47.7000
L41.8962 49.4500
" />
<path d="M38.3962 49.4500
L37.5162 48.5700
" />
<path d="M60.8962 64.4500
L56.6462 64.4500
" />
<path d="M63.8962 52.2000
L65.6462 52.2000
" />
<path d="M63.1462 66.7000
L60.8962 64.4500
" />
<path d="M37.5162 48.5700
L37.5162 47.3800
" />
<path d="M54.6462 59.4500
L52.3962 59.4500
" />
<path d="M66.6462 66.7000
L63.1462 66.7000
" />
<path d="M62.3962 52.2000
L59.3962 49.2000
" />
<path d="M55.6462 47.7000
L43.6462 47.7000
" />
<path d="M65.6462 52.2000
L67.6462 54.2000
" />
<path d="M67.6462 65.7000
L66.6462 66.7000
" />
<path d="M56.6462 64.4500
L55.1462 62.9500
" />
<path d="M63.8962 52.2000
L62.3962 52.2000
" />
<path d="M27.5962 36.8825
L27.5962 38.3425
" />
<path d="M61.6462 41.2625
L63.8962 43.5125
" />
<path d="M27.5962 38.3425
L29.2662 40.0125
" />
<path d="M38.8962 41.2625
L61.6462 41.2625
" />
<path d="M37.6462 40.0125
L38.8962 41.2625
" />
<path d="M29.2662 40.0125
L37.6462 40.0125
" />
<path d="M63.8962 43.5125
L64.6462 42.7625
" />
<path d="M63.8962 48.2000
L63.8962 43.5125
" />
<path d="M41.8962 59.4500
L41.8962 57.9500
" />
<path d="M37.5162 55.0000
L37.5162 54.0800
" />
<path d="M60.6462 56.2000
L63.8962 56.2000
" />
<path d="M41.8962 57.9500
L42.6462 57.2000
" />
<path d="M40.8962 52.9500
L42.6462 54.7000
" />
<path d="M42.6462 57.2000
L42.6462 54.7000
" />
<path d="M38.6462 52.9500
L40.8962 52.9500
" />
<path d="M59.1462 54.7000
L60.6462 56.2000
" />
<path d="M42.6462 54.7000
L59.1462 54.7000
" />
<path d="M37.5162 54.0800
L38.6462 52.9500
" />
<path d="M58.1462 15.5125
L41.9077 15.5125
" />
<path d="M59.8962 13.7625
L58.1462 15.5125
" />
<path d="M41.9077 15.5125
L37.6402 19.7800
" />
<path d="M59.8962 10.5625
L59.8962 13.7625
" />
<path d="M35.5962 10.5625
L31.8962 14.2625
" />
<path d="M53.8962 10.5625
L35.5962 10.5625
" />
<path d="M53.8962 10.5625
L53.8462 10.5125
" />
<path d="M23.4162 16.6800
L23.4162 19.7800
" />
<path d="M25.8337 14.2625
L23.4162 16.6800
" />
<path d="M31.8962 14.2625
L25.8337 14.2625
" />
<path d="M42.9477 17.0125
L59.6462 17.0125
" />
<path d="M40.1802 19.7800
L42.9477 17.0125
" />
<path d="M61.8962 14.7625
L61.8962 10.5625
" />
<path d="M59.6462 17.0125
L61.8962 14.7625
" />
<path d="M40.8677 14.0125
L35.1002 19.7800
" />
<path d="M57.8962 10.5625
L57.8962 12.5125
" />
<path d="M57.8962 12.5125
L56.3962 14.0125
" />
<path d="M56.3962 14.0125
L40.8677 14.0125
" />
<path d="M55.3962 12.2625
L54.8962 12.2625
" />
<path d="M33.3962 17.0125
L28.7237 17.0125
" />
<path d="M54.8962 12.2625
L38.6462 12.2625
" />
<path d="M55.8962 10.5625
L55.8962 11.7625
" />
<path d="M38.1462 12.2625
L33.3962 17.0125
" />
<path d="M38.6462 12.2625
L38.1462 12.2625
" />
<path d="M28.7237 17.0125
L25.9562 19.7800
" />
<path d="M55.8962 11.7625
L55.3962 12.2625
" />
<path d="M35.0462 62.5125
L34.0962 61.5625
" />
<path d="M37.0962 62.5125
L35.0462 62.5125
" />
<path d="M23.4162 68.0400
L29.8937 61.5625
" />
<path d="M29.8937 61.5625
L32.2962 61.5625
" />
<path d="M34.0962 61.5625
L32.2962 61.5625
" />
<path d="M22.6962 64.6625
L21.7962 64.6625
" />
<path d="M23.7962 64.6625
L25.7337 62.7250
" />
<path d="M25.7337 62.7250
L25.7337 59.1625
" />
<path d="M22.6962 64.6625
L23.7962 64.6625
" />
<path d="M21.7962 64.6625
L20.8762 65.5825
" />
<path d="M20.8762 65.5825
L20.8762 68.0400
" />
<path d="M15.3962 66.0125
L14.8962 65.5125
" />
<path d="M16.8962 66.0125
L15.3962 66.0125
" />
<path d="M18.3362 68.0400
L18.3362 67.4525
" />
<path d="M14.8962 63.7625
L14.8962 59.0125
" />
<path d="M14.8962 65.5125
L14.8962 63.7625
" />
<path d="M18.3362 67.4525
L16.8962 66.0125
" />
<path d="M13.7687 66.0125
L12.8962 66.0125
" />
<path d="M15.5962 47.5625
L15.5462 47.5125
" />
<path d="M15.7962 68.0400
L13.7687 66.0125
" />
<path d="M11.8962 56.2125
L15.5962 52.5125
" />
<path d="M11.8962 65.0125
L11.8962 56.2125
" />
<path d="M15.5962 52.5125
L15.5962 47.5625
" />
<path d="M12.8962 66.0125
L11.8962 65.0125
" />
<path d="M8.8962 56.3625
L3.9212 56.3625
" />
<path d="M13.2562 68.0400
L12.9237 68.0400
" />
<path d="M12.9237 68.0400
L11.3962 66.5125
" />
<path d="M11.3962 66.5125
L6.3962 66.5125
" />
<path d="M6.3962 66.5125
L3.8962 64.0125
" />
<path d="M3.8962 64.0125
L3.8962 56.3875
" />
<path d="M3.9212 56.3625
L3.8962 56.3875
" />
</g>
<g style="fill:none; 
stroke:#000000; stroke-width:2.8000; stroke-opacity:1; 
stroke-linecap:round; stroke-linejoin:round;">
<path d="M60.6962 33.7625
L62.6462 31.8125
" />
<path d="M62.6462 31.8125
L61.4962 30.6625
" />
<path d="M61.4962 30.6625
L61.4962 28.7625
" />
<path d="M40.0413 34.7625
L41.0413 33.7625
" />
<path d="M62.6462 31.8125
L62.6962 31.7625
" />
<path d="M41.0413 33.7625
L60.6962 33.7625
" />
</g>
<g style="fill:none; 
stroke:#000000; stroke-width:0.4000; stroke-opacity:1; 
stroke-linecap:round; stroke-linejoin:round;">
<path d="M14.8962 39.0125
L14.8962 36.8825
" />
<path d="M14.6462 39.2625
L14.8962 39.0125
" />
<path d="M14.6462 41.5125
L14.6462 39.2625
" />
<path d="M19.7262 39.1825
L19.7262 41.5125
" />
<path d="M19.9762 38.9325
L19.7262 39.1825
" />
<path d="M19.9762 36.8825
L19.9762 38.9325
" />
<path d="M17.1862 41.5125
L17.1862 39.2225
" />
<path d="M17.4362 38.9725
L17.4362 36.8825
" />
<path d="M17.1862 39.2225
L17.4362 38.9725
" />
<path d="M14.8962 29.2625
L14.8962 27.7625
" />
<path d="M14.8962 27.7625
L13.8712 26.7375
" />
<path d="M13.8712 26.7375
L13.8712 24.7625
" />
<path d="M19.9762 27.8425
L18.9512 26.8175
" />
<path d="M19.9762 29.2625
L19.9762 27.8425
" />
<path d="M18.9512 26.8175
L18.9512 24.7625
" />
<path d="M17.4362 29.2625
L17.4362 27.8025
" />
<path d="M16.4112 26.7775
L16.4112 24.7625
" />
<path d="M17.4362 27.8025
L16.4112 26.7775
" />
<path d="M30.9762 26.9325
L30.9762 24.7625
" />
<path d="M30.1362 27.7725
L30.9762 26.9325
" />
<path d="M30.1362 29.2625
L30.1362 27.7725
" />
<path d="M25.8962 27.0125
L25.8962 24.7625
" />
<path d="M25.0562 27.8525
L25.8962 27.0125
" />
<path d="M25.0562 29.2625
L25.0562 27.8525
" />
<path d="M27.5962 29.2625
L27.5962 27.8125
" />
<path d="M27.5962 27.8125
L28.4362 26.9725
" />
<path d="M28.4362 26.9725
L28.4362 24.7625
" />
</g>
<g style="fill:#FFFFFF; fill-opacity:1.0000; stroke:none;">
<circle cx="64.1462" cy="13.2625" r="0.4000" /> 
</g>
<g style="fill:#FFFFFF; fill-opacity:1.0000; stroke:none;">
<circle cx="33.1462" cy="8.2625" r="0.4000" /> 
</g>
<g style="fill:#FFFFFF; fill-opacity:1.0000; stroke:none;">
<circle cx="47.8962" cy="23.5125" r="0.4000" /> 
</g>
<g style="fill:#FFFFFF; fill-opacity:1.0000; stroke:none;">
<circle cx="16.6462" cy="55.7625" r="0.4000" /> 
</g>
<g style="fill:#FFFFFF; fill-opacity:1.0000; stroke:none;">
<circle cx="32.3962" cy="58.0125" r="0.4000" /> 
</g>
<g style="fill:#FFFFFF; fill-opacity:1.0000; stroke:none;">
<circle cx="9.1462" cy="26.0125" r="0.4000" /> 
</g>
<g style="fill:#FFFFFF; fill-opacity:1.0000; stroke:none;">
<circle cx="60.8962" cy="58.7000" r="0.4000" /> 
</g>
<g style="fill:#FFFFFF; fill-opacity:1.0000; stroke:none;">
<circle cx="12.8962" cy="9.7625" r="0.4000" /> 
</g>
<g style="fill:#FFFFFF; fill-opacity:1.0000; stroke:none;">
<circle cx="19.7262" cy="41.5125" r="0.5000" /> 
</g>
<g style="fill:#FFFFFF; fill-opacity:1.0000; stroke:none;">
<circle cx="17.1862" cy="41.5125" r="0.5000" /> 
</g>
<g style="fill:#FFFFFF; fill-opacity:1.0000; stroke:none;">
<circle cx="14.6462" cy="41.5125" r="0.5000" /> 
</g>
<g style="fill:#FFFFFF; fill-opacity:1.0000; stroke:none;">
<circle cx="20.3962" cy="5.7625" r="0.4953" /> 
</g>
<g style="fill:#FFFFFF; fill-opacity:1.0000; stroke:none;">
<circle cx="24.8962" cy="5.7625" r="0.4953" /> 
</g>
<g style="fill:#FFFFFF; fill-opacity:1.0000; stroke:none;">
<circle cx="19.1412" cy="8.2528" r="0.6477" /> 
</g>
<g style="fill:#FFFFFF; fill-opacity:1.0000; stroke:none;">
<circle cx="26.1512" cy="8.2528" r="0.6477" /> 
</g>
<g style="fill:#FFFFFF; fill-opacity:1.0000; stroke:none;">
<circle cx="56.4212" cy="68.0400" r="0.4250" /> 
</g>
<g style="fill:#FFFFFF; fill-opacity:1.0000; stroke:none;">
<circle cx="53.8812" cy="68.0400" r="0.4250" /> 
</g>
<g style="fill:#FFFFFF; fill-opacity:1.0000; stroke:none;">
<circle cx="51.3412" cy="68.0400" r="0.4250" /> 
</g>
<g style="fill:#FFFFFF; fill-opacity:1.0000; stroke:none;">
<circle cx="24.8062" cy="47.4000" r="0.4000" /> 
</g>
<g style="fill:#FFFFFF; fill-opacity:1.0000; stroke:none;">
<circle cx="27.3462" cy="47.4000" r="0.4000" /> 
</g>
<g style="fill:#FFFFFF; fill-opacity:1.0000; stroke:none;">
<circle cx="29.8862" cy="47.4000" r="0.4000" /> 
</g>
<g style="fill:#FFFFFF; fill-opacity:1.0000; stroke:none;">
<circle cx="32.4262" cy="47.4000" r="0.4000" /> 
</g>
<g style="fill:#FFFFFF; fill-opacity:1.0000; stroke:none;">
<circle cx="34.9662" cy="47.4000" r="0.4000" /> 
</g>
<g style="fill:#FFFFFF; fill-opacity:1.0000; stroke:none;">
<circle cx="37.5062" cy="47.4000" r="0.4000" /> 
</g>
<g style="fill:#FFFFFF; fill-opacity:1.0000; stroke:none;">
<circle cx="40.0462" cy="47.4000" r="0.4000" /> 
</g>
<g style="fill:#FFFFFF; fill-opacity:1.0000; stroke:none;">
<circle cx="40.0462" cy="55.0200" r="0.4000" /> 
</g>
<g style="fill:#FFFFFF; fill-opacity:1.0000; stroke:none;">
<circle cx="37.5062" cy="55.0200" r="0.4000" /> 
</g>
<g style="fill:#FFFFFF; fill-opacity:1.0000; stroke:none;">
<circle cx="34.9662" cy="55.0200" r="0.4000" /> 
</g>
<g style="fill:#FFFFFF; fill-opacity:1.0000; stroke:none;">
<circle cx="32.4262" cy="55.0200" r="0.4000" /> 
</g>
<g style="fill:#FFFFFF; fill-opacity:1.0000; stroke:none;">
<circle cx="29.8862" cy="55.0200" r="0.4000" /> 
</g>
<g style="fill:#FFFFFF; fill-opacity:1.0000; stroke:none;">
<circle cx="27.3462" cy="55.0200" r="0.4000" /> 
</g>
<g style="fill:#FFFFFF; fill-opacity:1.0000; stroke:none;">
<circle cx="24.8062" cy="55.0200" r="0.4000" /> 
</g>
<g style="fill:#FFFFFF; fill-opacity:1.0000; stroke:none;">
<circle cx="63.8962" cy="62.2000" r="0.4050" /> 
</g>
<g style="fill:#FFFFFF; fill-opacity:1.0000; stroke:none;">
<circle cx="63.8962" cy="60.2000" r="0.4050" /> 
</g>
<g style="fill:#FFFFFF; fill-opacity:1.0000; stroke:none;">
<circle cx="63.8962" cy="58.2000" r="0.4050" /> 
</g>
<g style="fill:#FFFFFF; fill-opacity:1.0000; stroke:none;">
<circle cx="63.8962" cy="56.2000" r="0.4050" /> 
</g>
<g style="fill:#FFFFFF; fill-opacity:1.0000; stroke:none;">
<circle cx="63.8962" cy="54.2000" r="0.4050" /> 
</g>
<g style="fill:#FFFFFF; fill-opacity:1.0000; stroke:none;">
<circle cx="63.8962" cy="52.2000" r="0.4050" /> 
</g>
<g style="fill:#FFFFFF; fill-opacity:1.0000; stroke:none;">
<circle cx="63.8962" cy="50.2000" r="0.4050" /> 
</g>
<g style="fill:#FFFFFF; fill-opacity:1.0000; stroke:none;">
<circle cx="63.8962" cy="48.2000" r="0.4050" /> 
</g>
<g style="fill:none; 
stroke:#FFFFFF; stroke-width:0.7000; stroke-opacity:1; 
stroke-linecap:round; stroke-linejoin:round;">
<path d="M70.7462 64.4500
L70.1462 64.4500
" />
<path d="M70.7462 45.9500
L70.1462 45.9500
" />
</g>
<g style="fill:#FFFFFF; fill-opacity:1.0000; stroke:none;">
<circle cx="30.1362" cy="36.8825" r="0.4000" /> 
</g>
<g style="fill:#FFFFFF; fill-opacity:1.0000; stroke:none;">
<circle cx="27.5962" cy="36.8825" r="0.4000" /> 
</g>
<g style="fill:#FFFFFF; fill-opacity:1.0000; stroke:none;">
<circle cx="25.0562" cy="36.8825" r="0.4000" /> 
</g>
<g style="fill:#FFFFFF; fill-opacity:1.0000; stroke:none;">
<circle cx="22.5162" cy="36.8825" r="0.4000" /> 
</g>
<g style="fill:#FFFFFF; fill-opacity:1.0000; stroke:none;">
<circle cx="19.9762" cy="36.8825" r="0.4000" /> 
</g>
<g style="fill:#FFFFFF; fill-opacity:1.0000; stroke:none;">
<circle cx="17.4362" cy="36.8825" r="0.4000" /> 
</g>
<g style="fill:#FFFFFF; fill-opacity:1.0000; stroke:none;">
<circle cx="14.8962" cy="36.8825" r="0.4000" /> 
</g>
<g style="fill:#FFFFFF; fill-opacity:1.0000; stroke:none;">
<circle cx="14.8962" cy="29.2625" r="0.4000" /> 
</g>
<g style="fill:#FFFFFF; fill-opacity:1.0000; stroke:none;">
<circle cx="17.4362" cy="29.2625" r="0.4000" /> 
</g>
<g style="fill:#FFFFFF; fill-opacity:1.0000; stroke:none;">
<circle cx="19.9762" cy="29.2625" r="0.4000" /> 
</g>
<g style="fill:#FFFFFF; fill-opacity:1.0000; stroke:none;">
<circle cx="22.5162" cy="29.2625" r="0.4000" /> 
</g>
<g style="fill:#FFFFFF; fill-opacity:1.0000; stroke:none;">
<circle cx="25.0562" cy="29.2625" r="0.4000" /> 
</g>
<g style="fill:#FFFFFF; fill-opacity:1.0000; stroke:none;">
<circle cx="27.5962" cy="29.2625" r="0.4000" /> 
</g>
<g style="fill:#FFFFFF; fill-opacity:1.0000; stroke:none;">
<circle cx="30.1362" cy="29.2625" r="0.4000" /> 
</g>
<g style="fill:#FFFFFF; fill-opacity:1.0000; stroke:none;">
<circle cx="67.8962" cy="10.5625" r="0.4050" /> 
</g>
<g style="fill:#FFFFFF; fill-opacity:1.0000; stroke:none;">
<circle cx="65.8962" cy="10.5625" r="0.4050" /> 
</g>
<g style="fill:#FFFFFF; fill-opacity:1.0000; stroke:none;">
<circle cx="63.8962" cy="10.5625" r="0.4050" /> 
</g>
<g style="fill:#FFFFFF; fill-opacity:1.0000; stroke:none;">
<circle cx="61.8962" cy="10.5625" r="0.4050" /> 
</g>
<g style="fill:#FFFFFF; fill-opacity:1.0000; stroke:none;">
<circle cx="59.8962" cy="10.5625" r="0.4050" /> 
</g>
<g style="fill:#FFFFFF; fill-opacity:1.0000; stroke:none;">
<circle cx="57.8962" cy="10.5625" r="0.4050" /> 
</g>
<g style="fill:#FFFFFF; fill-opacity:1.0000; stroke:none;">
<circle cx="55.8962" cy="10.5625" r="0.4050" /> 
</g>
<g style="fill:#FFFFFF; fill-opacity:1.0000; stroke:none;">
<circle cx="53.8962" cy="10.5625" r="0.4050" /> 
</g>
<g style="fill:none; 
stroke:#FFFFFF; stroke-width:0.7000; stroke-opacity:1; 
stroke-linecap:round; stroke-linejoin:round;">
<path d="M70.1462 3.7125
L70.1462 4.3125
" />
<path d="M51.6462 3.7125
L51.6462 4.3125
" />
</g>
<g style="fill:#FFFFFF; fill-opacity:1.0000; stroke:none;">
<circle cx="25.8962" cy="24.7625" r="0.5000" /> 
</g>
<g style="fill:#FFFFFF; fill-opacity:1.0000; stroke:none;">
<circle cx="28.4362" cy="24.7625" r="0.5000" /> 
</g>
<g style="fill:#FFFFFF; fill-opacity:1.0000; stroke:none;">
<circle cx="30.9762" cy="24.7625" r="0.5000" /> 
</g>
<g style="fill:#FFFFFF; fill-opacity:1.0000; stroke:none;">
<circle cx="10.5942" cy="40.1150" r="0.4250" /> 
</g>
<g style="fill:#FFFFFF; fill-opacity:1.0000; stroke:none;">
<circle cx="8.0542" cy="40.1150" r="0.4250" /> 
</g>
<g style="fill:#FFFFFF; fill-opacity:1.0000; stroke:none;">
<circle cx="10.5942" cy="42.6550" r="0.4250" /> 
</g>
<g style="fill:#FFFFFF; fill-opacity:1.0000; stroke:none;">
<circle cx="8.0542" cy="42.6550" r="0.4250" /> 
</g>
<g style="fill:#FFFFFF; fill-opacity:1.0000; stroke:none;">
<circle cx="10.5942" cy="45.1950" r="0.4250" /> 
</g>
<g style="fill:#FFFFFF; fill-opacity:1.0000; stroke:none;">
<circle cx="8.0542" cy="45.1950" r="0.4250" /> 
</g>
<g style="fill:#FFFFFF; fill-opacity:1.0000; stroke:none;">
<circle cx="13.8712" cy="24.7625" r="0.5000" /> 
</g>
<g style="fill:#FFFFFF; fill-opacity:1.0000; stroke:none;">
<circle cx="16.4112" cy="24.7625" r="0.5000" /> 
</g>
<g style="fill:#FFFFFF; fill-opacity:1.0000; stroke:none;">
<circle cx="18.9512" cy="24.7625" r="0.5000" /> 
</g>
<g style="fill:#FFFFFF; fill-opacity:1.0000; stroke:none;">
<circle cx="37.3962" cy="5.7625" r="0.4953" /> 
</g>
<g style="fill:#FFFFFF; fill-opacity:1.0000; stroke:none;">
<circle cx="41.8962" cy="5.7625" r="0.4953" /> 
</g>
<g style="fill:#FFFFFF; fill-opacity:1.0000; stroke:none;">
<circle cx="36.1412" cy="8.2528" r="0.6477" /> 
</g>
<g style="fill:#FFFFFF; fill-opacity:1.0000; stroke:none;">
<circle cx="43.1512" cy="8.2528" r="0.6477" /> 
</g>
<g style="fill:#FFFFFF; fill-opacity:1.0000; stroke:none;">
<circle cx="8.1762" cy="35.0200" r="1.5999" /> 
</g>
<g style="fill:#FFFFFF; fill-opacity:1.0000; stroke:none;">
<circle cx="28.4962" cy="19.7800" r="0.4250" /> 
</g>
<g style="fill:#FFFFFF; fill-opacity:1.0000; stroke:none;">
<circle cx="25.9562" cy="19.7800" r="0.4250" /> 
</g>
<g style="fill:#FFFFFF; fill-opacity:1.0000; stroke:none;">
<circle cx="23.4162" cy="19.7800" r="0.4250" /> 
</g>
<g style="fill:#FFFFFF; fill-opacity:1.0000; stroke:none;">
<circle cx="20.8762" cy="19.7800" r="0.4250" /> 
</g>
<g style="fill:#FFFFFF; fill-opacity:1.0000; stroke:none;">
<circle cx="18.3362" cy="19.7800" r="0.4250" /> 
</g>
<g style="fill:#FFFFFF; fill-opacity:1.0000; stroke:none;">
<circle cx="15.7962" cy="19.7800" r="0.4250" /> 
</g>
<g style="fill:#FFFFFF; fill-opacity:1.0000; stroke:none;">
<circle cx="13.2562" cy="19.7800" r="0.4250" /> 
</g>
<g style="fill:#FFFFFF; fill-opacity:1.0000; stroke:none;">
<circle cx="10.7162" cy="19.7800" r="0.4250" /> 
</g>
<g style="fill:#FFFFFF; fill-opacity:1.0000; stroke:none;">
<circle cx="63.1462" cy="31.7625" r="0.5500" /> 
</g>
<g style="fill:#FFFFFF; fill-opacity:1.0000; stroke:none;">
<circle cx="65.6862" cy="31.7625" r="0.5500" /> 
</g>
<g style="fill:#FFFFFF; fill-opacity:1.0000; stroke:none;">
<circle cx="68.2262" cy="31.7625" r="0.5500" /> 
</g>
<g style="fill:#FFFFFF; fill-opacity:1.0000; stroke:none;">
<circle cx="55.4202" cy="19.7800" r="0.4250" /> 
</g>
<g style="fill:#FFFFFF; fill-opacity:1.0000; stroke:none;">
<circle cx="52.8802" cy="19.7800" r="0.4250" /> 
</g>
<g style="fill:#FFFFFF; fill-opacity:1.0000; stroke:none;">
<circle cx="50.3402" cy="19.7800" r="0.4250" /> 
</g>
<g style="fill:#FFFFFF; fill-opacity:1.0000; stroke:none;">
<circle cx="47.8002" cy="19.7800" r="0.4250" /> 
</g>
<g style="fill:#FFFFFF; fill-opacity:1.0000; stroke:none;">
<circle cx="45.2602" cy="19.7800" r="0.4250" /> 
</g>
<g style="fill:#FFFFFF; fill-opacity:1.0000; stroke:none;">
<circle cx="42.7202" cy="19.7800" r="0.4250" /> 
</g>
<g style="fill:#FFFFFF; fill-opacity:1.0000; stroke:none;">
<circle cx="40.1802" cy="19.7800" r="0.4250" /> 
</g>
<g style="fill:#FFFFFF; fill-opacity:1.0000; stroke:none;">
<circle cx="37.6402" cy="19.7800" r="0.4250" /> 
</g>
<g style="fill:#FFFFFF; fill-opacity:1.0000; stroke:none;">
<circle cx="35.1002" cy="19.7800" r="0.4250" /> 
</g>
<g style="fill:#FFFFFF; fill-opacity:1.0000; stroke:none;">
<circle cx="32.5602" cy="19.7800" r="0.4250" /> 
</g>
<g style="fill:#FFFFFF; fill-opacity:1.0000; stroke:none;">
<circle cx="60.2462" cy="68.0400" r="1.5999" /> 
</g>
<g style="fill:#FFFFFF; fill-opacity:1.0000; stroke:none;">
<circle cx="23.4162" cy="68.0400" r="0.4250" /> 
</g>
<g style="fill:#FFFFFF; fill-opacity:1.0000; stroke:none;">
<circle cx="20.8762" cy="68.0400" r="0.4250" /> 
</g>
<g style="fill:#FFFFFF; fill-opacity:1.0000; stroke:none;">
<circle cx="18.3362" cy="68.0400" r="0.4250" /> 
</g>
<g style="fill:#FFFFFF; fill-opacity:1.0000; stroke:none;">
<circle cx="15.7962" cy="68.0400" r="0.4250" /> 
</g>
<g style="fill:#FFFFFF; fill-opacity:1.0000; stroke:none;">
<circle cx="13.2562" cy="68.0400" r="0.4250" /> 
</g>
<g style="fill:#FFFFFF; fill-opacity:1.0000; stroke:none;">
<circle cx="10.7162" cy="68.0400" r="0.4250" /> 
</g>
<g style="fill:#FFFFFF; fill-opacity:1.0000; stroke:none;">
<circle cx="46.2762" cy="68.0400" r="0.4250" /> 
</g>
<g style="fill:#FFFFFF; fill-opacity:1.0000; stroke:none;">
<circle cx="43.7362" cy="68.0400" r="0.4250" /> 
</g>
<g style="fill:#FFFFFF; fill-opacity:1.0000; stroke:none;">
<circle cx="41.1962" cy="68.0400" r="0.4250" /> 
</g>
<g style="fill:#FFFFFF; fill-opacity:1.0000; stroke:none;">
<circle cx="38.6562" cy="68.0400" r="0.4250" /> 
</g>
<g style="fill:#FFFFFF; fill-opacity:1.0000; stroke:none;">
<circle cx="36.1162" cy="68.0400" r="0.4250" /> 
</g>
<g style="fill:#FFFFFF; fill-opacity:1.0000; stroke:none;">
<circle cx="33.5762" cy="68.0400" r="0.4250" /> 
</g>
<g style="fill:#FFFFFF; fill-opacity:1.0000; stroke:none;">
<circle cx="31.0362" cy="68.0400" r="0.4250" /> 
</g>
<g style="fill:#FFFFFF; fill-opacity:1.0000; stroke:none;">
<circle cx="28.4962" cy="68.0400" r="0.4250" /> 
</g>
<g style="fill:#FFFFFF; fill-opacity:1.0000; stroke:none;">
<circle cx="40.0413" cy="34.7625" r="0.6477" /> 
</g>
<g style="fill:#FFFFFF; fill-opacity:1.0000; stroke:none;">
<circle cx="35.0413" cy="34.7625" r="0.6477" /> 
</g>
<g style="fill:#FFFFFF; fill-opacity:1.0000; stroke:none;">
<circle cx="3.3962" cy="5.7625" r="0.4953" /> 
</g>
<g style="fill:#FFFFFF; fill-opacity:1.0000; stroke:none;">
<circle cx="7.8962" cy="5.7625" r="0.4953" /> 
</g>
<g style="fill:#FFFFFF; fill-opacity:1.0000; stroke:none;">
<circle cx="2.1412" cy="8.2528" r="0.6477" /> 
</g>
<g style="fill:#FFFFFF; fill-opacity:1.0000; stroke:none;">
<circle cx="9.1512" cy="8.2528" r="0.6477" /> 
</g>
<g style="fill:#FFFFFF; fill-opacity:1.0000; stroke:none;">
<circle cx="58.9762" cy="19.7800" r="1.5999" /> 
</g>
<g style="fill:#FFFFFF; fill-opacity:1.0000; stroke:none;">
<circle cx="52.8802" cy="27.3492" r="0.4250" /> 
</g>
<g style="fill:#FFFFFF; fill-opacity:1.0000; stroke:none;">
<circle cx="52.8802" cy="29.8892" r="0.4250" /> 
</g>
<g style="fill:#FFFFFF; fill-opacity:1.0000; stroke:none;">
<circle cx="55.4202" cy="27.3492" r="0.4250" /> 
</g>
<g style="fill:#FFFFFF; fill-opacity:1.0000; stroke:none;">
<circle cx="55.4202" cy="29.8892" r="0.4250" /> 
</g>
<g style="fill:#FFFFFF; fill-opacity:1.0000; stroke:none;">
<circle cx="57.9602" cy="27.3492" r="0.4250" /> 
</g>
<g style="fill:#FFFFFF; fill-opacity:1.0000; stroke:none;">
<circle cx="57.9602" cy="29.8892" r="0.4250" /> 
</g>
<g style="fill:#FFFFFF; fill-opacity:1.0000; stroke:none;">
<circle cx="8.1762" cy="62.9600" r="1.5999" /> 
</g>
<g style="fill:none; 
stroke:#000000; stroke-width:0.1000; stroke-opacity:1; 
stroke-linecap:round; stroke-linejoin:round;">
<path d="M24.8962 0.0500
L74.2962 0.0500
" />
<path d="M74.2962 2.8000
L74.2962 0.0500
" />
<path d="M2.1962 0.0500
L0.8962 0.0500
" />
<path d="M74.2962 17.6000
L74.2962 2.8000
" />
<path d="M0.8962 35.4000
L0.8962 70.6000
" />
<path d="M24.8962 0.0500
L2.1962 0.0500
" />
<path d="M0.8962 35.4000
L0.8962 4.4000
" />
<path d="M74.2962 20.4000
L74.2962 70.3000
" />
<path d="M0.8962 2.8000
L0.8962 0.0500
" />
<path d="M0.8962 2.8000
L0.8962 4.4000
" />
<path d="M74.2962 20.4000
L74.2962 17.0000
" />
<path d="M0.8962 70.6000
L2.1962 70.6000
" />
<path d="M74.2962 70.6000
L72.5962 70.6000
" />
<path d="M74.2962 70.3000
L74.2962 70.6000
" />
<path d="M72.5962 70.6000
L2.1962 70.6000
" />
</g> 
</svg>
