%TF.GenerationSoftware,KiCad,Pcbnew,8.0.2*%
%TF.CreationDate,2024-04-30T14:50:30+02:00*%
%TF.ProjectId,Bachelor Shield,42616368-656c-46f7-9220-536869656c64,1.0*%
%TF.SameCoordinates,Original*%
%TF.FileFunction,Soldermask,Top*%
%TF.FilePolarity,Negative*%
%FSLAX46Y46*%
G04 Gerber Fmt 4.6, Leading zero omitted, Abs format (unit mm)*
G04 Created by KiCad (PCBNEW 8.0.2) date 2024-04-30 14:50:30*
%MOMM*%
%LPD*%
G01*
G04 APERTURE LIST*
G04 Aperture macros list*
%AMRoundRect*
0 Rectangle with rounded corners*
0 $1 Rounding radius*
0 $2 $3 $4 $5 $6 $7 $8 $9 X,Y pos of 4 corners*
0 Add a 4 corners polygon primitive as box body*
4,1,4,$2,$3,$4,$5,$6,$7,$8,$9,$2,$3,0*
0 Add four circle primitives for the rounded corners*
1,1,$1+$1,$2,$3*
1,1,$1+$1,$4,$5*
1,1,$1+$1,$6,$7*
1,1,$1+$1,$8,$9*
0 Add four rect primitives between the rounded corners*
20,1,$1+$1,$2,$3,$4,$5,0*
20,1,$1+$1,$4,$5,$6,$7,0*
20,1,$1+$1,$6,$7,$8,$9,0*
20,1,$1+$1,$8,$9,$2,$3,0*%
G04 Aperture macros list end*
%ADD10R,1.700000X1.700000*%
%ADD11O,1.700000X1.700000*%
%ADD12RoundRect,0.250000X0.412500X0.650000X-0.412500X0.650000X-0.412500X-0.650000X0.412500X-0.650000X0*%
%ADD13RoundRect,0.250000X-0.650000X0.412500X-0.650000X-0.412500X0.650000X-0.412500X0.650000X0.412500X0*%
%ADD14C,1.498600*%
%ADD15C,1.803400*%
%ADD16RoundRect,0.250000X0.400000X0.625000X-0.400000X0.625000X-0.400000X-0.625000X0.400000X-0.625000X0*%
%ADD17RoundRect,0.250000X0.625000X-0.400000X0.625000X0.400000X-0.625000X0.400000X-0.625000X-0.400000X0*%
%ADD18C,1.422000*%
%ADD19R,1.600000X1.600000*%
%ADD20O,1.600000X1.600000*%
%ADD21R,1.524000X1.524000*%
%ADD22C,1.524000*%
%ADD23O,2.600000X1.400000*%
%ADD24O,1.400000X2.600000*%
%ADD25RoundRect,0.250000X-0.625000X0.400000X-0.625000X-0.400000X0.625000X-0.400000X0.625000X0.400000X0*%
%ADD26RoundRect,0.250000X-0.412500X-0.650000X0.412500X-0.650000X0.412500X0.650000X-0.412500X0.650000X0*%
%ADD27C,4.199890*%
%ADD28R,1.905000X2.000000*%
%ADD29O,1.905000X2.000000*%
%ADD30RoundRect,0.250000X0.650000X-0.412500X0.650000X0.412500X-0.650000X0.412500X-0.650000X-0.412500X0*%
G04 APERTURE END LIST*
D10*
%TO.C,J4*%
X128170000Y-84750000D03*
D11*
X130710000Y-84750000D03*
X133250000Y-84750000D03*
%TD*%
D12*
%TO.C,C4*%
X122162500Y-102400000D03*
X119037500Y-102400000D03*
%TD*%
%TO.C,C6*%
X132300000Y-95750000D03*
X129175000Y-95750000D03*
%TD*%
D13*
%TO.C,C9*%
X136000000Y-46937500D03*
X136000000Y-50062500D03*
%TD*%
D14*
%TO.C,SW3*%
X127500000Y-49000000D03*
X122999999Y-49000000D03*
D15*
X128755000Y-51490299D03*
X121744999Y-51490299D03*
%TD*%
D13*
%TO.C,C3*%
X115600000Y-104800000D03*
X115600000Y-107925000D03*
%TD*%
D16*
%TO.C,R11*%
X120500000Y-54500000D03*
X117400000Y-54500000D03*
%TD*%
D17*
%TO.C,R13*%
X132500000Y-58300000D03*
X132500000Y-55200000D03*
%TD*%
D12*
%TO.C,C1*%
X85562500Y-71800000D03*
X82437500Y-71800000D03*
%TD*%
D18*
%TO.C,U1*%
X91474990Y-111277510D03*
X94014990Y-111277510D03*
X96554990Y-111277510D03*
%TD*%
D19*
%TO.C,U9*%
X123090000Y-90637500D03*
D20*
X120550000Y-90637500D03*
X118010000Y-90637500D03*
X115470000Y-90637500D03*
X112930000Y-90637500D03*
X110390000Y-90637500D03*
X107850000Y-90637500D03*
X107850000Y-98257500D03*
X110390000Y-98257500D03*
X112930000Y-98257500D03*
X115470000Y-98257500D03*
X118010000Y-98257500D03*
X120550000Y-98257500D03*
X123090000Y-98257500D03*
%TD*%
D17*
%TO.C,R10*%
X139000000Y-99600000D03*
X139000000Y-96500000D03*
%TD*%
D21*
%TO.C,J2*%
X84000000Y-105437500D03*
D22*
X84000000Y-103437500D03*
X84000000Y-101437500D03*
X84000000Y-99437500D03*
X84000000Y-97437500D03*
X84000000Y-95437500D03*
X84000000Y-93437500D03*
X84000000Y-91437500D03*
D23*
X77450000Y-107687500D03*
X77450000Y-89187500D03*
%TD*%
D17*
%TO.C,R2*%
X101000000Y-105787500D03*
X101000000Y-102687500D03*
%TD*%
D19*
%TO.C,U10*%
X117760000Y-80120000D03*
D20*
X120300000Y-80120000D03*
X122840000Y-80120000D03*
X125380000Y-80120000D03*
X127920000Y-80120000D03*
X130460000Y-80120000D03*
X133000000Y-80120000D03*
X133000000Y-72500000D03*
X130460000Y-72500000D03*
X127920000Y-72500000D03*
X125380000Y-72500000D03*
X122840000Y-72500000D03*
X120300000Y-72500000D03*
X117760000Y-72500000D03*
%TD*%
D21*
%TO.C,J3*%
X80000000Y-53800000D03*
D22*
X82000000Y-53800000D03*
X84000000Y-53800000D03*
X86000000Y-53800000D03*
X88000000Y-53800000D03*
X90000000Y-53800000D03*
X92000000Y-53800000D03*
X94000000Y-53800000D03*
D24*
X77750000Y-47250000D03*
X96250000Y-47250000D03*
%TD*%
D13*
%TO.C,C8*%
X118250000Y-46875000D03*
X118250000Y-50000000D03*
%TD*%
D16*
%TO.C,R9*%
X132350000Y-90750000D03*
X129250000Y-90750000D03*
%TD*%
D10*
%TO.C,J6*%
X122000000Y-68000000D03*
D11*
X119460000Y-68000000D03*
X116920000Y-68000000D03*
%TD*%
D18*
%TO.C,U5*%
X137301990Y-83352510D03*
X139841990Y-83352510D03*
X137301990Y-85892510D03*
X139841990Y-85892510D03*
X137301990Y-88432510D03*
X139841990Y-88432510D03*
%TD*%
D25*
%TO.C,R5*%
X83250000Y-82900000D03*
X83250000Y-86000000D03*
%TD*%
D13*
%TO.C,C10*%
X131500000Y-46937500D03*
X131500000Y-50062500D03*
%TD*%
D26*
%TO.C,C2*%
X80187500Y-66800000D03*
X83312500Y-66800000D03*
%TD*%
D17*
%TO.C,R3*%
X95500000Y-105787500D03*
X95500000Y-102687500D03*
%TD*%
D10*
%TO.C,J5*%
X134025000Y-68000000D03*
D11*
X131485000Y-68000000D03*
X128945000Y-68000000D03*
%TD*%
D14*
%TO.C,SW1*%
X110500000Y-49000000D03*
X105999999Y-49000000D03*
D15*
X111755000Y-51490299D03*
X104744999Y-51490299D03*
%TD*%
D17*
%TO.C,R6*%
X110800000Y-105750000D03*
X110800000Y-102650000D03*
%TD*%
%TO.C,R1*%
X106000000Y-105787500D03*
X106000000Y-102687500D03*
%TD*%
D27*
%TO.C,H1*%
X139720000Y-78257510D03*
%TD*%
D25*
%TO.C,R4*%
X78750000Y-82900000D03*
X78750000Y-86000000D03*
%TD*%
D17*
%TO.C,R14*%
X102750000Y-76100000D03*
X102750000Y-73000000D03*
%TD*%
%TO.C,R7*%
X125200000Y-107900000D03*
X125200000Y-104800000D03*
%TD*%
D18*
%TO.C,U7*%
X119399990Y-63017510D03*
X121939990Y-63017510D03*
X124479990Y-63017510D03*
X127019990Y-63017510D03*
X129559990Y-63017510D03*
X132099990Y-63017510D03*
X134639990Y-63017510D03*
X137179990Y-63017510D03*
%TD*%
D28*
%TO.C,U8*%
X84750000Y-75000000D03*
D29*
X82210000Y-75000000D03*
X79670000Y-75000000D03*
%TD*%
D18*
%TO.C,U6*%
X92476000Y-63017500D03*
X95016000Y-63017500D03*
X97556000Y-63017500D03*
X100096000Y-63017500D03*
X102636000Y-63017500D03*
X105176000Y-63017500D03*
X107716000Y-63017500D03*
X110256000Y-63017500D03*
X112796000Y-63017500D03*
X115336000Y-63017500D03*
%TD*%
D27*
%TO.C,H4*%
X87650000Y-111277500D03*
%TD*%
D18*
%TO.C,U3*%
X124480000Y-111277500D03*
X127020000Y-111277500D03*
X129560000Y-111277500D03*
X132100000Y-111277500D03*
X134640000Y-111277500D03*
X137180000Y-111277500D03*
%TD*%
%TO.C,U2*%
X101620000Y-111277500D03*
X104160000Y-111277500D03*
X106700000Y-111277500D03*
X109240000Y-111277500D03*
X111780000Y-111277500D03*
X114320000Y-111277500D03*
X116860000Y-111277500D03*
X119400000Y-111277500D03*
%TD*%
D13*
%TO.C,C12*%
X136000000Y-72000000D03*
X136000000Y-75125000D03*
%TD*%
D30*
%TO.C,C7*%
X144000000Y-99625000D03*
X144000000Y-96500000D03*
%TD*%
D15*
%TO.C,J1*%
X107854900Y-78000000D03*
X112854900Y-78000000D03*
%TD*%
D12*
%TO.C,C5*%
X133000000Y-102250000D03*
X129875000Y-102250000D03*
%TD*%
D14*
%TO.C,SW2*%
X144500000Y-49000000D03*
X139999999Y-49000000D03*
D15*
X145755000Y-51490299D03*
X138744999Y-51490299D03*
%TD*%
D27*
%TO.C,H2*%
X88919990Y-63017510D03*
%TD*%
D16*
%TO.C,R8*%
X133000000Y-107000000D03*
X129900000Y-107000000D03*
%TD*%
D17*
%TO.C,R12*%
X137750000Y-58300000D03*
X137750000Y-55200000D03*
%TD*%
D18*
%TO.C,U4*%
X95016000Y-70586700D03*
X95016000Y-73126700D03*
X92476000Y-70586700D03*
X92476000Y-73126700D03*
X89936000Y-70586700D03*
X89936000Y-73126700D03*
%TD*%
D27*
%TO.C,H3*%
X139720000Y-106197500D03*
%TD*%
M02*
