%TF.GenerationSoftware,KiCad,Pcbnew,8.0.2*%
%TF.CreationDate,2024-04-30T14:50:30+02:00*%
%TF.ProjectId,Bachelor Shield,42616368-656c-46f7-9220-536869656c64,1.0*%
%TF.SameCoordinates,Original*%
%TF.FileFunction,Legend,Top*%
%TF.FilePolarity,Positive*%
%FSLAX46Y46*%
G04 Gerber Fmt 4.6, Leading zero omitted, Abs format (unit mm)*
G04 Created by KiCad (PCBNEW 8.0.2) date 2024-04-30 14:50:30*
%MOMM*%
%LPD*%
G01*
G04 APERTURE LIST*
%ADD10C,0.150000*%
%ADD11C,0.100000*%
%ADD12C,0.120000*%
%ADD13C,0.152400*%
%ADD14C,0.508000*%
G04 APERTURE END LIST*
D10*
X125294819Y-85083333D02*
X126009104Y-85083333D01*
X126009104Y-85083333D02*
X126151961Y-85130952D01*
X126151961Y-85130952D02*
X126247200Y-85226190D01*
X126247200Y-85226190D02*
X126294819Y-85369047D01*
X126294819Y-85369047D02*
X126294819Y-85464285D01*
X125628152Y-84178571D02*
X126294819Y-84178571D01*
X125247200Y-84416666D02*
X125961485Y-84654761D01*
X125961485Y-84654761D02*
X125961485Y-84035714D01*
X120433333Y-104609580D02*
X120385714Y-104657200D01*
X120385714Y-104657200D02*
X120242857Y-104704819D01*
X120242857Y-104704819D02*
X120147619Y-104704819D01*
X120147619Y-104704819D02*
X120004762Y-104657200D01*
X120004762Y-104657200D02*
X119909524Y-104561961D01*
X119909524Y-104561961D02*
X119861905Y-104466723D01*
X119861905Y-104466723D02*
X119814286Y-104276247D01*
X119814286Y-104276247D02*
X119814286Y-104133390D01*
X119814286Y-104133390D02*
X119861905Y-103942914D01*
X119861905Y-103942914D02*
X119909524Y-103847676D01*
X119909524Y-103847676D02*
X120004762Y-103752438D01*
X120004762Y-103752438D02*
X120147619Y-103704819D01*
X120147619Y-103704819D02*
X120242857Y-103704819D01*
X120242857Y-103704819D02*
X120385714Y-103752438D01*
X120385714Y-103752438D02*
X120433333Y-103800057D01*
X121290476Y-104038152D02*
X121290476Y-104704819D01*
X121052381Y-103657200D02*
X120814286Y-104371485D01*
X120814286Y-104371485D02*
X121433333Y-104371485D01*
X130570833Y-97959580D02*
X130523214Y-98007200D01*
X130523214Y-98007200D02*
X130380357Y-98054819D01*
X130380357Y-98054819D02*
X130285119Y-98054819D01*
X130285119Y-98054819D02*
X130142262Y-98007200D01*
X130142262Y-98007200D02*
X130047024Y-97911961D01*
X130047024Y-97911961D02*
X129999405Y-97816723D01*
X129999405Y-97816723D02*
X129951786Y-97626247D01*
X129951786Y-97626247D02*
X129951786Y-97483390D01*
X129951786Y-97483390D02*
X129999405Y-97292914D01*
X129999405Y-97292914D02*
X130047024Y-97197676D01*
X130047024Y-97197676D02*
X130142262Y-97102438D01*
X130142262Y-97102438D02*
X130285119Y-97054819D01*
X130285119Y-97054819D02*
X130380357Y-97054819D01*
X130380357Y-97054819D02*
X130523214Y-97102438D01*
X130523214Y-97102438D02*
X130570833Y-97150057D01*
X131427976Y-97054819D02*
X131237500Y-97054819D01*
X131237500Y-97054819D02*
X131142262Y-97102438D01*
X131142262Y-97102438D02*
X131094643Y-97150057D01*
X131094643Y-97150057D02*
X130999405Y-97292914D01*
X130999405Y-97292914D02*
X130951786Y-97483390D01*
X130951786Y-97483390D02*
X130951786Y-97864342D01*
X130951786Y-97864342D02*
X130999405Y-97959580D01*
X130999405Y-97959580D02*
X131047024Y-98007200D01*
X131047024Y-98007200D02*
X131142262Y-98054819D01*
X131142262Y-98054819D02*
X131332738Y-98054819D01*
X131332738Y-98054819D02*
X131427976Y-98007200D01*
X131427976Y-98007200D02*
X131475595Y-97959580D01*
X131475595Y-97959580D02*
X131523214Y-97864342D01*
X131523214Y-97864342D02*
X131523214Y-97626247D01*
X131523214Y-97626247D02*
X131475595Y-97531009D01*
X131475595Y-97531009D02*
X131427976Y-97483390D01*
X131427976Y-97483390D02*
X131332738Y-97435771D01*
X131332738Y-97435771D02*
X131142262Y-97435771D01*
X131142262Y-97435771D02*
X131047024Y-97483390D01*
X131047024Y-97483390D02*
X130999405Y-97531009D01*
X130999405Y-97531009D02*
X130951786Y-97626247D01*
X138209580Y-48666666D02*
X138257200Y-48714285D01*
X138257200Y-48714285D02*
X138304819Y-48857142D01*
X138304819Y-48857142D02*
X138304819Y-48952380D01*
X138304819Y-48952380D02*
X138257200Y-49095237D01*
X138257200Y-49095237D02*
X138161961Y-49190475D01*
X138161961Y-49190475D02*
X138066723Y-49238094D01*
X138066723Y-49238094D02*
X137876247Y-49285713D01*
X137876247Y-49285713D02*
X137733390Y-49285713D01*
X137733390Y-49285713D02*
X137542914Y-49238094D01*
X137542914Y-49238094D02*
X137447676Y-49190475D01*
X137447676Y-49190475D02*
X137352438Y-49095237D01*
X137352438Y-49095237D02*
X137304819Y-48952380D01*
X137304819Y-48952380D02*
X137304819Y-48857142D01*
X137304819Y-48857142D02*
X137352438Y-48714285D01*
X137352438Y-48714285D02*
X137400057Y-48666666D01*
X138304819Y-48190475D02*
X138304819Y-47999999D01*
X138304819Y-47999999D02*
X138257200Y-47904761D01*
X138257200Y-47904761D02*
X138209580Y-47857142D01*
X138209580Y-47857142D02*
X138066723Y-47761904D01*
X138066723Y-47761904D02*
X137876247Y-47714285D01*
X137876247Y-47714285D02*
X137495295Y-47714285D01*
X137495295Y-47714285D02*
X137400057Y-47761904D01*
X137400057Y-47761904D02*
X137352438Y-47809523D01*
X137352438Y-47809523D02*
X137304819Y-47904761D01*
X137304819Y-47904761D02*
X137304819Y-48095237D01*
X137304819Y-48095237D02*
X137352438Y-48190475D01*
X137352438Y-48190475D02*
X137400057Y-48238094D01*
X137400057Y-48238094D02*
X137495295Y-48285713D01*
X137495295Y-48285713D02*
X137733390Y-48285713D01*
X137733390Y-48285713D02*
X137828628Y-48238094D01*
X137828628Y-48238094D02*
X137876247Y-48190475D01*
X137876247Y-48190475D02*
X137923866Y-48095237D01*
X137923866Y-48095237D02*
X137923866Y-47904761D01*
X137923866Y-47904761D02*
X137876247Y-47809523D01*
X137876247Y-47809523D02*
X137828628Y-47761904D01*
X137828628Y-47761904D02*
X137733390Y-47714285D01*
X123916666Y-52668099D02*
X124059523Y-52715718D01*
X124059523Y-52715718D02*
X124297618Y-52715718D01*
X124297618Y-52715718D02*
X124392856Y-52668099D01*
X124392856Y-52668099D02*
X124440475Y-52620479D01*
X124440475Y-52620479D02*
X124488094Y-52525241D01*
X124488094Y-52525241D02*
X124488094Y-52430003D01*
X124488094Y-52430003D02*
X124440475Y-52334765D01*
X124440475Y-52334765D02*
X124392856Y-52287146D01*
X124392856Y-52287146D02*
X124297618Y-52239527D01*
X124297618Y-52239527D02*
X124107142Y-52191908D01*
X124107142Y-52191908D02*
X124011904Y-52144289D01*
X124011904Y-52144289D02*
X123964285Y-52096670D01*
X123964285Y-52096670D02*
X123916666Y-52001432D01*
X123916666Y-52001432D02*
X123916666Y-51906194D01*
X123916666Y-51906194D02*
X123964285Y-51810956D01*
X123964285Y-51810956D02*
X124011904Y-51763337D01*
X124011904Y-51763337D02*
X124107142Y-51715718D01*
X124107142Y-51715718D02*
X124345237Y-51715718D01*
X124345237Y-51715718D02*
X124488094Y-51763337D01*
X124821428Y-51715718D02*
X125059523Y-52715718D01*
X125059523Y-52715718D02*
X125249999Y-52001432D01*
X125249999Y-52001432D02*
X125440475Y-52715718D01*
X125440475Y-52715718D02*
X125678571Y-51715718D01*
X125964285Y-51715718D02*
X126583332Y-51715718D01*
X126583332Y-51715718D02*
X126249999Y-52096670D01*
X126249999Y-52096670D02*
X126392856Y-52096670D01*
X126392856Y-52096670D02*
X126488094Y-52144289D01*
X126488094Y-52144289D02*
X126535713Y-52191908D01*
X126535713Y-52191908D02*
X126583332Y-52287146D01*
X126583332Y-52287146D02*
X126583332Y-52525241D01*
X126583332Y-52525241D02*
X126535713Y-52620479D01*
X126535713Y-52620479D02*
X126488094Y-52668099D01*
X126488094Y-52668099D02*
X126392856Y-52715718D01*
X126392856Y-52715718D02*
X126107142Y-52715718D01*
X126107142Y-52715718D02*
X126011904Y-52668099D01*
X126011904Y-52668099D02*
X125964285Y-52620479D01*
X120488094Y-52715718D02*
X119916666Y-52715718D01*
X120202380Y-52715718D02*
X120202380Y-51715718D01*
X120202380Y-51715718D02*
X120107142Y-51858575D01*
X120107142Y-51858575D02*
X120011904Y-51953813D01*
X120011904Y-51953813D02*
X119916666Y-52001432D01*
X120916666Y-52334765D02*
X121678571Y-52334765D01*
X122678570Y-52715718D02*
X122107142Y-52715718D01*
X122392856Y-52715718D02*
X122392856Y-51715718D01*
X122392856Y-51715718D02*
X122297618Y-51858575D01*
X122297618Y-51858575D02*
X122202380Y-51953813D01*
X122202380Y-51953813D02*
X122107142Y-52001432D01*
X123249999Y-52144289D02*
X123154761Y-52096670D01*
X123154761Y-52096670D02*
X123107142Y-52049051D01*
X123107142Y-52049051D02*
X123059523Y-51953813D01*
X123059523Y-51953813D02*
X123059523Y-51906194D01*
X123059523Y-51906194D02*
X123107142Y-51810956D01*
X123107142Y-51810956D02*
X123154761Y-51763337D01*
X123154761Y-51763337D02*
X123249999Y-51715718D01*
X123249999Y-51715718D02*
X123440475Y-51715718D01*
X123440475Y-51715718D02*
X123535713Y-51763337D01*
X123535713Y-51763337D02*
X123583332Y-51810956D01*
X123583332Y-51810956D02*
X123630951Y-51906194D01*
X123630951Y-51906194D02*
X123630951Y-51953813D01*
X123630951Y-51953813D02*
X123583332Y-52049051D01*
X123583332Y-52049051D02*
X123535713Y-52096670D01*
X123535713Y-52096670D02*
X123440475Y-52144289D01*
X123440475Y-52144289D02*
X123249999Y-52144289D01*
X123249999Y-52144289D02*
X123154761Y-52191908D01*
X123154761Y-52191908D02*
X123107142Y-52239527D01*
X123107142Y-52239527D02*
X123059523Y-52334765D01*
X123059523Y-52334765D02*
X123059523Y-52525241D01*
X123059523Y-52525241D02*
X123107142Y-52620479D01*
X123107142Y-52620479D02*
X123154761Y-52668099D01*
X123154761Y-52668099D02*
X123249999Y-52715718D01*
X123249999Y-52715718D02*
X123440475Y-52715718D01*
X123440475Y-52715718D02*
X123535713Y-52668099D01*
X123535713Y-52668099D02*
X123583332Y-52620479D01*
X123583332Y-52620479D02*
X123630951Y-52525241D01*
X123630951Y-52525241D02*
X123630951Y-52334765D01*
X123630951Y-52334765D02*
X123583332Y-52239527D01*
X123583332Y-52239527D02*
X123535713Y-52191908D01*
X123535713Y-52191908D02*
X123440475Y-52144289D01*
X124011904Y-51810956D02*
X124059523Y-51763337D01*
X124059523Y-51763337D02*
X124154761Y-51715718D01*
X124154761Y-51715718D02*
X124392856Y-51715718D01*
X124392856Y-51715718D02*
X124488094Y-51763337D01*
X124488094Y-51763337D02*
X124535713Y-51810956D01*
X124535713Y-51810956D02*
X124583332Y-51906194D01*
X124583332Y-51906194D02*
X124583332Y-52001432D01*
X124583332Y-52001432D02*
X124535713Y-52144289D01*
X124535713Y-52144289D02*
X123964285Y-52715718D01*
X123964285Y-52715718D02*
X124583332Y-52715718D01*
X125488094Y-51715718D02*
X125011904Y-51715718D01*
X125011904Y-51715718D02*
X124964285Y-52191908D01*
X124964285Y-52191908D02*
X125011904Y-52144289D01*
X125011904Y-52144289D02*
X125107142Y-52096670D01*
X125107142Y-52096670D02*
X125345237Y-52096670D01*
X125345237Y-52096670D02*
X125440475Y-52144289D01*
X125440475Y-52144289D02*
X125488094Y-52191908D01*
X125488094Y-52191908D02*
X125535713Y-52287146D01*
X125535713Y-52287146D02*
X125535713Y-52525241D01*
X125535713Y-52525241D02*
X125488094Y-52620479D01*
X125488094Y-52620479D02*
X125440475Y-52668099D01*
X125440475Y-52668099D02*
X125345237Y-52715718D01*
X125345237Y-52715718D02*
X125107142Y-52715718D01*
X125107142Y-52715718D02*
X125011904Y-52668099D01*
X125011904Y-52668099D02*
X124964285Y-52620479D01*
X126154761Y-51715718D02*
X126249999Y-51715718D01*
X126249999Y-51715718D02*
X126345237Y-51763337D01*
X126345237Y-51763337D02*
X126392856Y-51810956D01*
X126392856Y-51810956D02*
X126440475Y-51906194D01*
X126440475Y-51906194D02*
X126488094Y-52096670D01*
X126488094Y-52096670D02*
X126488094Y-52334765D01*
X126488094Y-52334765D02*
X126440475Y-52525241D01*
X126440475Y-52525241D02*
X126392856Y-52620479D01*
X126392856Y-52620479D02*
X126345237Y-52668099D01*
X126345237Y-52668099D02*
X126249999Y-52715718D01*
X126249999Y-52715718D02*
X126154761Y-52715718D01*
X126154761Y-52715718D02*
X126059523Y-52668099D01*
X126059523Y-52668099D02*
X126011904Y-52620479D01*
X126011904Y-52620479D02*
X125964285Y-52525241D01*
X125964285Y-52525241D02*
X125916666Y-52334765D01*
X125916666Y-52334765D02*
X125916666Y-52096670D01*
X125916666Y-52096670D02*
X125964285Y-51906194D01*
X125964285Y-51906194D02*
X126011904Y-51810956D01*
X126011904Y-51810956D02*
X126059523Y-51763337D01*
X126059523Y-51763337D02*
X126154761Y-51715718D01*
X126869047Y-51810956D02*
X126916666Y-51763337D01*
X126916666Y-51763337D02*
X127011904Y-51715718D01*
X127011904Y-51715718D02*
X127249999Y-51715718D01*
X127249999Y-51715718D02*
X127345237Y-51763337D01*
X127345237Y-51763337D02*
X127392856Y-51810956D01*
X127392856Y-51810956D02*
X127440475Y-51906194D01*
X127440475Y-51906194D02*
X127440475Y-52001432D01*
X127440475Y-52001432D02*
X127392856Y-52144289D01*
X127392856Y-52144289D02*
X126821428Y-52715718D01*
X126821428Y-52715718D02*
X127440475Y-52715718D01*
X127773809Y-51715718D02*
X128440475Y-51715718D01*
X128440475Y-51715718D02*
X128011904Y-52715718D01*
X128821428Y-52334765D02*
X129583333Y-52334765D01*
X130583332Y-52715718D02*
X130011904Y-52715718D01*
X130297618Y-52715718D02*
X130297618Y-51715718D01*
X130297618Y-51715718D02*
X130202380Y-51858575D01*
X130202380Y-51858575D02*
X130107142Y-51953813D01*
X130107142Y-51953813D02*
X130011904Y-52001432D01*
X130040000Y-48454819D02*
X130040000Y-48692914D01*
X129801905Y-48597676D02*
X130040000Y-48692914D01*
X130040000Y-48692914D02*
X130278095Y-48597676D01*
X129897143Y-48883390D02*
X130040000Y-48692914D01*
X130040000Y-48692914D02*
X130182857Y-48883390D01*
X117809580Y-106529166D02*
X117857200Y-106576785D01*
X117857200Y-106576785D02*
X117904819Y-106719642D01*
X117904819Y-106719642D02*
X117904819Y-106814880D01*
X117904819Y-106814880D02*
X117857200Y-106957737D01*
X117857200Y-106957737D02*
X117761961Y-107052975D01*
X117761961Y-107052975D02*
X117666723Y-107100594D01*
X117666723Y-107100594D02*
X117476247Y-107148213D01*
X117476247Y-107148213D02*
X117333390Y-107148213D01*
X117333390Y-107148213D02*
X117142914Y-107100594D01*
X117142914Y-107100594D02*
X117047676Y-107052975D01*
X117047676Y-107052975D02*
X116952438Y-106957737D01*
X116952438Y-106957737D02*
X116904819Y-106814880D01*
X116904819Y-106814880D02*
X116904819Y-106719642D01*
X116904819Y-106719642D02*
X116952438Y-106576785D01*
X116952438Y-106576785D02*
X117000057Y-106529166D01*
X116904819Y-106195832D02*
X116904819Y-105576785D01*
X116904819Y-105576785D02*
X117285771Y-105910118D01*
X117285771Y-105910118D02*
X117285771Y-105767261D01*
X117285771Y-105767261D02*
X117333390Y-105672023D01*
X117333390Y-105672023D02*
X117381009Y-105624404D01*
X117381009Y-105624404D02*
X117476247Y-105576785D01*
X117476247Y-105576785D02*
X117714342Y-105576785D01*
X117714342Y-105576785D02*
X117809580Y-105624404D01*
X117809580Y-105624404D02*
X117857200Y-105672023D01*
X117857200Y-105672023D02*
X117904819Y-105767261D01*
X117904819Y-105767261D02*
X117904819Y-106052975D01*
X117904819Y-106052975D02*
X117857200Y-106148213D01*
X117857200Y-106148213D02*
X117809580Y-106195832D01*
X118307142Y-56774819D02*
X117973809Y-56298628D01*
X117735714Y-56774819D02*
X117735714Y-55774819D01*
X117735714Y-55774819D02*
X118116666Y-55774819D01*
X118116666Y-55774819D02*
X118211904Y-55822438D01*
X118211904Y-55822438D02*
X118259523Y-55870057D01*
X118259523Y-55870057D02*
X118307142Y-55965295D01*
X118307142Y-55965295D02*
X118307142Y-56108152D01*
X118307142Y-56108152D02*
X118259523Y-56203390D01*
X118259523Y-56203390D02*
X118211904Y-56251009D01*
X118211904Y-56251009D02*
X118116666Y-56298628D01*
X118116666Y-56298628D02*
X117735714Y-56298628D01*
X119259523Y-56774819D02*
X118688095Y-56774819D01*
X118973809Y-56774819D02*
X118973809Y-55774819D01*
X118973809Y-55774819D02*
X118878571Y-55917676D01*
X118878571Y-55917676D02*
X118783333Y-56012914D01*
X118783333Y-56012914D02*
X118688095Y-56060533D01*
X120211904Y-56774819D02*
X119640476Y-56774819D01*
X119926190Y-56774819D02*
X119926190Y-55774819D01*
X119926190Y-55774819D02*
X119830952Y-55917676D01*
X119830952Y-55917676D02*
X119735714Y-56012914D01*
X119735714Y-56012914D02*
X119640476Y-56060533D01*
X131134819Y-57392857D02*
X130658628Y-57726190D01*
X131134819Y-57964285D02*
X130134819Y-57964285D01*
X130134819Y-57964285D02*
X130134819Y-57583333D01*
X130134819Y-57583333D02*
X130182438Y-57488095D01*
X130182438Y-57488095D02*
X130230057Y-57440476D01*
X130230057Y-57440476D02*
X130325295Y-57392857D01*
X130325295Y-57392857D02*
X130468152Y-57392857D01*
X130468152Y-57392857D02*
X130563390Y-57440476D01*
X130563390Y-57440476D02*
X130611009Y-57488095D01*
X130611009Y-57488095D02*
X130658628Y-57583333D01*
X130658628Y-57583333D02*
X130658628Y-57964285D01*
X131134819Y-56440476D02*
X131134819Y-57011904D01*
X131134819Y-56726190D02*
X130134819Y-56726190D01*
X130134819Y-56726190D02*
X130277676Y-56821428D01*
X130277676Y-56821428D02*
X130372914Y-56916666D01*
X130372914Y-56916666D02*
X130420533Y-57011904D01*
X130134819Y-56107142D02*
X130134819Y-55488095D01*
X130134819Y-55488095D02*
X130515771Y-55821428D01*
X130515771Y-55821428D02*
X130515771Y-55678571D01*
X130515771Y-55678571D02*
X130563390Y-55583333D01*
X130563390Y-55583333D02*
X130611009Y-55535714D01*
X130611009Y-55535714D02*
X130706247Y-55488095D01*
X130706247Y-55488095D02*
X130944342Y-55488095D01*
X130944342Y-55488095D02*
X131039580Y-55535714D01*
X131039580Y-55535714D02*
X131087200Y-55583333D01*
X131087200Y-55583333D02*
X131134819Y-55678571D01*
X131134819Y-55678571D02*
X131134819Y-55964285D01*
X131134819Y-55964285D02*
X131087200Y-56059523D01*
X131087200Y-56059523D02*
X131039580Y-56107142D01*
X83833333Y-74009580D02*
X83785714Y-74057200D01*
X83785714Y-74057200D02*
X83642857Y-74104819D01*
X83642857Y-74104819D02*
X83547619Y-74104819D01*
X83547619Y-74104819D02*
X83404762Y-74057200D01*
X83404762Y-74057200D02*
X83309524Y-73961961D01*
X83309524Y-73961961D02*
X83261905Y-73866723D01*
X83261905Y-73866723D02*
X83214286Y-73676247D01*
X83214286Y-73676247D02*
X83214286Y-73533390D01*
X83214286Y-73533390D02*
X83261905Y-73342914D01*
X83261905Y-73342914D02*
X83309524Y-73247676D01*
X83309524Y-73247676D02*
X83404762Y-73152438D01*
X83404762Y-73152438D02*
X83547619Y-73104819D01*
X83547619Y-73104819D02*
X83642857Y-73104819D01*
X83642857Y-73104819D02*
X83785714Y-73152438D01*
X83785714Y-73152438D02*
X83833333Y-73200057D01*
X84785714Y-74104819D02*
X84214286Y-74104819D01*
X84500000Y-74104819D02*
X84500000Y-73104819D01*
X84500000Y-73104819D02*
X84404762Y-73247676D01*
X84404762Y-73247676D02*
X84309524Y-73342914D01*
X84309524Y-73342914D02*
X84214286Y-73390533D01*
X124874819Y-95209404D02*
X125684342Y-95209404D01*
X125684342Y-95209404D02*
X125779580Y-95161785D01*
X125779580Y-95161785D02*
X125827200Y-95114166D01*
X125827200Y-95114166D02*
X125874819Y-95018928D01*
X125874819Y-95018928D02*
X125874819Y-94828452D01*
X125874819Y-94828452D02*
X125827200Y-94733214D01*
X125827200Y-94733214D02*
X125779580Y-94685595D01*
X125779580Y-94685595D02*
X125684342Y-94637976D01*
X125684342Y-94637976D02*
X124874819Y-94637976D01*
X125874819Y-94114166D02*
X125874819Y-93923690D01*
X125874819Y-93923690D02*
X125827200Y-93828452D01*
X125827200Y-93828452D02*
X125779580Y-93780833D01*
X125779580Y-93780833D02*
X125636723Y-93685595D01*
X125636723Y-93685595D02*
X125446247Y-93637976D01*
X125446247Y-93637976D02*
X125065295Y-93637976D01*
X125065295Y-93637976D02*
X124970057Y-93685595D01*
X124970057Y-93685595D02*
X124922438Y-93733214D01*
X124922438Y-93733214D02*
X124874819Y-93828452D01*
X124874819Y-93828452D02*
X124874819Y-94018928D01*
X124874819Y-94018928D02*
X124922438Y-94114166D01*
X124922438Y-94114166D02*
X124970057Y-94161785D01*
X124970057Y-94161785D02*
X125065295Y-94209404D01*
X125065295Y-94209404D02*
X125303390Y-94209404D01*
X125303390Y-94209404D02*
X125398628Y-94161785D01*
X125398628Y-94161785D02*
X125446247Y-94114166D01*
X125446247Y-94114166D02*
X125493866Y-94018928D01*
X125493866Y-94018928D02*
X125493866Y-93828452D01*
X125493866Y-93828452D02*
X125446247Y-93733214D01*
X125446247Y-93733214D02*
X125398628Y-93685595D01*
X125398628Y-93685595D02*
X125303390Y-93637976D01*
X137634819Y-98692857D02*
X137158628Y-99026190D01*
X137634819Y-99264285D02*
X136634819Y-99264285D01*
X136634819Y-99264285D02*
X136634819Y-98883333D01*
X136634819Y-98883333D02*
X136682438Y-98788095D01*
X136682438Y-98788095D02*
X136730057Y-98740476D01*
X136730057Y-98740476D02*
X136825295Y-98692857D01*
X136825295Y-98692857D02*
X136968152Y-98692857D01*
X136968152Y-98692857D02*
X137063390Y-98740476D01*
X137063390Y-98740476D02*
X137111009Y-98788095D01*
X137111009Y-98788095D02*
X137158628Y-98883333D01*
X137158628Y-98883333D02*
X137158628Y-99264285D01*
X137634819Y-97740476D02*
X137634819Y-98311904D01*
X137634819Y-98026190D02*
X136634819Y-98026190D01*
X136634819Y-98026190D02*
X136777676Y-98121428D01*
X136777676Y-98121428D02*
X136872914Y-98216666D01*
X136872914Y-98216666D02*
X136920533Y-98311904D01*
X136634819Y-97121428D02*
X136634819Y-97026190D01*
X136634819Y-97026190D02*
X136682438Y-96930952D01*
X136682438Y-96930952D02*
X136730057Y-96883333D01*
X136730057Y-96883333D02*
X136825295Y-96835714D01*
X136825295Y-96835714D02*
X137015771Y-96788095D01*
X137015771Y-96788095D02*
X137253866Y-96788095D01*
X137253866Y-96788095D02*
X137444342Y-96835714D01*
X137444342Y-96835714D02*
X137539580Y-96883333D01*
X137539580Y-96883333D02*
X137587200Y-96930952D01*
X137587200Y-96930952D02*
X137634819Y-97026190D01*
X137634819Y-97026190D02*
X137634819Y-97121428D01*
X137634819Y-97121428D02*
X137587200Y-97216666D01*
X137587200Y-97216666D02*
X137539580Y-97264285D01*
X137539580Y-97264285D02*
X137444342Y-97311904D01*
X137444342Y-97311904D02*
X137253866Y-97359523D01*
X137253866Y-97359523D02*
X137015771Y-97359523D01*
X137015771Y-97359523D02*
X136825295Y-97311904D01*
X136825295Y-97311904D02*
X136730057Y-97264285D01*
X136730057Y-97264285D02*
X136682438Y-97216666D01*
X136682438Y-97216666D02*
X136634819Y-97121428D01*
D11*
X86957419Y-97770833D02*
X87671704Y-97770833D01*
X87671704Y-97770833D02*
X87814561Y-97818452D01*
X87814561Y-97818452D02*
X87909800Y-97913690D01*
X87909800Y-97913690D02*
X87957419Y-98056547D01*
X87957419Y-98056547D02*
X87957419Y-98151785D01*
X87052657Y-97342261D02*
X87005038Y-97294642D01*
X87005038Y-97294642D02*
X86957419Y-97199404D01*
X86957419Y-97199404D02*
X86957419Y-96961309D01*
X86957419Y-96961309D02*
X87005038Y-96866071D01*
X87005038Y-96866071D02*
X87052657Y-96818452D01*
X87052657Y-96818452D02*
X87147895Y-96770833D01*
X87147895Y-96770833D02*
X87243133Y-96770833D01*
X87243133Y-96770833D02*
X87385990Y-96818452D01*
X87385990Y-96818452D02*
X87957419Y-97389880D01*
X87957419Y-97389880D02*
X87957419Y-96770833D01*
D10*
X99634819Y-104404166D02*
X99158628Y-104737499D01*
X99634819Y-104975594D02*
X98634819Y-104975594D01*
X98634819Y-104975594D02*
X98634819Y-104594642D01*
X98634819Y-104594642D02*
X98682438Y-104499404D01*
X98682438Y-104499404D02*
X98730057Y-104451785D01*
X98730057Y-104451785D02*
X98825295Y-104404166D01*
X98825295Y-104404166D02*
X98968152Y-104404166D01*
X98968152Y-104404166D02*
X99063390Y-104451785D01*
X99063390Y-104451785D02*
X99111009Y-104499404D01*
X99111009Y-104499404D02*
X99158628Y-104594642D01*
X99158628Y-104594642D02*
X99158628Y-104975594D01*
X98730057Y-104023213D02*
X98682438Y-103975594D01*
X98682438Y-103975594D02*
X98634819Y-103880356D01*
X98634819Y-103880356D02*
X98634819Y-103642261D01*
X98634819Y-103642261D02*
X98682438Y-103547023D01*
X98682438Y-103547023D02*
X98730057Y-103499404D01*
X98730057Y-103499404D02*
X98825295Y-103451785D01*
X98825295Y-103451785D02*
X98920533Y-103451785D01*
X98920533Y-103451785D02*
X99063390Y-103499404D01*
X99063390Y-103499404D02*
X99634819Y-104070832D01*
X99634819Y-104070832D02*
X99634819Y-103451785D01*
X114884819Y-77548094D02*
X115694342Y-77548094D01*
X115694342Y-77548094D02*
X115789580Y-77500475D01*
X115789580Y-77500475D02*
X115837200Y-77452856D01*
X115837200Y-77452856D02*
X115884819Y-77357618D01*
X115884819Y-77357618D02*
X115884819Y-77167142D01*
X115884819Y-77167142D02*
X115837200Y-77071904D01*
X115837200Y-77071904D02*
X115789580Y-77024285D01*
X115789580Y-77024285D02*
X115694342Y-76976666D01*
X115694342Y-76976666D02*
X114884819Y-76976666D01*
X115884819Y-75976666D02*
X115884819Y-76548094D01*
X115884819Y-76262380D02*
X114884819Y-76262380D01*
X114884819Y-76262380D02*
X115027676Y-76357618D01*
X115027676Y-76357618D02*
X115122914Y-76452856D01*
X115122914Y-76452856D02*
X115170533Y-76548094D01*
X114884819Y-75357618D02*
X114884819Y-75262380D01*
X114884819Y-75262380D02*
X114932438Y-75167142D01*
X114932438Y-75167142D02*
X114980057Y-75119523D01*
X114980057Y-75119523D02*
X115075295Y-75071904D01*
X115075295Y-75071904D02*
X115265771Y-75024285D01*
X115265771Y-75024285D02*
X115503866Y-75024285D01*
X115503866Y-75024285D02*
X115694342Y-75071904D01*
X115694342Y-75071904D02*
X115789580Y-75119523D01*
X115789580Y-75119523D02*
X115837200Y-75167142D01*
X115837200Y-75167142D02*
X115884819Y-75262380D01*
X115884819Y-75262380D02*
X115884819Y-75357618D01*
X115884819Y-75357618D02*
X115837200Y-75452856D01*
X115837200Y-75452856D02*
X115789580Y-75500475D01*
X115789580Y-75500475D02*
X115694342Y-75548094D01*
X115694342Y-75548094D02*
X115503866Y-75595713D01*
X115503866Y-75595713D02*
X115265771Y-75595713D01*
X115265771Y-75595713D02*
X115075295Y-75548094D01*
X115075295Y-75548094D02*
X114980057Y-75500475D01*
X114980057Y-75500475D02*
X114932438Y-75452856D01*
X114932438Y-75452856D02*
X114884819Y-75357618D01*
X120459580Y-48604166D02*
X120507200Y-48651785D01*
X120507200Y-48651785D02*
X120554819Y-48794642D01*
X120554819Y-48794642D02*
X120554819Y-48889880D01*
X120554819Y-48889880D02*
X120507200Y-49032737D01*
X120507200Y-49032737D02*
X120411961Y-49127975D01*
X120411961Y-49127975D02*
X120316723Y-49175594D01*
X120316723Y-49175594D02*
X120126247Y-49223213D01*
X120126247Y-49223213D02*
X119983390Y-49223213D01*
X119983390Y-49223213D02*
X119792914Y-49175594D01*
X119792914Y-49175594D02*
X119697676Y-49127975D01*
X119697676Y-49127975D02*
X119602438Y-49032737D01*
X119602438Y-49032737D02*
X119554819Y-48889880D01*
X119554819Y-48889880D02*
X119554819Y-48794642D01*
X119554819Y-48794642D02*
X119602438Y-48651785D01*
X119602438Y-48651785D02*
X119650057Y-48604166D01*
X119983390Y-48032737D02*
X119935771Y-48127975D01*
X119935771Y-48127975D02*
X119888152Y-48175594D01*
X119888152Y-48175594D02*
X119792914Y-48223213D01*
X119792914Y-48223213D02*
X119745295Y-48223213D01*
X119745295Y-48223213D02*
X119650057Y-48175594D01*
X119650057Y-48175594D02*
X119602438Y-48127975D01*
X119602438Y-48127975D02*
X119554819Y-48032737D01*
X119554819Y-48032737D02*
X119554819Y-47842261D01*
X119554819Y-47842261D02*
X119602438Y-47747023D01*
X119602438Y-47747023D02*
X119650057Y-47699404D01*
X119650057Y-47699404D02*
X119745295Y-47651785D01*
X119745295Y-47651785D02*
X119792914Y-47651785D01*
X119792914Y-47651785D02*
X119888152Y-47699404D01*
X119888152Y-47699404D02*
X119935771Y-47747023D01*
X119935771Y-47747023D02*
X119983390Y-47842261D01*
X119983390Y-47842261D02*
X119983390Y-48032737D01*
X119983390Y-48032737D02*
X120031009Y-48127975D01*
X120031009Y-48127975D02*
X120078628Y-48175594D01*
X120078628Y-48175594D02*
X120173866Y-48223213D01*
X120173866Y-48223213D02*
X120364342Y-48223213D01*
X120364342Y-48223213D02*
X120459580Y-48175594D01*
X120459580Y-48175594D02*
X120507200Y-48127975D01*
X120507200Y-48127975D02*
X120554819Y-48032737D01*
X120554819Y-48032737D02*
X120554819Y-47842261D01*
X120554819Y-47842261D02*
X120507200Y-47747023D01*
X120507200Y-47747023D02*
X120459580Y-47699404D01*
X120459580Y-47699404D02*
X120364342Y-47651785D01*
X120364342Y-47651785D02*
X120173866Y-47651785D01*
X120173866Y-47651785D02*
X120078628Y-47699404D01*
X120078628Y-47699404D02*
X120031009Y-47747023D01*
X120031009Y-47747023D02*
X119983390Y-47842261D01*
X130633333Y-93024819D02*
X130300000Y-92548628D01*
X130061905Y-93024819D02*
X130061905Y-92024819D01*
X130061905Y-92024819D02*
X130442857Y-92024819D01*
X130442857Y-92024819D02*
X130538095Y-92072438D01*
X130538095Y-92072438D02*
X130585714Y-92120057D01*
X130585714Y-92120057D02*
X130633333Y-92215295D01*
X130633333Y-92215295D02*
X130633333Y-92358152D01*
X130633333Y-92358152D02*
X130585714Y-92453390D01*
X130585714Y-92453390D02*
X130538095Y-92501009D01*
X130538095Y-92501009D02*
X130442857Y-92548628D01*
X130442857Y-92548628D02*
X130061905Y-92548628D01*
X131109524Y-93024819D02*
X131300000Y-93024819D01*
X131300000Y-93024819D02*
X131395238Y-92977200D01*
X131395238Y-92977200D02*
X131442857Y-92929580D01*
X131442857Y-92929580D02*
X131538095Y-92786723D01*
X131538095Y-92786723D02*
X131585714Y-92596247D01*
X131585714Y-92596247D02*
X131585714Y-92215295D01*
X131585714Y-92215295D02*
X131538095Y-92120057D01*
X131538095Y-92120057D02*
X131490476Y-92072438D01*
X131490476Y-92072438D02*
X131395238Y-92024819D01*
X131395238Y-92024819D02*
X131204762Y-92024819D01*
X131204762Y-92024819D02*
X131109524Y-92072438D01*
X131109524Y-92072438D02*
X131061905Y-92120057D01*
X131061905Y-92120057D02*
X131014286Y-92215295D01*
X131014286Y-92215295D02*
X131014286Y-92453390D01*
X131014286Y-92453390D02*
X131061905Y-92548628D01*
X131061905Y-92548628D02*
X131109524Y-92596247D01*
X131109524Y-92596247D02*
X131204762Y-92643866D01*
X131204762Y-92643866D02*
X131395238Y-92643866D01*
X131395238Y-92643866D02*
X131490476Y-92596247D01*
X131490476Y-92596247D02*
X131538095Y-92548628D01*
X131538095Y-92548628D02*
X131585714Y-92453390D01*
X123784819Y-68333333D02*
X124499104Y-68333333D01*
X124499104Y-68333333D02*
X124641961Y-68380952D01*
X124641961Y-68380952D02*
X124737200Y-68476190D01*
X124737200Y-68476190D02*
X124784819Y-68619047D01*
X124784819Y-68619047D02*
X124784819Y-68714285D01*
X123784819Y-67428571D02*
X123784819Y-67619047D01*
X123784819Y-67619047D02*
X123832438Y-67714285D01*
X123832438Y-67714285D02*
X123880057Y-67761904D01*
X123880057Y-67761904D02*
X124022914Y-67857142D01*
X124022914Y-67857142D02*
X124213390Y-67904761D01*
X124213390Y-67904761D02*
X124594342Y-67904761D01*
X124594342Y-67904761D02*
X124689580Y-67857142D01*
X124689580Y-67857142D02*
X124737200Y-67809523D01*
X124737200Y-67809523D02*
X124784819Y-67714285D01*
X124784819Y-67714285D02*
X124784819Y-67523809D01*
X124784819Y-67523809D02*
X124737200Y-67428571D01*
X124737200Y-67428571D02*
X124689580Y-67380952D01*
X124689580Y-67380952D02*
X124594342Y-67333333D01*
X124594342Y-67333333D02*
X124356247Y-67333333D01*
X124356247Y-67333333D02*
X124261009Y-67380952D01*
X124261009Y-67380952D02*
X124213390Y-67428571D01*
X124213390Y-67428571D02*
X124165771Y-67523809D01*
X124165771Y-67523809D02*
X124165771Y-67714285D01*
X124165771Y-67714285D02*
X124213390Y-67809523D01*
X124213390Y-67809523D02*
X124261009Y-67857142D01*
X124261009Y-67857142D02*
X124356247Y-67904761D01*
X85524819Y-84616666D02*
X85048628Y-84949999D01*
X85524819Y-85188094D02*
X84524819Y-85188094D01*
X84524819Y-85188094D02*
X84524819Y-84807142D01*
X84524819Y-84807142D02*
X84572438Y-84711904D01*
X84572438Y-84711904D02*
X84620057Y-84664285D01*
X84620057Y-84664285D02*
X84715295Y-84616666D01*
X84715295Y-84616666D02*
X84858152Y-84616666D01*
X84858152Y-84616666D02*
X84953390Y-84664285D01*
X84953390Y-84664285D02*
X85001009Y-84711904D01*
X85001009Y-84711904D02*
X85048628Y-84807142D01*
X85048628Y-84807142D02*
X85048628Y-85188094D01*
X84524819Y-83711904D02*
X84524819Y-84188094D01*
X84524819Y-84188094D02*
X85001009Y-84235713D01*
X85001009Y-84235713D02*
X84953390Y-84188094D01*
X84953390Y-84188094D02*
X84905771Y-84092856D01*
X84905771Y-84092856D02*
X84905771Y-83854761D01*
X84905771Y-83854761D02*
X84953390Y-83759523D01*
X84953390Y-83759523D02*
X85001009Y-83711904D01*
X85001009Y-83711904D02*
X85096247Y-83664285D01*
X85096247Y-83664285D02*
X85334342Y-83664285D01*
X85334342Y-83664285D02*
X85429580Y-83711904D01*
X85429580Y-83711904D02*
X85477200Y-83759523D01*
X85477200Y-83759523D02*
X85524819Y-83854761D01*
X85524819Y-83854761D02*
X85524819Y-84092856D01*
X85524819Y-84092856D02*
X85477200Y-84188094D01*
X85477200Y-84188094D02*
X85429580Y-84235713D01*
X133709580Y-49142857D02*
X133757200Y-49190476D01*
X133757200Y-49190476D02*
X133804819Y-49333333D01*
X133804819Y-49333333D02*
X133804819Y-49428571D01*
X133804819Y-49428571D02*
X133757200Y-49571428D01*
X133757200Y-49571428D02*
X133661961Y-49666666D01*
X133661961Y-49666666D02*
X133566723Y-49714285D01*
X133566723Y-49714285D02*
X133376247Y-49761904D01*
X133376247Y-49761904D02*
X133233390Y-49761904D01*
X133233390Y-49761904D02*
X133042914Y-49714285D01*
X133042914Y-49714285D02*
X132947676Y-49666666D01*
X132947676Y-49666666D02*
X132852438Y-49571428D01*
X132852438Y-49571428D02*
X132804819Y-49428571D01*
X132804819Y-49428571D02*
X132804819Y-49333333D01*
X132804819Y-49333333D02*
X132852438Y-49190476D01*
X132852438Y-49190476D02*
X132900057Y-49142857D01*
X133804819Y-48190476D02*
X133804819Y-48761904D01*
X133804819Y-48476190D02*
X132804819Y-48476190D01*
X132804819Y-48476190D02*
X132947676Y-48571428D01*
X132947676Y-48571428D02*
X133042914Y-48666666D01*
X133042914Y-48666666D02*
X133090533Y-48761904D01*
X132804819Y-47571428D02*
X132804819Y-47476190D01*
X132804819Y-47476190D02*
X132852438Y-47380952D01*
X132852438Y-47380952D02*
X132900057Y-47333333D01*
X132900057Y-47333333D02*
X132995295Y-47285714D01*
X132995295Y-47285714D02*
X133185771Y-47238095D01*
X133185771Y-47238095D02*
X133423866Y-47238095D01*
X133423866Y-47238095D02*
X133614342Y-47285714D01*
X133614342Y-47285714D02*
X133709580Y-47333333D01*
X133709580Y-47333333D02*
X133757200Y-47380952D01*
X133757200Y-47380952D02*
X133804819Y-47476190D01*
X133804819Y-47476190D02*
X133804819Y-47571428D01*
X133804819Y-47571428D02*
X133757200Y-47666666D01*
X133757200Y-47666666D02*
X133709580Y-47714285D01*
X133709580Y-47714285D02*
X133614342Y-47761904D01*
X133614342Y-47761904D02*
X133423866Y-47809523D01*
X133423866Y-47809523D02*
X133185771Y-47809523D01*
X133185771Y-47809523D02*
X132995295Y-47761904D01*
X132995295Y-47761904D02*
X132900057Y-47714285D01*
X132900057Y-47714285D02*
X132852438Y-47666666D01*
X132852438Y-47666666D02*
X132804819Y-47571428D01*
X81583333Y-65309580D02*
X81535714Y-65357200D01*
X81535714Y-65357200D02*
X81392857Y-65404819D01*
X81392857Y-65404819D02*
X81297619Y-65404819D01*
X81297619Y-65404819D02*
X81154762Y-65357200D01*
X81154762Y-65357200D02*
X81059524Y-65261961D01*
X81059524Y-65261961D02*
X81011905Y-65166723D01*
X81011905Y-65166723D02*
X80964286Y-64976247D01*
X80964286Y-64976247D02*
X80964286Y-64833390D01*
X80964286Y-64833390D02*
X81011905Y-64642914D01*
X81011905Y-64642914D02*
X81059524Y-64547676D01*
X81059524Y-64547676D02*
X81154762Y-64452438D01*
X81154762Y-64452438D02*
X81297619Y-64404819D01*
X81297619Y-64404819D02*
X81392857Y-64404819D01*
X81392857Y-64404819D02*
X81535714Y-64452438D01*
X81535714Y-64452438D02*
X81583333Y-64500057D01*
X81964286Y-64500057D02*
X82011905Y-64452438D01*
X82011905Y-64452438D02*
X82107143Y-64404819D01*
X82107143Y-64404819D02*
X82345238Y-64404819D01*
X82345238Y-64404819D02*
X82440476Y-64452438D01*
X82440476Y-64452438D02*
X82488095Y-64500057D01*
X82488095Y-64500057D02*
X82535714Y-64595295D01*
X82535714Y-64595295D02*
X82535714Y-64690533D01*
X82535714Y-64690533D02*
X82488095Y-64833390D01*
X82488095Y-64833390D02*
X81916667Y-65404819D01*
X81916667Y-65404819D02*
X82535714Y-65404819D01*
X94134819Y-104404166D02*
X93658628Y-104737499D01*
X94134819Y-104975594D02*
X93134819Y-104975594D01*
X93134819Y-104975594D02*
X93134819Y-104594642D01*
X93134819Y-104594642D02*
X93182438Y-104499404D01*
X93182438Y-104499404D02*
X93230057Y-104451785D01*
X93230057Y-104451785D02*
X93325295Y-104404166D01*
X93325295Y-104404166D02*
X93468152Y-104404166D01*
X93468152Y-104404166D02*
X93563390Y-104451785D01*
X93563390Y-104451785D02*
X93611009Y-104499404D01*
X93611009Y-104499404D02*
X93658628Y-104594642D01*
X93658628Y-104594642D02*
X93658628Y-104975594D01*
X93134819Y-104070832D02*
X93134819Y-103451785D01*
X93134819Y-103451785D02*
X93515771Y-103785118D01*
X93515771Y-103785118D02*
X93515771Y-103642261D01*
X93515771Y-103642261D02*
X93563390Y-103547023D01*
X93563390Y-103547023D02*
X93611009Y-103499404D01*
X93611009Y-103499404D02*
X93706247Y-103451785D01*
X93706247Y-103451785D02*
X93944342Y-103451785D01*
X93944342Y-103451785D02*
X94039580Y-103499404D01*
X94039580Y-103499404D02*
X94087200Y-103547023D01*
X94087200Y-103547023D02*
X94134819Y-103642261D01*
X94134819Y-103642261D02*
X94134819Y-103927975D01*
X94134819Y-103927975D02*
X94087200Y-104023213D01*
X94087200Y-104023213D02*
X94039580Y-104070832D01*
X135809819Y-68333333D02*
X136524104Y-68333333D01*
X136524104Y-68333333D02*
X136666961Y-68380952D01*
X136666961Y-68380952D02*
X136762200Y-68476190D01*
X136762200Y-68476190D02*
X136809819Y-68619047D01*
X136809819Y-68619047D02*
X136809819Y-68714285D01*
X135809819Y-67380952D02*
X135809819Y-67857142D01*
X135809819Y-67857142D02*
X136286009Y-67904761D01*
X136286009Y-67904761D02*
X136238390Y-67857142D01*
X136238390Y-67857142D02*
X136190771Y-67761904D01*
X136190771Y-67761904D02*
X136190771Y-67523809D01*
X136190771Y-67523809D02*
X136238390Y-67428571D01*
X136238390Y-67428571D02*
X136286009Y-67380952D01*
X136286009Y-67380952D02*
X136381247Y-67333333D01*
X136381247Y-67333333D02*
X136619342Y-67333333D01*
X136619342Y-67333333D02*
X136714580Y-67380952D01*
X136714580Y-67380952D02*
X136762200Y-67428571D01*
X136762200Y-67428571D02*
X136809819Y-67523809D01*
X136809819Y-67523809D02*
X136809819Y-67761904D01*
X136809819Y-67761904D02*
X136762200Y-67857142D01*
X136762200Y-67857142D02*
X136714580Y-67904761D01*
X106916666Y-52668099D02*
X107059523Y-52715718D01*
X107059523Y-52715718D02*
X107297618Y-52715718D01*
X107297618Y-52715718D02*
X107392856Y-52668099D01*
X107392856Y-52668099D02*
X107440475Y-52620479D01*
X107440475Y-52620479D02*
X107488094Y-52525241D01*
X107488094Y-52525241D02*
X107488094Y-52430003D01*
X107488094Y-52430003D02*
X107440475Y-52334765D01*
X107440475Y-52334765D02*
X107392856Y-52287146D01*
X107392856Y-52287146D02*
X107297618Y-52239527D01*
X107297618Y-52239527D02*
X107107142Y-52191908D01*
X107107142Y-52191908D02*
X107011904Y-52144289D01*
X107011904Y-52144289D02*
X106964285Y-52096670D01*
X106964285Y-52096670D02*
X106916666Y-52001432D01*
X106916666Y-52001432D02*
X106916666Y-51906194D01*
X106916666Y-51906194D02*
X106964285Y-51810956D01*
X106964285Y-51810956D02*
X107011904Y-51763337D01*
X107011904Y-51763337D02*
X107107142Y-51715718D01*
X107107142Y-51715718D02*
X107345237Y-51715718D01*
X107345237Y-51715718D02*
X107488094Y-51763337D01*
X107821428Y-51715718D02*
X108059523Y-52715718D01*
X108059523Y-52715718D02*
X108249999Y-52001432D01*
X108249999Y-52001432D02*
X108440475Y-52715718D01*
X108440475Y-52715718D02*
X108678571Y-51715718D01*
X109583332Y-52715718D02*
X109011904Y-52715718D01*
X109297618Y-52715718D02*
X109297618Y-51715718D01*
X109297618Y-51715718D02*
X109202380Y-51858575D01*
X109202380Y-51858575D02*
X109107142Y-51953813D01*
X109107142Y-51953813D02*
X109011904Y-52001432D01*
X113040000Y-48454819D02*
X113040000Y-48692914D01*
X112801905Y-48597676D02*
X113040000Y-48692914D01*
X113040000Y-48692914D02*
X113278095Y-48597676D01*
X112897143Y-48883390D02*
X113040000Y-48692914D01*
X113040000Y-48692914D02*
X113182857Y-48883390D01*
X109434819Y-104366666D02*
X108958628Y-104699999D01*
X109434819Y-104938094D02*
X108434819Y-104938094D01*
X108434819Y-104938094D02*
X108434819Y-104557142D01*
X108434819Y-104557142D02*
X108482438Y-104461904D01*
X108482438Y-104461904D02*
X108530057Y-104414285D01*
X108530057Y-104414285D02*
X108625295Y-104366666D01*
X108625295Y-104366666D02*
X108768152Y-104366666D01*
X108768152Y-104366666D02*
X108863390Y-104414285D01*
X108863390Y-104414285D02*
X108911009Y-104461904D01*
X108911009Y-104461904D02*
X108958628Y-104557142D01*
X108958628Y-104557142D02*
X108958628Y-104938094D01*
X108434819Y-103509523D02*
X108434819Y-103699999D01*
X108434819Y-103699999D02*
X108482438Y-103795237D01*
X108482438Y-103795237D02*
X108530057Y-103842856D01*
X108530057Y-103842856D02*
X108672914Y-103938094D01*
X108672914Y-103938094D02*
X108863390Y-103985713D01*
X108863390Y-103985713D02*
X109244342Y-103985713D01*
X109244342Y-103985713D02*
X109339580Y-103938094D01*
X109339580Y-103938094D02*
X109387200Y-103890475D01*
X109387200Y-103890475D02*
X109434819Y-103795237D01*
X109434819Y-103795237D02*
X109434819Y-103604761D01*
X109434819Y-103604761D02*
X109387200Y-103509523D01*
X109387200Y-103509523D02*
X109339580Y-103461904D01*
X109339580Y-103461904D02*
X109244342Y-103414285D01*
X109244342Y-103414285D02*
X109006247Y-103414285D01*
X109006247Y-103414285D02*
X108911009Y-103461904D01*
X108911009Y-103461904D02*
X108863390Y-103509523D01*
X108863390Y-103509523D02*
X108815771Y-103604761D01*
X108815771Y-103604761D02*
X108815771Y-103795237D01*
X108815771Y-103795237D02*
X108863390Y-103890475D01*
X108863390Y-103890475D02*
X108911009Y-103938094D01*
X108911009Y-103938094D02*
X109006247Y-103985713D01*
X104634819Y-104404166D02*
X104158628Y-104737499D01*
X104634819Y-104975594D02*
X103634819Y-104975594D01*
X103634819Y-104975594D02*
X103634819Y-104594642D01*
X103634819Y-104594642D02*
X103682438Y-104499404D01*
X103682438Y-104499404D02*
X103730057Y-104451785D01*
X103730057Y-104451785D02*
X103825295Y-104404166D01*
X103825295Y-104404166D02*
X103968152Y-104404166D01*
X103968152Y-104404166D02*
X104063390Y-104451785D01*
X104063390Y-104451785D02*
X104111009Y-104499404D01*
X104111009Y-104499404D02*
X104158628Y-104594642D01*
X104158628Y-104594642D02*
X104158628Y-104975594D01*
X104634819Y-103451785D02*
X104634819Y-104023213D01*
X104634819Y-103737499D02*
X103634819Y-103737499D01*
X103634819Y-103737499D02*
X103777676Y-103832737D01*
X103777676Y-103832737D02*
X103872914Y-103927975D01*
X103872914Y-103927975D02*
X103920533Y-104023213D01*
X81024819Y-84616666D02*
X80548628Y-84949999D01*
X81024819Y-85188094D02*
X80024819Y-85188094D01*
X80024819Y-85188094D02*
X80024819Y-84807142D01*
X80024819Y-84807142D02*
X80072438Y-84711904D01*
X80072438Y-84711904D02*
X80120057Y-84664285D01*
X80120057Y-84664285D02*
X80215295Y-84616666D01*
X80215295Y-84616666D02*
X80358152Y-84616666D01*
X80358152Y-84616666D02*
X80453390Y-84664285D01*
X80453390Y-84664285D02*
X80501009Y-84711904D01*
X80501009Y-84711904D02*
X80548628Y-84807142D01*
X80548628Y-84807142D02*
X80548628Y-85188094D01*
X80358152Y-83759523D02*
X81024819Y-83759523D01*
X79977200Y-83997618D02*
X80691485Y-84235713D01*
X80691485Y-84235713D02*
X80691485Y-83616666D01*
X101384819Y-75192857D02*
X100908628Y-75526190D01*
X101384819Y-75764285D02*
X100384819Y-75764285D01*
X100384819Y-75764285D02*
X100384819Y-75383333D01*
X100384819Y-75383333D02*
X100432438Y-75288095D01*
X100432438Y-75288095D02*
X100480057Y-75240476D01*
X100480057Y-75240476D02*
X100575295Y-75192857D01*
X100575295Y-75192857D02*
X100718152Y-75192857D01*
X100718152Y-75192857D02*
X100813390Y-75240476D01*
X100813390Y-75240476D02*
X100861009Y-75288095D01*
X100861009Y-75288095D02*
X100908628Y-75383333D01*
X100908628Y-75383333D02*
X100908628Y-75764285D01*
X101384819Y-74240476D02*
X101384819Y-74811904D01*
X101384819Y-74526190D02*
X100384819Y-74526190D01*
X100384819Y-74526190D02*
X100527676Y-74621428D01*
X100527676Y-74621428D02*
X100622914Y-74716666D01*
X100622914Y-74716666D02*
X100670533Y-74811904D01*
X100718152Y-73383333D02*
X101384819Y-73383333D01*
X100337200Y-73621428D02*
X101051485Y-73859523D01*
X101051485Y-73859523D02*
X101051485Y-73240476D01*
X123834819Y-106516666D02*
X123358628Y-106849999D01*
X123834819Y-107088094D02*
X122834819Y-107088094D01*
X122834819Y-107088094D02*
X122834819Y-106707142D01*
X122834819Y-106707142D02*
X122882438Y-106611904D01*
X122882438Y-106611904D02*
X122930057Y-106564285D01*
X122930057Y-106564285D02*
X123025295Y-106516666D01*
X123025295Y-106516666D02*
X123168152Y-106516666D01*
X123168152Y-106516666D02*
X123263390Y-106564285D01*
X123263390Y-106564285D02*
X123311009Y-106611904D01*
X123311009Y-106611904D02*
X123358628Y-106707142D01*
X123358628Y-106707142D02*
X123358628Y-107088094D01*
X122834819Y-106183332D02*
X122834819Y-105516666D01*
X122834819Y-105516666D02*
X123834819Y-105945237D01*
X81448095Y-78724819D02*
X81448095Y-79534342D01*
X81448095Y-79534342D02*
X81495714Y-79629580D01*
X81495714Y-79629580D02*
X81543333Y-79677200D01*
X81543333Y-79677200D02*
X81638571Y-79724819D01*
X81638571Y-79724819D02*
X81829047Y-79724819D01*
X81829047Y-79724819D02*
X81924285Y-79677200D01*
X81924285Y-79677200D02*
X81971904Y-79629580D01*
X81971904Y-79629580D02*
X82019523Y-79534342D01*
X82019523Y-79534342D02*
X82019523Y-78724819D01*
X82638571Y-79153390D02*
X82543333Y-79105771D01*
X82543333Y-79105771D02*
X82495714Y-79058152D01*
X82495714Y-79058152D02*
X82448095Y-78962914D01*
X82448095Y-78962914D02*
X82448095Y-78915295D01*
X82448095Y-78915295D02*
X82495714Y-78820057D01*
X82495714Y-78820057D02*
X82543333Y-78772438D01*
X82543333Y-78772438D02*
X82638571Y-78724819D01*
X82638571Y-78724819D02*
X82829047Y-78724819D01*
X82829047Y-78724819D02*
X82924285Y-78772438D01*
X82924285Y-78772438D02*
X82971904Y-78820057D01*
X82971904Y-78820057D02*
X83019523Y-78915295D01*
X83019523Y-78915295D02*
X83019523Y-78962914D01*
X83019523Y-78962914D02*
X82971904Y-79058152D01*
X82971904Y-79058152D02*
X82924285Y-79105771D01*
X82924285Y-79105771D02*
X82829047Y-79153390D01*
X82829047Y-79153390D02*
X82638571Y-79153390D01*
X82638571Y-79153390D02*
X82543333Y-79201009D01*
X82543333Y-79201009D02*
X82495714Y-79248628D01*
X82495714Y-79248628D02*
X82448095Y-79343866D01*
X82448095Y-79343866D02*
X82448095Y-79534342D01*
X82448095Y-79534342D02*
X82495714Y-79629580D01*
X82495714Y-79629580D02*
X82543333Y-79677200D01*
X82543333Y-79677200D02*
X82638571Y-79724819D01*
X82638571Y-79724819D02*
X82829047Y-79724819D01*
X82829047Y-79724819D02*
X82924285Y-79677200D01*
X82924285Y-79677200D02*
X82971904Y-79629580D01*
X82971904Y-79629580D02*
X83019523Y-79534342D01*
X83019523Y-79534342D02*
X83019523Y-79343866D01*
X83019523Y-79343866D02*
X82971904Y-79248628D01*
X82971904Y-79248628D02*
X82924285Y-79201009D01*
X82924285Y-79201009D02*
X82829047Y-79153390D01*
X138209580Y-74205357D02*
X138257200Y-74252976D01*
X138257200Y-74252976D02*
X138304819Y-74395833D01*
X138304819Y-74395833D02*
X138304819Y-74491071D01*
X138304819Y-74491071D02*
X138257200Y-74633928D01*
X138257200Y-74633928D02*
X138161961Y-74729166D01*
X138161961Y-74729166D02*
X138066723Y-74776785D01*
X138066723Y-74776785D02*
X137876247Y-74824404D01*
X137876247Y-74824404D02*
X137733390Y-74824404D01*
X137733390Y-74824404D02*
X137542914Y-74776785D01*
X137542914Y-74776785D02*
X137447676Y-74729166D01*
X137447676Y-74729166D02*
X137352438Y-74633928D01*
X137352438Y-74633928D02*
X137304819Y-74491071D01*
X137304819Y-74491071D02*
X137304819Y-74395833D01*
X137304819Y-74395833D02*
X137352438Y-74252976D01*
X137352438Y-74252976D02*
X137400057Y-74205357D01*
X138304819Y-73252976D02*
X138304819Y-73824404D01*
X138304819Y-73538690D02*
X137304819Y-73538690D01*
X137304819Y-73538690D02*
X137447676Y-73633928D01*
X137447676Y-73633928D02*
X137542914Y-73729166D01*
X137542914Y-73729166D02*
X137590533Y-73824404D01*
X137400057Y-72872023D02*
X137352438Y-72824404D01*
X137352438Y-72824404D02*
X137304819Y-72729166D01*
X137304819Y-72729166D02*
X137304819Y-72491071D01*
X137304819Y-72491071D02*
X137352438Y-72395833D01*
X137352438Y-72395833D02*
X137400057Y-72348214D01*
X137400057Y-72348214D02*
X137495295Y-72300595D01*
X137495295Y-72300595D02*
X137590533Y-72300595D01*
X137590533Y-72300595D02*
X137733390Y-72348214D01*
X137733390Y-72348214D02*
X138304819Y-72919642D01*
X138304819Y-72919642D02*
X138304819Y-72300595D01*
X109771566Y-77454819D02*
X109771566Y-78169104D01*
X109771566Y-78169104D02*
X109723947Y-78311961D01*
X109723947Y-78311961D02*
X109628709Y-78407200D01*
X109628709Y-78407200D02*
X109485852Y-78454819D01*
X109485852Y-78454819D02*
X109390614Y-78454819D01*
X110771566Y-78454819D02*
X110200138Y-78454819D01*
X110485852Y-78454819D02*
X110485852Y-77454819D01*
X110485852Y-77454819D02*
X110390614Y-77597676D01*
X110390614Y-77597676D02*
X110295376Y-77692914D01*
X110295376Y-77692914D02*
X110200138Y-77740533D01*
X131270833Y-104459580D02*
X131223214Y-104507200D01*
X131223214Y-104507200D02*
X131080357Y-104554819D01*
X131080357Y-104554819D02*
X130985119Y-104554819D01*
X130985119Y-104554819D02*
X130842262Y-104507200D01*
X130842262Y-104507200D02*
X130747024Y-104411961D01*
X130747024Y-104411961D02*
X130699405Y-104316723D01*
X130699405Y-104316723D02*
X130651786Y-104126247D01*
X130651786Y-104126247D02*
X130651786Y-103983390D01*
X130651786Y-103983390D02*
X130699405Y-103792914D01*
X130699405Y-103792914D02*
X130747024Y-103697676D01*
X130747024Y-103697676D02*
X130842262Y-103602438D01*
X130842262Y-103602438D02*
X130985119Y-103554819D01*
X130985119Y-103554819D02*
X131080357Y-103554819D01*
X131080357Y-103554819D02*
X131223214Y-103602438D01*
X131223214Y-103602438D02*
X131270833Y-103650057D01*
X132175595Y-103554819D02*
X131699405Y-103554819D01*
X131699405Y-103554819D02*
X131651786Y-104031009D01*
X131651786Y-104031009D02*
X131699405Y-103983390D01*
X131699405Y-103983390D02*
X131794643Y-103935771D01*
X131794643Y-103935771D02*
X132032738Y-103935771D01*
X132032738Y-103935771D02*
X132127976Y-103983390D01*
X132127976Y-103983390D02*
X132175595Y-104031009D01*
X132175595Y-104031009D02*
X132223214Y-104126247D01*
X132223214Y-104126247D02*
X132223214Y-104364342D01*
X132223214Y-104364342D02*
X132175595Y-104459580D01*
X132175595Y-104459580D02*
X132127976Y-104507200D01*
X132127976Y-104507200D02*
X132032738Y-104554819D01*
X132032738Y-104554819D02*
X131794643Y-104554819D01*
X131794643Y-104554819D02*
X131699405Y-104507200D01*
X131699405Y-104507200D02*
X131651786Y-104459580D01*
X140916666Y-52668099D02*
X141059523Y-52715718D01*
X141059523Y-52715718D02*
X141297618Y-52715718D01*
X141297618Y-52715718D02*
X141392856Y-52668099D01*
X141392856Y-52668099D02*
X141440475Y-52620479D01*
X141440475Y-52620479D02*
X141488094Y-52525241D01*
X141488094Y-52525241D02*
X141488094Y-52430003D01*
X141488094Y-52430003D02*
X141440475Y-52334765D01*
X141440475Y-52334765D02*
X141392856Y-52287146D01*
X141392856Y-52287146D02*
X141297618Y-52239527D01*
X141297618Y-52239527D02*
X141107142Y-52191908D01*
X141107142Y-52191908D02*
X141011904Y-52144289D01*
X141011904Y-52144289D02*
X140964285Y-52096670D01*
X140964285Y-52096670D02*
X140916666Y-52001432D01*
X140916666Y-52001432D02*
X140916666Y-51906194D01*
X140916666Y-51906194D02*
X140964285Y-51810956D01*
X140964285Y-51810956D02*
X141011904Y-51763337D01*
X141011904Y-51763337D02*
X141107142Y-51715718D01*
X141107142Y-51715718D02*
X141345237Y-51715718D01*
X141345237Y-51715718D02*
X141488094Y-51763337D01*
X141821428Y-51715718D02*
X142059523Y-52715718D01*
X142059523Y-52715718D02*
X142249999Y-52001432D01*
X142249999Y-52001432D02*
X142440475Y-52715718D01*
X142440475Y-52715718D02*
X142678571Y-51715718D01*
X143011904Y-51810956D02*
X143059523Y-51763337D01*
X143059523Y-51763337D02*
X143154761Y-51715718D01*
X143154761Y-51715718D02*
X143392856Y-51715718D01*
X143392856Y-51715718D02*
X143488094Y-51763337D01*
X143488094Y-51763337D02*
X143535713Y-51810956D01*
X143535713Y-51810956D02*
X143583332Y-51906194D01*
X143583332Y-51906194D02*
X143583332Y-52001432D01*
X143583332Y-52001432D02*
X143535713Y-52144289D01*
X143535713Y-52144289D02*
X142964285Y-52715718D01*
X142964285Y-52715718D02*
X143583332Y-52715718D01*
X137488094Y-52715718D02*
X136916666Y-52715718D01*
X137202380Y-52715718D02*
X137202380Y-51715718D01*
X137202380Y-51715718D02*
X137107142Y-51858575D01*
X137107142Y-51858575D02*
X137011904Y-51953813D01*
X137011904Y-51953813D02*
X136916666Y-52001432D01*
X137916666Y-52334765D02*
X138678571Y-52334765D01*
X139678570Y-52715718D02*
X139107142Y-52715718D01*
X139392856Y-52715718D02*
X139392856Y-51715718D01*
X139392856Y-51715718D02*
X139297618Y-51858575D01*
X139297618Y-51858575D02*
X139202380Y-51953813D01*
X139202380Y-51953813D02*
X139107142Y-52001432D01*
X140249999Y-52144289D02*
X140154761Y-52096670D01*
X140154761Y-52096670D02*
X140107142Y-52049051D01*
X140107142Y-52049051D02*
X140059523Y-51953813D01*
X140059523Y-51953813D02*
X140059523Y-51906194D01*
X140059523Y-51906194D02*
X140107142Y-51810956D01*
X140107142Y-51810956D02*
X140154761Y-51763337D01*
X140154761Y-51763337D02*
X140249999Y-51715718D01*
X140249999Y-51715718D02*
X140440475Y-51715718D01*
X140440475Y-51715718D02*
X140535713Y-51763337D01*
X140535713Y-51763337D02*
X140583332Y-51810956D01*
X140583332Y-51810956D02*
X140630951Y-51906194D01*
X140630951Y-51906194D02*
X140630951Y-51953813D01*
X140630951Y-51953813D02*
X140583332Y-52049051D01*
X140583332Y-52049051D02*
X140535713Y-52096670D01*
X140535713Y-52096670D02*
X140440475Y-52144289D01*
X140440475Y-52144289D02*
X140249999Y-52144289D01*
X140249999Y-52144289D02*
X140154761Y-52191908D01*
X140154761Y-52191908D02*
X140107142Y-52239527D01*
X140107142Y-52239527D02*
X140059523Y-52334765D01*
X140059523Y-52334765D02*
X140059523Y-52525241D01*
X140059523Y-52525241D02*
X140107142Y-52620479D01*
X140107142Y-52620479D02*
X140154761Y-52668099D01*
X140154761Y-52668099D02*
X140249999Y-52715718D01*
X140249999Y-52715718D02*
X140440475Y-52715718D01*
X140440475Y-52715718D02*
X140535713Y-52668099D01*
X140535713Y-52668099D02*
X140583332Y-52620479D01*
X140583332Y-52620479D02*
X140630951Y-52525241D01*
X140630951Y-52525241D02*
X140630951Y-52334765D01*
X140630951Y-52334765D02*
X140583332Y-52239527D01*
X140583332Y-52239527D02*
X140535713Y-52191908D01*
X140535713Y-52191908D02*
X140440475Y-52144289D01*
X141011904Y-51810956D02*
X141059523Y-51763337D01*
X141059523Y-51763337D02*
X141154761Y-51715718D01*
X141154761Y-51715718D02*
X141392856Y-51715718D01*
X141392856Y-51715718D02*
X141488094Y-51763337D01*
X141488094Y-51763337D02*
X141535713Y-51810956D01*
X141535713Y-51810956D02*
X141583332Y-51906194D01*
X141583332Y-51906194D02*
X141583332Y-52001432D01*
X141583332Y-52001432D02*
X141535713Y-52144289D01*
X141535713Y-52144289D02*
X140964285Y-52715718D01*
X140964285Y-52715718D02*
X141583332Y-52715718D01*
X142488094Y-51715718D02*
X142011904Y-51715718D01*
X142011904Y-51715718D02*
X141964285Y-52191908D01*
X141964285Y-52191908D02*
X142011904Y-52144289D01*
X142011904Y-52144289D02*
X142107142Y-52096670D01*
X142107142Y-52096670D02*
X142345237Y-52096670D01*
X142345237Y-52096670D02*
X142440475Y-52144289D01*
X142440475Y-52144289D02*
X142488094Y-52191908D01*
X142488094Y-52191908D02*
X142535713Y-52287146D01*
X142535713Y-52287146D02*
X142535713Y-52525241D01*
X142535713Y-52525241D02*
X142488094Y-52620479D01*
X142488094Y-52620479D02*
X142440475Y-52668099D01*
X142440475Y-52668099D02*
X142345237Y-52715718D01*
X142345237Y-52715718D02*
X142107142Y-52715718D01*
X142107142Y-52715718D02*
X142011904Y-52668099D01*
X142011904Y-52668099D02*
X141964285Y-52620479D01*
X143154761Y-51715718D02*
X143249999Y-51715718D01*
X143249999Y-51715718D02*
X143345237Y-51763337D01*
X143345237Y-51763337D02*
X143392856Y-51810956D01*
X143392856Y-51810956D02*
X143440475Y-51906194D01*
X143440475Y-51906194D02*
X143488094Y-52096670D01*
X143488094Y-52096670D02*
X143488094Y-52334765D01*
X143488094Y-52334765D02*
X143440475Y-52525241D01*
X143440475Y-52525241D02*
X143392856Y-52620479D01*
X143392856Y-52620479D02*
X143345237Y-52668099D01*
X143345237Y-52668099D02*
X143249999Y-52715718D01*
X143249999Y-52715718D02*
X143154761Y-52715718D01*
X143154761Y-52715718D02*
X143059523Y-52668099D01*
X143059523Y-52668099D02*
X143011904Y-52620479D01*
X143011904Y-52620479D02*
X142964285Y-52525241D01*
X142964285Y-52525241D02*
X142916666Y-52334765D01*
X142916666Y-52334765D02*
X142916666Y-52096670D01*
X142916666Y-52096670D02*
X142964285Y-51906194D01*
X142964285Y-51906194D02*
X143011904Y-51810956D01*
X143011904Y-51810956D02*
X143059523Y-51763337D01*
X143059523Y-51763337D02*
X143154761Y-51715718D01*
X143869047Y-51810956D02*
X143916666Y-51763337D01*
X143916666Y-51763337D02*
X144011904Y-51715718D01*
X144011904Y-51715718D02*
X144249999Y-51715718D01*
X144249999Y-51715718D02*
X144345237Y-51763337D01*
X144345237Y-51763337D02*
X144392856Y-51810956D01*
X144392856Y-51810956D02*
X144440475Y-51906194D01*
X144440475Y-51906194D02*
X144440475Y-52001432D01*
X144440475Y-52001432D02*
X144392856Y-52144289D01*
X144392856Y-52144289D02*
X143821428Y-52715718D01*
X143821428Y-52715718D02*
X144440475Y-52715718D01*
X144773809Y-51715718D02*
X145440475Y-51715718D01*
X145440475Y-51715718D02*
X145011904Y-52715718D01*
X145821428Y-52334765D02*
X146583333Y-52334765D01*
X147583332Y-52715718D02*
X147011904Y-52715718D01*
X147297618Y-52715718D02*
X147297618Y-51715718D01*
X147297618Y-51715718D02*
X147202380Y-51858575D01*
X147202380Y-51858575D02*
X147107142Y-51953813D01*
X147107142Y-51953813D02*
X147011904Y-52001432D01*
X147040000Y-48454819D02*
X147040000Y-48692914D01*
X146801905Y-48597676D02*
X147040000Y-48692914D01*
X147040000Y-48692914D02*
X147278095Y-48597676D01*
X146897143Y-48883390D02*
X147040000Y-48692914D01*
X147040000Y-48692914D02*
X147182857Y-48883390D01*
X131283333Y-109274819D02*
X130950000Y-108798628D01*
X130711905Y-109274819D02*
X130711905Y-108274819D01*
X130711905Y-108274819D02*
X131092857Y-108274819D01*
X131092857Y-108274819D02*
X131188095Y-108322438D01*
X131188095Y-108322438D02*
X131235714Y-108370057D01*
X131235714Y-108370057D02*
X131283333Y-108465295D01*
X131283333Y-108465295D02*
X131283333Y-108608152D01*
X131283333Y-108608152D02*
X131235714Y-108703390D01*
X131235714Y-108703390D02*
X131188095Y-108751009D01*
X131188095Y-108751009D02*
X131092857Y-108798628D01*
X131092857Y-108798628D02*
X130711905Y-108798628D01*
X131854762Y-108703390D02*
X131759524Y-108655771D01*
X131759524Y-108655771D02*
X131711905Y-108608152D01*
X131711905Y-108608152D02*
X131664286Y-108512914D01*
X131664286Y-108512914D02*
X131664286Y-108465295D01*
X131664286Y-108465295D02*
X131711905Y-108370057D01*
X131711905Y-108370057D02*
X131759524Y-108322438D01*
X131759524Y-108322438D02*
X131854762Y-108274819D01*
X131854762Y-108274819D02*
X132045238Y-108274819D01*
X132045238Y-108274819D02*
X132140476Y-108322438D01*
X132140476Y-108322438D02*
X132188095Y-108370057D01*
X132188095Y-108370057D02*
X132235714Y-108465295D01*
X132235714Y-108465295D02*
X132235714Y-108512914D01*
X132235714Y-108512914D02*
X132188095Y-108608152D01*
X132188095Y-108608152D02*
X132140476Y-108655771D01*
X132140476Y-108655771D02*
X132045238Y-108703390D01*
X132045238Y-108703390D02*
X131854762Y-108703390D01*
X131854762Y-108703390D02*
X131759524Y-108751009D01*
X131759524Y-108751009D02*
X131711905Y-108798628D01*
X131711905Y-108798628D02*
X131664286Y-108893866D01*
X131664286Y-108893866D02*
X131664286Y-109084342D01*
X131664286Y-109084342D02*
X131711905Y-109179580D01*
X131711905Y-109179580D02*
X131759524Y-109227200D01*
X131759524Y-109227200D02*
X131854762Y-109274819D01*
X131854762Y-109274819D02*
X132045238Y-109274819D01*
X132045238Y-109274819D02*
X132140476Y-109227200D01*
X132140476Y-109227200D02*
X132188095Y-109179580D01*
X132188095Y-109179580D02*
X132235714Y-109084342D01*
X132235714Y-109084342D02*
X132235714Y-108893866D01*
X132235714Y-108893866D02*
X132188095Y-108798628D01*
X132188095Y-108798628D02*
X132140476Y-108751009D01*
X132140476Y-108751009D02*
X132045238Y-108703390D01*
X136384819Y-57392857D02*
X135908628Y-57726190D01*
X136384819Y-57964285D02*
X135384819Y-57964285D01*
X135384819Y-57964285D02*
X135384819Y-57583333D01*
X135384819Y-57583333D02*
X135432438Y-57488095D01*
X135432438Y-57488095D02*
X135480057Y-57440476D01*
X135480057Y-57440476D02*
X135575295Y-57392857D01*
X135575295Y-57392857D02*
X135718152Y-57392857D01*
X135718152Y-57392857D02*
X135813390Y-57440476D01*
X135813390Y-57440476D02*
X135861009Y-57488095D01*
X135861009Y-57488095D02*
X135908628Y-57583333D01*
X135908628Y-57583333D02*
X135908628Y-57964285D01*
X136384819Y-56440476D02*
X136384819Y-57011904D01*
X136384819Y-56726190D02*
X135384819Y-56726190D01*
X135384819Y-56726190D02*
X135527676Y-56821428D01*
X135527676Y-56821428D02*
X135622914Y-56916666D01*
X135622914Y-56916666D02*
X135670533Y-57011904D01*
X135480057Y-56059523D02*
X135432438Y-56011904D01*
X135432438Y-56011904D02*
X135384819Y-55916666D01*
X135384819Y-55916666D02*
X135384819Y-55678571D01*
X135384819Y-55678571D02*
X135432438Y-55583333D01*
X135432438Y-55583333D02*
X135480057Y-55535714D01*
X135480057Y-55535714D02*
X135575295Y-55488095D01*
X135575295Y-55488095D02*
X135670533Y-55488095D01*
X135670533Y-55488095D02*
X135813390Y-55535714D01*
X135813390Y-55535714D02*
X136384819Y-56107142D01*
X136384819Y-56107142D02*
X136384819Y-55488095D01*
D12*
%TO.C,J4*%
X126840000Y-86080000D02*
X126840000Y-84750000D01*
X128170000Y-86080000D02*
X126840000Y-86080000D01*
X129440000Y-83420000D02*
X134580000Y-83420000D01*
X129440000Y-86080000D02*
X129440000Y-83420000D01*
X129440000Y-86080000D02*
X134580000Y-86080000D01*
X134580000Y-86080000D02*
X134580000Y-83420000D01*
%TO.C,C4*%
X121311252Y-101490000D02*
X119888748Y-101490000D01*
X121311252Y-103310000D02*
X119888748Y-103310000D01*
%TO.C,C6*%
X131448752Y-94840000D02*
X130026248Y-94840000D01*
X131448752Y-96660000D02*
X130026248Y-96660000D01*
%TO.C,C9*%
X135090000Y-47788748D02*
X135090000Y-49211252D01*
X136910000Y-47788748D02*
X136910000Y-49211252D01*
D13*
%TO.C,SW3*%
X121566999Y-45529899D02*
X121566999Y-50155674D01*
X121566999Y-52683000D02*
X121566999Y-53137199D01*
X121566999Y-53137199D02*
X128932999Y-53137199D01*
X128932999Y-45529899D02*
X121566999Y-45529899D01*
X128932999Y-50155674D02*
X128932999Y-45529899D01*
X128932999Y-53137199D02*
X128932999Y-52683000D01*
D12*
%TO.C,C3*%
X114690000Y-105651248D02*
X114690000Y-107073752D01*
X116510000Y-105651248D02*
X116510000Y-107073752D01*
%TO.C,R11*%
X119677064Y-53590000D02*
X118222936Y-53590000D01*
X119677064Y-55410000D02*
X118222936Y-55410000D01*
%TO.C,R13*%
X131590000Y-57477064D02*
X131590000Y-56022936D01*
X133410000Y-57477064D02*
X133410000Y-56022936D01*
%TO.C,C1*%
X84711252Y-70890000D02*
X83288748Y-70890000D01*
X84711252Y-72710000D02*
X83288748Y-72710000D01*
%TO.C,U1*%
X90144990Y-112607510D02*
X90144990Y-111277510D01*
X91474990Y-112607510D02*
X90144990Y-112607510D01*
X92744990Y-109947510D02*
X97884990Y-109947510D01*
X92744990Y-112607510D02*
X92744990Y-109947510D01*
X92744990Y-112607510D02*
X97884990Y-112607510D01*
X97884990Y-112607510D02*
X97884990Y-109947510D01*
%TO.C,U9*%
X106460000Y-89307500D02*
X106460000Y-99587500D01*
X106460000Y-99587500D02*
X124480000Y-99587500D01*
X106520000Y-91797500D02*
X106520000Y-97097500D01*
X106520000Y-97097500D02*
X124420000Y-97097500D01*
X124420000Y-91797500D02*
X106520000Y-91797500D01*
X124420000Y-93447500D02*
X124420000Y-91797500D01*
X124420000Y-97097500D02*
X124420000Y-95447500D01*
X124480000Y-89307500D02*
X106460000Y-89307500D01*
X124480000Y-99587500D02*
X124480000Y-89307500D01*
X124420000Y-95447500D02*
G75*
G02*
X124420000Y-93447500I0J1000000D01*
G01*
%TO.C,R10*%
X138090000Y-98777064D02*
X138090000Y-97322936D01*
X139910000Y-98777064D02*
X139910000Y-97322936D01*
D11*
%TO.C,J2*%
X73650000Y-87437500D02*
X85450000Y-87437500D01*
X73650000Y-109437500D02*
X73650000Y-87437500D01*
X73650000Y-109437500D02*
X85450000Y-109437500D01*
X85450000Y-109437500D02*
X85450000Y-87437500D01*
D12*
%TO.C,R2*%
X100090000Y-104964564D02*
X100090000Y-103510436D01*
X101910000Y-104964564D02*
X101910000Y-103510436D01*
%TO.C,U10*%
X116370000Y-71170000D02*
X116370000Y-81450000D01*
X116370000Y-81450000D02*
X134390000Y-81450000D01*
X116430000Y-73660000D02*
X116430000Y-75310000D01*
X116430000Y-77310000D02*
X116430000Y-78960000D01*
X116430000Y-78960000D02*
X134330000Y-78960000D01*
X134330000Y-73660000D02*
X116430000Y-73660000D01*
X134330000Y-78960000D02*
X134330000Y-73660000D01*
X134390000Y-71170000D02*
X116370000Y-71170000D01*
X134390000Y-81450000D02*
X134390000Y-71170000D01*
X116430000Y-75310000D02*
G75*
G02*
X116430000Y-77310000I0J-1000000D01*
G01*
D11*
%TO.C,J3*%
X76000000Y-43450000D02*
X76000000Y-55250000D01*
X76000000Y-43450000D02*
X98000000Y-43450000D01*
X76000000Y-55250000D02*
X98000000Y-55250000D01*
X98000000Y-43450000D02*
X98000000Y-55250000D01*
D12*
%TO.C,C8*%
X117340000Y-47726248D02*
X117340000Y-49148752D01*
X119160000Y-47726248D02*
X119160000Y-49148752D01*
%TO.C,R9*%
X131527064Y-89840000D02*
X130072936Y-89840000D01*
X131527064Y-91660000D02*
X130072936Y-91660000D01*
%TO.C,J6*%
X115590000Y-66670000D02*
X115590000Y-69330000D01*
X120730000Y-66670000D02*
X115590000Y-66670000D01*
X120730000Y-66670000D02*
X120730000Y-69330000D01*
X120730000Y-69330000D02*
X115590000Y-69330000D01*
X122000000Y-66670000D02*
X123330000Y-66670000D01*
X123330000Y-66670000D02*
X123330000Y-68000000D01*
%TO.C,U5*%
X135971990Y-82022510D02*
X137301990Y-82022510D01*
X135971990Y-83352510D02*
X135971990Y-82022510D01*
X135971990Y-84622510D02*
X135971990Y-89762510D01*
X135971990Y-84622510D02*
X138571990Y-84622510D01*
X135971990Y-89762510D02*
X141171990Y-89762510D01*
X138571990Y-82022510D02*
X141171990Y-82022510D01*
X138571990Y-84622510D02*
X138571990Y-82022510D01*
X141171990Y-82022510D02*
X141171990Y-89762510D01*
%TO.C,R5*%
X82340000Y-83722936D02*
X82340000Y-85177064D01*
X84160000Y-83722936D02*
X84160000Y-85177064D01*
%TO.C,C10*%
X130590000Y-47788748D02*
X130590000Y-49211252D01*
X132410000Y-47788748D02*
X132410000Y-49211252D01*
%TO.C,C2*%
X81038748Y-65890000D02*
X82461252Y-65890000D01*
X81038748Y-67710000D02*
X82461252Y-67710000D01*
%TO.C,R3*%
X94590000Y-104964564D02*
X94590000Y-103510436D01*
X96410000Y-104964564D02*
X96410000Y-103510436D01*
%TO.C,J5*%
X127615000Y-66670000D02*
X127615000Y-69330000D01*
X132755000Y-66670000D02*
X127615000Y-66670000D01*
X132755000Y-66670000D02*
X132755000Y-69330000D01*
X132755000Y-69330000D02*
X127615000Y-69330000D01*
X134025000Y-66670000D02*
X135355000Y-66670000D01*
X135355000Y-66670000D02*
X135355000Y-68000000D01*
D13*
%TO.C,SW1*%
X104566999Y-45529899D02*
X104566999Y-50155674D01*
X104566999Y-52683000D02*
X104566999Y-53137199D01*
X104566999Y-53137199D02*
X111932999Y-53137199D01*
X111932999Y-45529899D02*
X104566999Y-45529899D01*
X111932999Y-50155674D02*
X111932999Y-45529899D01*
X111932999Y-53137199D02*
X111932999Y-52683000D01*
D12*
%TO.C,R6*%
X109890000Y-104927064D02*
X109890000Y-103472936D01*
X111710000Y-104927064D02*
X111710000Y-103472936D01*
%TO.C,R1*%
X105090000Y-104964564D02*
X105090000Y-103510436D01*
X106910000Y-104964564D02*
X106910000Y-103510436D01*
%TO.C,R4*%
X77840000Y-83722936D02*
X77840000Y-85177064D01*
X79660000Y-83722936D02*
X79660000Y-85177064D01*
%TO.C,R14*%
X101840000Y-75277064D02*
X101840000Y-73822936D01*
X103660000Y-75277064D02*
X103660000Y-73822936D01*
%TO.C,R7*%
X124290000Y-107077064D02*
X124290000Y-105622936D01*
X126110000Y-107077064D02*
X126110000Y-105622936D01*
%TO.C,U7*%
X118069990Y-64347510D02*
X118069990Y-63017510D01*
X119399990Y-64347510D02*
X118069990Y-64347510D01*
X120669990Y-61687510D02*
X138509990Y-61687510D01*
X120669990Y-64347510D02*
X120669990Y-61687510D01*
X120669990Y-64347510D02*
X138509990Y-64347510D01*
X138509990Y-64347510D02*
X138509990Y-61687510D01*
%TO.C,U8*%
X77090000Y-78270000D02*
X77090000Y-73629000D01*
X80359000Y-78270000D02*
X80359000Y-76760000D01*
X84060000Y-78270000D02*
X84060000Y-76760000D01*
X87330000Y-73629000D02*
X77090000Y-73629000D01*
X87330000Y-76760000D02*
X77090000Y-76760000D01*
X87330000Y-78270000D02*
X77090000Y-78270000D01*
X87330000Y-78270000D02*
X87330000Y-73629000D01*
%TO.C,U6*%
X91146000Y-64347500D02*
X91146000Y-63017500D01*
X92476000Y-64347500D02*
X91146000Y-64347500D01*
X93746000Y-61687500D02*
X116666000Y-61687500D01*
X93746000Y-64347500D02*
X93746000Y-61687500D01*
X93746000Y-64347500D02*
X116666000Y-64347500D01*
X116666000Y-64347500D02*
X116666000Y-61687500D01*
%TO.C,U3*%
X123150000Y-112607500D02*
X123150000Y-111277500D01*
X124480000Y-112607500D02*
X123150000Y-112607500D01*
X125750000Y-109947500D02*
X138510000Y-109947500D01*
X125750000Y-112607500D02*
X125750000Y-109947500D01*
X125750000Y-112607500D02*
X138510000Y-112607500D01*
X138510000Y-112607500D02*
X138510000Y-109947500D01*
%TO.C,U2*%
X100290000Y-112607500D02*
X100290000Y-111277500D01*
X101620000Y-112607500D02*
X100290000Y-112607500D01*
X102890000Y-109947500D02*
X120730000Y-109947500D01*
X102890000Y-112607500D02*
X102890000Y-109947500D01*
X102890000Y-112607500D02*
X120730000Y-112607500D01*
X120730000Y-112607500D02*
X120730000Y-109947500D01*
%TO.C,C12*%
X135090000Y-72851248D02*
X135090000Y-74273752D01*
X136910000Y-72851248D02*
X136910000Y-74273752D01*
%TO.C,C7*%
X143090000Y-98773752D02*
X143090000Y-97351248D01*
X144910000Y-98773752D02*
X144910000Y-97351248D01*
D13*
%TO.C,J1*%
X104732800Y-73773001D02*
X104732800Y-81621601D01*
X104732800Y-81621601D02*
X115477000Y-81621601D01*
X115477000Y-73773001D02*
X104732800Y-73773001D01*
X115477000Y-81621601D02*
X115477000Y-73773001D01*
D14*
X103335800Y-78000000D02*
G75*
G02*
X102573800Y-78000000I-381000J0D01*
G01*
X102573800Y-78000000D02*
G75*
G02*
X103335800Y-78000000I381000J0D01*
G01*
D12*
%TO.C,C5*%
X132148752Y-101340000D02*
X130726248Y-101340000D01*
X132148752Y-103160000D02*
X130726248Y-103160000D01*
D13*
%TO.C,SW2*%
X138566999Y-45529899D02*
X138566999Y-50155674D01*
X138566999Y-52683000D02*
X138566999Y-53137199D01*
X138566999Y-53137199D02*
X145932999Y-53137199D01*
X145932999Y-45529899D02*
X138566999Y-45529899D01*
X145932999Y-50155674D02*
X145932999Y-45529899D01*
X145932999Y-53137199D02*
X145932999Y-52683000D01*
D12*
%TO.C,R8*%
X132177064Y-106090000D02*
X130722936Y-106090000D01*
X132177064Y-107910000D02*
X130722936Y-107910000D01*
%TO.C,R12*%
X136840000Y-57477064D02*
X136840000Y-56022936D01*
X138660000Y-57477064D02*
X138660000Y-56022936D01*
%TO.C,U4*%
X88606000Y-69256700D02*
X88606000Y-74456700D01*
X93746000Y-69256700D02*
X88606000Y-69256700D01*
X93746000Y-69256700D02*
X93746000Y-71856700D01*
X93746000Y-71856700D02*
X96346000Y-71856700D01*
X95016000Y-69256700D02*
X96346000Y-69256700D01*
X96346000Y-69256700D02*
X96346000Y-70586700D01*
X96346000Y-71856700D02*
X96346000Y-74456700D01*
X96346000Y-74456700D02*
X88606000Y-74456700D01*
%TD*%
M02*
