<?xml version="1.0" standalone="no"?>
 <!DOCTYPE svg PUBLIC "-//W3C//DTD SVG 1.1//EN" 
 "http://www.w3.org/Graphics/SVG/1.1/DTD/svg11.dtd"> 
<svg
  xmlns:svg="http://www.w3.org/2000/svg"
  xmlns="http://www.w3.org/2000/svg"
  xmlns:xlink="http://www.w3.org/1999/xlink"
  version="1.1"
  width="89.2810mm" height="23.9014mm" viewBox="0.0000 0.0000 89.2810 23.9014">
<title>SVG Image created as Motor Board-F_Cu.svg date 2024/04/29 23:51:49 </title>
  <desc>Image generated by PCBNEW </desc>
<g style="fill:#000000; fill-opacity:1.0000;stroke:#000000; stroke-opacity:1.0000;
stroke-linecap:round; stroke-linejoin:round;"
 transform="translate(0 0) scale(1 1)">
</g>
<g style="fill:none; 
stroke:#000000; stroke-width:1.4000; stroke-opacity:1; 
stroke-linecap:round; stroke-linejoin:round;">
<path d="M35.3822 13.6232
L35.3822 14.8232
" />
<path d="M53.8822 13.6232
L53.8822 14.8232
" />
</g>
<g style="fill:#000000; fill-opacity:1.0000; stroke:none;">
<circle cx="37.6322" cy="16.5732" r="0.7620" /> 
</g>
<g style="fill:#000000; fill-opacity:1.0000; stroke:none;">
<circle cx="39.6322" cy="16.5732" r="0.7620" /> 
</g>
<g style="fill:#000000; fill-opacity:1.0000; stroke:none;">
<circle cx="41.6322" cy="16.5732" r="0.7620" /> 
</g>
<g style="fill:#000000; fill-opacity:1.0000; stroke:none;">
<circle cx="43.6322" cy="16.5732" r="0.7620" /> 
</g>
<g style="fill:#000000; fill-opacity:1.0000; stroke:none;">
<circle cx="45.6322" cy="16.5732" r="0.7620" /> 
</g>
<g style="fill:#000000; fill-opacity:1.0000; stroke:none;">
<circle cx="47.6322" cy="16.5732" r="0.7620" /> 
</g>
<g style="fill:#000000; fill-opacity:1.0000; stroke:none;">
<circle cx="49.6322" cy="16.5732" r="0.7620" /> 
<path style="fill:#000000; fill-opacity:1.0000; stroke:none;fill-rule:evenodd;"
d="M 50.8702,17.3352
52.3942,17.3352
52.3942,15.8112
50.8702,15.8112
Z" /> 
<path style="fill:#000000; fill-opacity:1.0000; stroke:none;fill-rule:evenodd;"
d="M 61.4072,7.3482
61.4072,9.0482
63.1072,9.0482
63.1072,7.3482
Z" /> 
</g>
<g style="fill:#000000; fill-opacity:1.0000; stroke:none;">
<circle cx="62.2572" cy="5.6582" r="0.8500" /> 
<circle cx="62.2572" cy="3.1182" r="0.8500" /> 
<path style="fill:#000000; fill-opacity:1.0000; stroke:none;fill-rule:evenodd;"
d="M 27.8572,12.9982
27.8572,11.2982
26.1572,11.2982
26.1572,12.9982
Z" /> 
<circle cx="27.0072" cy="14.6883" r="0.8500" /> 
<circle cx="27.0072" cy="17.2282" r="0.8500" /> 
<path style="fill:#000000; fill-opacity:1.0000; stroke:none;fill-rule:evenodd;"
d="M 56.8572,3.9982
56.8572,2.2982
55.1572,2.2982
55.1572,3.9982
Z" /> 
<circle cx="56.0072" cy="5.6883" r="0.8500" /> 
<circle cx="56.0072" cy="8.2282" r="0.8500" /> 
<path style="fill:#000000; fill-opacity:1.0000; stroke:none;fill-rule:evenodd;"
d="M 61.4072,16.4032
61.4072,18.1032
63.1072,18.1032
63.1072,16.4032
Z" /> 
<circle cx="62.2572" cy="14.7132" r="0.8500" /> 
<circle cx="62.2572" cy="12.1732" r="0.8500" /> 
<path style="fill:#000000; fill-opacity:1.0000; stroke:none;fill-rule:evenodd;"
d="M 27.8572,3.9982
27.8572,2.2982
26.1572,2.2982
26.1572,3.9982
Z" /> 
<circle cx="27.0072" cy="5.6883" r="0.8500" /> 
<circle cx="27.0072" cy="8.2282" r="0.8500" /> 
<circle cx="48.1322" cy="13.6732" r="0.8000" /> 
</g>
<g style="fill:none; 
stroke:#000000; stroke-width:0.4000; stroke-opacity:1; 
stroke-linecap:round; stroke-linejoin:round;">
<path d="M60.5922 14.7132
L56.8822 18.4232
" />
</g>
<g style="fill:none; 
stroke:#000000; stroke-width:1.5000; stroke-opacity:1; 
stroke-linecap:round; stroke-linejoin:round;">
<path d="M47.6322 16.5732
L47.6322 14.1732
" />
<path d="M47.6322 14.1732
L48.1322 13.6732
" />
</g>
<g style="fill:none; 
stroke:#000000; stroke-width:0.4000; stroke-opacity:1; 
stroke-linecap:round; stroke-linejoin:round;">
<path d="M67.3822 19.4232
L45.3822 19.4232
" />
<path d="M62.2572 5.6582
L63.6172 5.6582
" />
<path d="M68.6322 18.1732
L67.3822 19.4232
" />
<path d="M63.6172 5.6582
L68.6322 10.6732
" />
<path d="M43.6322 17.6732
L43.6322 16.5732
" />
<path d="M45.3822 19.4232
L43.6322 17.6732
" />
<path d="M68.6322 10.6732
L68.6322 18.1732
" />
<path d="M39.6322 14.1732
L31.1472 5.6883
" />
<path d="M39.6322 16.5732
L39.6322 14.1732
" />
<path d="M31.1472 5.6883
L27.0072 5.6883
" />
<path d="M31.6322 16.6732
L29.6472 14.6883
" />
<path d="M37.6322 16.5732
L37.5322 16.6732
" />
<path d="M37.5322 16.6732
L31.6322 16.6732
" />
<path d="M29.6472 14.6883
L27.0072 14.6883
" />
</g>
<g style="fill:none; 
stroke:#000000; stroke-width:1.3000; stroke-opacity:1; 
stroke-linecap:round; stroke-linejoin:round;">
<path d="M61.3822 9.9232
L63.1322 9.9232
" />
<path d="M24.1572 3.1482
L24.1322 3.1732
" />
<path d="M62.2572 8.1982
L62.2572 9.0482
" />
<path d="M59.6322 11.6732
L61.3822 9.9232
" />
<path d="M24.1322 3.1732
L24.1322 10.6732
" />
<path d="M24.1322 10.6732
L25.6072 12.1482
" />
<path d="M65.1322 16.1732
L64.0522 17.2532
" />
<path d="M62.2572 9.0482
L63.1322 9.9232
" />
<path d="M59.1072 3.1482
L24.1572 3.1482
" />
<path d="M56.0322 3.1732
L56.0072 3.1482
" />
<path d="M57.8822 9.9232
L59.1322 8.6732
" />
<path d="M64.0522 17.2532
L62.2572 17.2532
" />
<path d="M51.6322 16.5732
L54.7322 16.5732
" />
<path d="M54.7322 16.5732
L59.6322 11.6732
" />
<path d="M59.1322 3.1732
L59.1072 3.1482
" />
<path d="M51.6322 16.5732
L51.6322 11.1732
" />
<path d="M56.6322 11.1732
L57.8822 9.9232
" />
<path d="M25.6072 12.1482
L27.0072 12.1482
" />
<path d="M59.1322 8.6732
L59.1322 3.1732
" />
<path d="M63.1322 9.9232
L64.3822 9.9232
" />
<path d="M51.6322 11.1732
L56.6322 11.1732
" />
<path d="M61.3822 9.9232
L62.2572 9.0482
" />
<path d="M64.3822 9.9232
L65.1322 10.6732
" />
<path d="M65.1322 10.6732
L65.1322 16.1732
" />
</g>
<g style="fill:none; 
stroke:#000000; stroke-width:1.5000; stroke-opacity:1; 
stroke-linecap:round; stroke-linejoin:round;">
<path d="M49.6322 15.1732
L48.1322 13.6732
" />
<path d="M49.6322 16.5732
L49.6322 15.1732
" />
</g>
<g style="fill:none; 
stroke:#000000; stroke-width:0.4000; stroke-opacity:1; 
stroke-linecap:round; stroke-linejoin:round;">
<path d="M41.6322 12.6732
L48.6322 5.6732
" />
<path d="M48.6322 5.6732
L55.9922 5.6732
" />
<path d="M55.9922 5.6732
L56.0072 5.6883
" />
<path d="M41.6322 16.5732
L41.6322 12.6732
" />
<path d="M60.5922 14.7132
L62.2572 14.7132
" />
<path d="M45.6322 16.5732
L45.6322 17.6732
" />
<path d="M45.6322 17.6732
L46.3822 18.4232
" />
<path d="M46.3822 18.4232
L56.8822 18.4232
" />
</g>
<g style="fill:#FFFFFF; fill-opacity:1.0000; stroke:none;">
<circle cx="48.1322" cy="13.6732" r="0.4000" /> 
</g>
<g style="fill:none; 
stroke:#FFFFFF; stroke-width:0.7000; stroke-opacity:1; 
stroke-linecap:round; stroke-linejoin:round;">
<path d="M35.3822 13.9232
L35.3822 14.5232
" />
<path d="M53.8822 13.9232
L53.8822 14.5232
" />
</g>
<g style="fill:#FFFFFF; fill-opacity:1.0000; stroke:none;">
<circle cx="37.6322" cy="16.5732" r="0.4050" /> 
</g>
<g style="fill:#FFFFFF; fill-opacity:1.0000; stroke:none;">
<circle cx="39.6322" cy="16.5732" r="0.4050" /> 
</g>
<g style="fill:#FFFFFF; fill-opacity:1.0000; stroke:none;">
<circle cx="41.6322" cy="16.5732" r="0.4050" /> 
</g>
<g style="fill:#FFFFFF; fill-opacity:1.0000; stroke:none;">
<circle cx="43.6322" cy="16.5732" r="0.4050" /> 
</g>
<g style="fill:#FFFFFF; fill-opacity:1.0000; stroke:none;">
<circle cx="45.6322" cy="16.5732" r="0.4050" /> 
</g>
<g style="fill:#FFFFFF; fill-opacity:1.0000; stroke:none;">
<circle cx="47.6322" cy="16.5732" r="0.4050" /> 
</g>
<g style="fill:#FFFFFF; fill-opacity:1.0000; stroke:none;">
<circle cx="49.6322" cy="16.5732" r="0.4050" /> 
</g>
<g style="fill:#FFFFFF; fill-opacity:1.0000; stroke:none;">
<circle cx="51.6322" cy="16.5732" r="0.4050" /> 
</g>
<g style="fill:#FFFFFF; fill-opacity:1.0000; stroke:none;">
<circle cx="62.2572" cy="8.1982" r="0.5000" /> 
</g>
<g style="fill:#FFFFFF; fill-opacity:1.0000; stroke:none;">
<circle cx="62.2572" cy="5.6582" r="0.5000" /> 
</g>
<g style="fill:#FFFFFF; fill-opacity:1.0000; stroke:none;">
<circle cx="62.2572" cy="3.1182" r="0.5000" /> 
</g>
<g style="fill:#FFFFFF; fill-opacity:1.0000; stroke:none;">
<circle cx="27.0072" cy="12.1482" r="0.5000" /> 
</g>
<g style="fill:#FFFFFF; fill-opacity:1.0000; stroke:none;">
<circle cx="27.0072" cy="14.6883" r="0.5000" /> 
</g>
<g style="fill:#FFFFFF; fill-opacity:1.0000; stroke:none;">
<circle cx="27.0072" cy="17.2282" r="0.5000" /> 
</g>
<g style="fill:#FFFFFF; fill-opacity:1.0000; stroke:none;">
<circle cx="56.0072" cy="3.1482" r="0.5000" /> 
</g>
<g style="fill:#FFFFFF; fill-opacity:1.0000; stroke:none;">
<circle cx="56.0072" cy="5.6883" r="0.5000" /> 
</g>
<g style="fill:#FFFFFF; fill-opacity:1.0000; stroke:none;">
<circle cx="56.0072" cy="8.2282" r="0.5000" /> 
</g>
<g style="fill:#FFFFFF; fill-opacity:1.0000; stroke:none;">
<circle cx="5.1322" cy="10.1732" r="1.1000" /> 
</g>
<g style="fill:#FFFFFF; fill-opacity:1.0000; stroke:none;">
<circle cx="62.2572" cy="17.2532" r="0.5000" /> 
</g>
<g style="fill:#FFFFFF; fill-opacity:1.0000; stroke:none;">
<circle cx="62.2572" cy="14.7132" r="0.5000" /> 
</g>
<g style="fill:#FFFFFF; fill-opacity:1.0000; stroke:none;">
<circle cx="62.2572" cy="12.1732" r="0.5000" /> 
</g>
<g style="fill:#FFFFFF; fill-opacity:1.0000; stroke:none;">
<circle cx="84.1322" cy="10.1732" r="1.1000" /> 
</g>
<g style="fill:#FFFFFF; fill-opacity:1.0000; stroke:none;">
<circle cx="27.0072" cy="3.1482" r="0.5000" /> 
</g>
<g style="fill:#FFFFFF; fill-opacity:1.0000; stroke:none;">
<circle cx="27.0072" cy="5.6883" r="0.5000" /> 
</g>
<g style="fill:#FFFFFF; fill-opacity:1.0000; stroke:none;">
<circle cx="27.0072" cy="8.2282" r="0.5000" /> 
<path style="fill:none; 
stroke:#000000; stroke-width:0.0500; stroke-opacity:1; 
stroke-linecap:round; stroke-linejoin:round;fill:none"
d="M 88.1322,0.6733
1.1322,0.6733
1.1322,20.6732
88.1322,20.6732
Z" /> 
</g>
<g style="fill:none; 
stroke:#000000; stroke-width:0.0500; stroke-opacity:1; 
stroke-linecap:round; stroke-linejoin:round;">
<path d="M88.1322 20.6732
L88.1322 0.6733
" />
<path d="M1.1322 20.6732
L1.1322 0.6733
" />
</g> 
</svg>
