<?xml version="1.0" standalone="no"?>
 <!DOCTYPE svg PUBLIC "-//W3C//DTD SVG 1.1//EN" 
 "http://www.w3.org/Graphics/SVG/1.1/DTD/svg11.dtd"> 
<svg
  xmlns:svg="http://www.w3.org/2000/svg"
  xmlns="http://www.w3.org/2000/svg"
  xmlns:xlink="http://www.w3.org/1999/xlink"
  version="1.1"
  width="89.2810mm" height="23.9014mm" viewBox="0.0000 0.0000 89.2810 23.9014">
<title>SVG Image created as Motor Board-B_Cu.svg date 2024/04/29 23:51:49 </title>
  <desc>Image generated by PCBNEW </desc>
<g style="fill:#000000; fill-opacity:1.0000;stroke:#000000; stroke-opacity:1.0000;
stroke-linecap:round; stroke-linejoin:round;"
 transform="translate(0 0) scale(1 1)">
</g>
<g style="fill:none; 
stroke:#000000; stroke-width:1.4000; stroke-opacity:1; 
stroke-linecap:round; stroke-linejoin:round;">
<path d="M35.3822 13.6232
L35.3822 14.8232
" />
<path d="M53.8822 13.6232
L53.8822 14.8232
" />
</g>
<g style="fill:#000000; fill-opacity:1.0000; stroke:none;">
<circle cx="37.6322" cy="16.5732" r="0.7620" /> 
</g>
<g style="fill:#000000; fill-opacity:1.0000; stroke:none;">
<circle cx="39.6322" cy="16.5732" r="0.7620" /> 
</g>
<g style="fill:#000000; fill-opacity:1.0000; stroke:none;">
<circle cx="41.6322" cy="16.5732" r="0.7620" /> 
</g>
<g style="fill:#000000; fill-opacity:1.0000; stroke:none;">
<circle cx="43.6322" cy="16.5732" r="0.7620" /> 
</g>
<g style="fill:#000000; fill-opacity:1.0000; stroke:none;">
<circle cx="45.6322" cy="16.5732" r="0.7620" /> 
</g>
<g style="fill:#000000; fill-opacity:1.0000; stroke:none;">
<circle cx="47.6322" cy="16.5732" r="0.7620" /> 
</g>
<g style="fill:#000000; fill-opacity:1.0000; stroke:none;">
<circle cx="49.6322" cy="16.5732" r="0.7620" /> 
<path style="fill:#000000; fill-opacity:1.0000; stroke:none;fill-rule:evenodd;"
d="M 50.8702,17.3352
52.3942,17.3352
52.3942,15.8112
50.8702,15.8112
Z" /> 
<path style="fill:#000000; fill-opacity:1.0000; stroke:none;fill-rule:evenodd;"
d="M 61.4072,7.3482
61.4072,9.0482
63.1072,9.0482
63.1072,7.3482
Z" /> 
</g>
<g style="fill:#000000; fill-opacity:1.0000; stroke:none;">
<circle cx="62.2572" cy="5.6582" r="0.8500" /> 
<circle cx="62.2572" cy="3.1182" r="0.8500" /> 
<path style="fill:#000000; fill-opacity:1.0000; stroke:none;fill-rule:evenodd;"
d="M 27.8572,12.9982
27.8572,11.2982
26.1572,11.2982
26.1572,12.9982
Z" /> 
<circle cx="27.0072" cy="14.6883" r="0.8500" /> 
<circle cx="27.0072" cy="17.2282" r="0.8500" /> 
<path style="fill:#000000; fill-opacity:1.0000; stroke:none;fill-rule:evenodd;"
d="M 56.8572,3.9982
56.8572,2.2982
55.1572,2.2982
55.1572,3.9982
Z" /> 
<circle cx="56.0072" cy="5.6883" r="0.8500" /> 
<circle cx="56.0072" cy="8.2282" r="0.8500" /> 
<path style="fill:#000000; fill-opacity:1.0000; stroke:none;fill-rule:evenodd;"
d="M 61.4072,16.4032
61.4072,18.1032
63.1072,18.1032
63.1072,16.4032
Z" /> 
<circle cx="62.2572" cy="14.7132" r="0.8500" /> 
<circle cx="62.2572" cy="12.1732" r="0.8500" /> 
<path style="fill:#000000; fill-opacity:1.0000; stroke:none;fill-rule:evenodd;"
d="M 27.8572,3.9982
27.8572,2.2982
26.1572,2.2982
26.1572,3.9982
Z" /> 
<circle cx="27.0072" cy="5.6883" r="0.8500" /> 
<circle cx="27.0072" cy="8.2282" r="0.8500" /> 
<circle cx="48.1322" cy="13.6732" r="0.8000" /> 
</g>
<g style="fill:none; 
stroke:#000000; stroke-width:0.2000; stroke-opacity:1; 
stroke-linecap:round; stroke-linejoin:round;">
<path d="M27.0222 5.6732
L27.0072 5.6883
" />
<path style="fill:#000000; fill-opacity:1.0000; stroke:none;fill-rule:evenodd;"
d="M 1.6897,1.1934
1.6439,1.2462
1.6327,1.2977
1.6327,20.0487
1.6524,20.1158
1.7052,20.1615
1.7567,20.1728
87.5077,20.1728
87.5747,20.1531
87.6205,20.1003
87.6317,20.0487
87.6317,14.7132
63.6128,14.7132
63.5923,14.9487
63.5923,14.9487
63.5311,15.1769
63.5311,15.1769
63.5311,15.1769
63.4351,15.3828
63.4312,15.3911
63.4312,15.3911
63.3717,15.4762
63.2957,15.5846
63.2957,15.5847
63.1738,15.7066
63.1403,15.7679
63.1453,15.8376
63.1871,15.8935
63.2181,15.9104
63.3495,15.9595
63.3495,15.9595
63.4647,16.0457
63.4647,16.0457
63.5510,16.1609
63.5510,16.1609
63.6013,16.2958
63.6075,16.3532
63.6077,16.3554
63.6077,16.3554
63.6077,18.1511
63.6077,18.1511
63.6013,18.2107
63.5510,18.3456
63.5510,18.3456
63.4647,18.4608
63.4647,18.4608
63.3495,18.5470
63.3495,18.5470
63.2147,18.5973
63.2147,18.5973
63.2077,18.5981
63.1551,18.6037
61.3593,18.6037
61.2997,18.5973
61.1649,18.5470
61.0496,18.4608
60.9634,18.3456
60.9131,18.2107
60.9067,18.1511
60.9067,16.3554
60.9131,16.2958
60.9504,16.1959
60.9634,16.1609
60.9634,16.1609
61.0496,16.0457
61.0496,16.0457
61.1649,15.9595
61.1649,15.9595
61.2963,15.9104
61.3522,15.8686
61.3766,15.8031
61.3618,15.7348
61.3406,15.7066
61.2187,15.5847
61.0832,15.3911
60.9833,15.1769
60.9221,14.9487
60.9194,14.9177
55.0827,14.9177
55.0531,15.1044
54.9947,15.2841
54.9444,15.3828
54.9089,15.4524
54.7979,15.6053
54.6643,15.7389
54.5114,15.8500
54.4382,15.8873
54.3430,15.9358
54.3430,15.9358
54.3430,15.9358
54.2619,15.9622
54.1633,15.9942
53.9767,16.0237
53.9767,16.0237
53.7877,16.0237
53.6011,15.9942
53.5606,15.9811
53.4214,15.9358
53.2530,15.8500
53.1001,15.7389
53.1001,15.7389
53.0992,15.7382
53.0988,15.7380
53.0962,15.7361
53.0958,15.7366
53.0355,15.7096
52.9664,15.7200
52.9139,15.7662
52.8947,15.8325
52.8947,17.3831
52.8947,17.3831
52.8883,17.4427
52.8380,17.5776
52.8380,17.5776
52.7517,17.6928
52.7517,17.6928
52.6365,17.7790
52.6365,17.7790
52.5017,17.8293
52.5017,17.8293
52.4947,17.8301
52.4421,17.8358
50.8223,17.8357
50.7627,17.8293
50.6279,17.7790
50.5126,17.6928
50.4886,17.6607
50.4327,17.6189
50.3630,17.6139
50.3183,17.6335
50.2656,17.6703
50.2656,17.6703
50.0655,17.7637
50.0655,17.7637
49.8522,17.8208
49.8522,17.8208
49.6322,17.8401
49.6322,17.8401
49.4122,17.8208
49.4122,17.8208
49.1989,17.7637
49.1989,17.7637
48.9988,17.6703
48.9988,17.6703
48.9340,17.6250
49.5807,16.9782
49.5789,16.9782
49.4759,16.9506
49.3835,16.8973
49.3081,16.8219
49.2548,16.7296
49.2272,16.6266
49.2272,16.6247
48.6322,17.2197
48.0372,16.6247
48.0372,16.6266
48.0096,16.7296
47.9563,16.8219
47.8809,16.8973
47.7885,16.9506
47.6855,16.9782
47.6836,16.9782
48.3304,17.6250
48.2656,17.6703
48.2656,17.6703
48.0655,17.7637
48.0655,17.7637
47.8522,17.8208
47.8522,17.8208
47.6322,17.8401
47.6322,17.8401
47.4122,17.8208
47.4122,17.8208
47.1989,17.7637
47.1989,17.7637
46.9988,17.6703
46.9988,17.6703
46.9340,17.6250
47.5807,16.9782
47.5789,16.9782
47.4759,16.9506
47.3835,16.8973
47.3081,16.8219
47.2548,16.7296
47.2272,16.6266
47.2272,16.6247
46.8192,17.0327
46.7945,17.0679
46.7297,17.2069
46.7297,17.2069
46.6030,17.3879
46.6030,17.3879
46.4468,17.5441
46.4468,17.5441
46.2659,17.6708
46.2659,17.6708
46.2659,17.6708
46.0656,17.7641
45.8523,17.8213
45.6951,17.8351
45.6322,17.8406
45.6322,17.8406
45.6322,17.8406
45.5770,17.8357
45.4121,17.8213
45.1987,17.7641
44.9985,17.6708
44.8176,17.5441
44.7199,17.4464
44.6585,17.4129
44.5889,17.4179
44.5445,17.4464
44.4468,17.5441
44.4468,17.5441
44.2659,17.6708
44.2659,17.6708
44.2659,17.6708
44.0656,17.7641
43.8523,17.8213
43.6951,17.8351
43.6322,17.8406
43.6322,17.8406
43.6322,17.8406
43.5770,17.8357
43.4121,17.8213
43.1987,17.7641
42.9985,17.6708
42.8176,17.5441
42.7199,17.4464
42.6585,17.4129
42.5889,17.4179
42.5445,17.4464
42.4468,17.5441
42.4468,17.5441
42.2659,17.6708
42.2659,17.6708
42.2659,17.6708
42.0656,17.7641
41.8523,17.8213
41.6951,17.8351
41.6322,17.8406
41.6322,17.8406
41.6322,17.8406
41.5770,17.8357
41.4121,17.8213
41.1987,17.7641
40.9985,17.6708
40.8176,17.5441
40.7199,17.4464
40.6585,17.4129
40.5889,17.4179
40.5445,17.4464
40.4468,17.5441
40.4468,17.5441
40.2659,17.6708
40.2659,17.6708
40.2659,17.6708
40.0656,17.7641
39.8523,17.8213
39.6951,17.8351
39.6322,17.8406
39.6322,17.8406
39.6322,17.8406
39.5770,17.8357
39.4121,17.8213
39.1987,17.7641
38.9985,17.6708
38.8176,17.5441
38.7199,17.4464
38.6585,17.4129
38.5889,17.4179
38.5445,17.4464
38.4468,17.5441
38.4468,17.5441
38.2659,17.6708
38.2659,17.6708
38.2659,17.6708
38.0656,17.7641
37.8523,17.8213
37.6951,17.8351
37.6322,17.8406
37.6322,17.8406
37.6322,17.8406
37.5770,17.8357
37.4121,17.8213
37.1987,17.7641
36.9985,17.6708
36.8176,17.5441
36.6614,17.3879
36.5347,17.2069
36.4413,17.0067
36.3841,16.7933
36.3649,16.5732
36.3841,16.3532
36.4413,16.1398
36.5347,15.9396
36.6061,15.8376
36.6614,15.7586
36.7199,15.7001
36.8176,15.6024
36.8176,15.6024
36.8176,15.6024
36.9985,15.4757
36.9985,15.4757
37.0457,15.4537
37.1987,15.3824
37.1987,15.3824
37.1987,15.3824
37.4121,15.3252
37.4121,15.3252
37.6322,15.3059
37.6322,15.3059
37.8523,15.3252
37.8523,15.3252
38.0656,15.3824
38.0656,15.3824
38.2659,15.4757
38.2659,15.4757
38.4468,15.6024
38.5445,15.7001
38.6058,15.7336
38.6755,15.7286
38.7199,15.7001
38.8176,15.6024
38.8176,15.6024
38.9985,15.4757
38.9985,15.4757
39.0457,15.4537
39.1987,15.3824
39.1987,15.3824
39.1987,15.3824
39.4121,15.3252
39.4121,15.3252
39.6322,15.3059
39.6322,15.3059
39.8523,15.3252
39.8523,15.3252
40.0656,15.3824
40.0656,15.3824
40.2659,15.4757
40.2659,15.4757
40.4468,15.6024
40.5445,15.7001
40.6058,15.7336
40.6755,15.7286
40.7199,15.7001
40.8176,15.6024
40.8176,15.6024
40.9985,15.4757
40.9985,15.4757
41.0457,15.4537
41.1987,15.3824
41.1987,15.3824
41.1987,15.3824
41.4121,15.3252
41.4121,15.3252
41.6322,15.3059
41.6322,15.3059
41.8523,15.3252
41.8523,15.3252
42.0656,15.3824
42.0656,15.3824
42.2659,15.4757
42.2659,15.4757
42.4468,15.6024
42.5445,15.7001
42.6058,15.7336
42.6755,15.7286
42.7199,15.7001
42.8176,15.6024
42.8176,15.6024
42.9985,15.4757
42.9985,15.4757
43.0457,15.4537
43.1987,15.3824
43.1987,15.3824
43.1987,15.3824
43.4121,15.3252
43.4121,15.3252
43.6322,15.3059
43.6322,15.3059
43.8523,15.3252
43.8523,15.3252
44.0656,15.3824
44.0656,15.3824
44.2659,15.4757
44.2659,15.4757
44.4468,15.6024
44.5445,15.7001
44.6058,15.7336
44.6755,15.7286
44.7199,15.7001
44.8176,15.6024
44.8176,15.6024
44.9985,15.4757
44.9985,15.4757
45.0457,15.4537
45.1987,15.3824
45.1987,15.3824
45.1987,15.3824
45.4121,15.3252
45.4121,15.3252
45.6322,15.3059
45.6322,15.3059
45.8523,15.3252
45.8523,15.3252
46.0656,15.3824
46.0656,15.3824
46.2659,15.4757
46.2659,15.4757
46.4468,15.6024
46.6030,15.7586
46.7297,15.9396
46.7945,16.0786
46.8192,16.1138
47.2272,16.5218
47.2272,16.5199
47.2548,16.4169
47.3081,16.3246
47.3835,16.2492
47.4759,16.1959
47.5789,16.1683
47.5807,16.1683
46.9340,15.5215
46.9340,15.5215
46.9988,15.4762
46.9988,15.4761
47.1989,15.3828
47.1989,15.3828
47.4122,15.3257
47.4122,15.3257
47.6322,15.3064
47.6322,15.3064
47.8522,15.3257
47.8522,15.3257
48.0655,15.3828
48.0655,15.3828
48.2656,15.4762
48.3304,15.5215
47.6836,16.1683
47.6855,16.1683
47.7885,16.1959
47.8809,16.2492
47.9563,16.3246
48.0096,16.4169
48.0372,16.5199
48.0372,16.5218
48.6322,15.9268
49.2272,16.5218
49.2272,16.5199
49.2548,16.4169
49.3081,16.3246
49.3835,16.2492
49.4759,16.1959
49.5789,16.1683
49.5807,16.1683
48.9340,15.5215
48.9988,15.4762
48.9988,15.4761
49.1989,15.3828
49.1989,15.3828
49.4122,15.3257
49.4122,15.3257
49.6322,15.3064
49.6322,15.3064
49.8522,15.3257
49.8522,15.3257
50.0655,15.3828
50.0655,15.3828
50.2656,15.4761
50.3183,15.5130
50.3845,15.5353
50.4522,15.5183
50.4886,15.4858
50.5126,15.4537
50.5963,15.3911
50.6279,15.3675
50.6279,15.3675
50.7627,15.3172
50.7627,15.3172
50.8223,15.3108
50.8223,15.3107
50.8223,15.3107
50.8223,15.3107
52.4421,15.3107
52.4421,15.3108
52.5017,15.3172
52.5782,15.3457
52.6479,15.3507
52.7092,15.3172
52.7427,15.2559
52.7395,15.1912
52.7348,15.1769
52.7112,15.1044
52.6817,14.9177
36.5827,14.9177
36.5531,15.1044
36.4947,15.2841
36.4444,15.3828
36.4089,15.4524
36.2979,15.6053
36.1643,15.7389
36.0114,15.8500
35.9382,15.8873
35.8430,15.9358
35.8430,15.9358
35.8430,15.9358
35.7619,15.9622
35.6633,15.9942
35.4767,16.0237
35.4767,16.0237
35.2877,16.0237
35.1011,15.9942
35.0606,15.9811
34.9214,15.9358
34.7530,15.8500
34.6001,15.7389
34.4665,15.6053
34.3554,15.4524
34.2696,15.2841
34.2112,15.1044
34.1817,14.9177
34.1817,14.6883
28.3628,14.6883
28.3423,14.9237
28.3423,14.9237
28.2811,15.1519
28.2811,15.1519
28.2811,15.1519
28.2003,15.3252
28.1812,15.3661
28.1812,15.3661
28.0457,15.5596
28.0457,15.5597
27.8786,15.7267
27.8786,15.7267
27.8331,15.7586
27.7026,15.8500
27.6926,15.8570
27.6490,15.9116
27.6418,15.9811
27.6733,16.0434
27.6926,16.0601
27.8783,16.1901
27.8783,16.1901
28.0453,16.3572
28.0453,16.3572
28.1808,16.5507
28.1808,16.5507
28.2806,16.7648
28.2806,16.7648
28.3378,16.9782
28.3378,16.9782
27.4402,16.9782
27.4731,17.0353
27.5072,17.1624
27.5072,17.2941
27.4731,17.4212
27.4402,17.4782
28.3378,17.4782
28.2806,17.6917
28.2806,17.6917
28.1808,17.9058
28.0453,18.0993
27.8783,18.2664
27.6848,18.4018
27.4707,18.5017
27.4707,18.5017
27.2572,18.5589
27.2572,17.6613
27.2002,17.6942
27.0730,17.7282
26.9414,17.7282
26.8142,17.6942
26.7572,17.6613
26.7572,18.5589
26.5437,18.5017
26.5437,18.5017
26.3296,18.4018
26.1361,18.2664
25.9691,18.0993
25.8336,17.9058
25.7338,17.6917
25.7338,17.6917
25.6766,17.4782
26.5742,17.4782
26.5413,17.4212
26.5072,17.2941
26.5072,17.1624
26.5413,17.0353
26.5742,16.9782
25.6766,16.9782
25.6766,16.9782
25.7338,16.7648
25.7338,16.7648
25.8336,16.5507
25.8336,16.5507
25.9691,16.3572
25.9691,16.3572
26.1361,16.1901
26.3218,16.0601
26.3654,16.0056
26.3726,15.9361
26.3411,15.8737
26.3218,15.8570
26.1358,15.7267
25.9687,15.5597
25.8332,15.3661
25.7333,15.1519
25.6721,14.9237
25.6515,14.6883
25.6721,14.4528
25.7333,14.2246
25.8332,14.0104
25.9687,13.8168
26.0906,13.6949
26.1241,13.6336
26.1191,13.5639
26.0773,13.5080
26.0463,13.4911
25.9149,13.4420
25.7996,13.3558
25.7134,13.2406
25.6631,13.1057
25.6567,13.0461
25.6567,11.2504
25.6631,11.1908
25.7134,11.0559
25.7134,11.0559
25.7134,11.0559
25.7996,10.9407
25.7996,10.9407
25.9149,10.8545
25.9149,10.8545
26.0497,10.8042
26.0497,10.8042
26.1093,10.7978
26.1093,10.7977
26.1093,10.7977
26.1093,10.7977
27.9051,10.7977
27.9051,10.7978
27.9647,10.8042
28.0995,10.8545
28.0995,10.8545
28.2147,10.9407
28.2147,10.9407
28.3010,11.0559
28.3010,11.0559
28.3513,11.1908
28.3577,11.2504
28.3577,11.2504
28.3577,11.2504
28.3577,13.0461
28.3577,13.0461
28.3513,13.1057
28.3010,13.2406
28.3010,13.2406
28.2147,13.3558
28.2147,13.3558
28.0995,13.4420
28.0995,13.4420
27.9681,13.4911
27.9122,13.5329
27.8878,13.5984
27.9026,13.6667
27.9238,13.6949
28.0457,13.8168
28.1812,14.0104
28.1812,14.0104
28.2811,14.2246
28.2811,14.2246
28.3423,14.4528
28.3423,14.4528
28.3628,14.6882
28.3628,14.6883
34.1817,14.6883
34.1817,13.5288
34.2112,13.3421
34.2696,13.1624
34.3554,12.9940
34.4665,12.8412
34.6001,12.7076
34.7530,12.5965
34.9214,12.5107
35.1011,12.4523
35.2877,12.4227
35.2877,12.4227
35.4767,12.4227
35.4767,12.4227
35.6633,12.4523
35.8430,12.5107
36.0114,12.5965
36.0668,12.6367
36.1643,12.7076
36.1643,12.7076
36.1643,12.7076
36.2979,12.8412
36.2979,12.8412
36.2979,12.8412
36.3456,12.9068
36.4089,12.9940
36.4947,13.1624
36.5531,13.3421
36.5827,13.5288
36.5827,14.9177
52.6817,14.9177
52.6817,13.5288
52.7112,13.3421
52.7696,13.1624
52.8554,12.9940
52.9665,12.8412
53.1001,12.7076
53.2530,12.5965
53.4214,12.5107
53.6011,12.4523
53.7877,12.4227
53.7877,12.4227
53.9767,12.4227
53.9767,12.4227
54.1633,12.4523
54.3430,12.5107
54.5114,12.5965
54.5668,12.6367
54.6643,12.7076
54.6643,12.7076
54.6643,12.7076
54.7979,12.8412
54.7979,12.8412
54.7979,12.8412
54.8456,12.9068
54.9089,12.9940
54.9947,13.1624
55.0531,13.3421
55.0827,13.5288
55.0827,14.9177
60.9194,14.9177
60.9015,14.7132
60.9221,14.4778
60.9833,14.2496
61.0832,14.0354
61.1007,14.0104
61.2187,13.8418
61.3858,13.6748
61.3858,13.6748
61.5718,13.5445
61.6154,13.4899
61.6226,13.4204
61.5911,13.3581
61.5718,13.3414
61.3861,13.2114
61.2191,13.0443
61.0836,12.8508
60.9838,12.6367
60.9838,12.6367
60.9266,12.4232
61.8242,12.4232
61.7913,12.3662
61.7572,12.2391
61.7572,12.1074
61.7913,11.9803
61.8242,11.9232
60.9266,11.9232
60.9266,11.9232
60.9838,11.7098
60.9838,11.7098
61.0836,11.4957
61.0836,11.4957
61.2191,11.3022
61.2191,11.3022
61.3861,11.1351
61.5796,10.9996
61.7937,10.8998
61.7937,10.8998
62.0072,10.8426
62.0072,11.7402
62.0642,11.7073
62.1914,11.6732
62.3230,11.6732
62.4502,11.7073
62.5072,11.7402
62.5072,10.8426
62.5072,10.8426
62.7207,10.8998
62.7207,10.8998
62.9348,10.9996
62.9348,10.9996
63.1283,11.1351
63.1283,11.1351
63.2953,11.3022
63.2953,11.3022
63.4308,11.4957
63.4308,11.4957
63.5306,11.7098
63.5306,11.7098
63.5878,11.9232
63.5878,11.9232
62.6902,11.9232
62.7231,11.9803
62.7572,12.1074
62.7572,12.2391
62.7231,12.3662
62.6902,12.4232
63.5878,12.4232
63.5306,12.6367
63.5306,12.6367
63.4308,12.8508
63.2953,13.0443
63.1283,13.2114
62.9426,13.3414
62.8990,13.3959
62.8918,13.4654
62.9233,13.5278
62.9426,13.5445
63.1286,13.6748
63.2957,13.8418
63.4312,14.0354
63.4312,14.0354
63.5311,14.2496
63.5311,14.2496
63.5923,14.4778
63.5923,14.4778
63.6128,14.7132
63.6128,14.7132
87.6317,14.7132
87.6317,10.2795
85.4827,10.2795
85.4494,10.4895
85.3837,10.6917
85.2872,10.8811
85.1623,11.0530
85.0120,11.2034
84.8400,11.3283
84.8400,11.3283
84.8400,11.3283
84.6506,11.4248
84.4484,11.4905
84.2385,11.5237
84.2385,11.5237
84.0259,11.5237
84.0259,11.5237
83.8159,11.4905
83.6138,11.4248
83.4244,11.3283
83.3884,11.3022
83.2524,11.2034
83.2524,11.2034
83.2524,11.2034
83.1021,11.0530
83.1021,11.0530
83.1021,11.0530
82.9771,10.8811
82.9771,10.8811
82.9771,10.8811
82.8806,10.6917
82.8149,10.4895
82.7817,10.2795
82.7817,10.2795
6.4827,10.2795
6.4494,10.4895
6.3837,10.6917
6.2872,10.8811
6.1623,11.0530
6.0120,11.2034
5.8400,11.3283
5.8400,11.3283
5.8400,11.3283
5.6506,11.4248
5.4484,11.4905
5.2385,11.5237
5.2385,11.5237
5.0259,11.5237
5.0259,11.5237
4.8159,11.4905
4.6138,11.4248
4.4244,11.3283
4.3884,11.3022
4.2524,11.2034
4.2524,11.2034
4.2524,11.2034
4.1021,11.0530
4.1021,11.0530
4.1021,11.0530
3.9771,10.8811
3.9771,10.8811
3.9771,10.8811
3.8806,10.6917
3.8149,10.4895
3.7817,10.2795
3.7817,10.0670
3.8149,9.8570
3.8806,9.6548
3.9771,9.4654
3.9771,9.4654
3.9771,9.4654
4.1021,9.2935
4.2524,9.1431
4.4244,9.0182
4.6138,8.9217
4.6138,8.9217
4.6138,8.9217
4.8159,8.8560
4.8159,8.8560
4.8159,8.8560
4.9772,8.8305
5.0259,8.8227
5.2385,8.8227
5.2871,8.8305
5.4484,8.8560
5.6506,8.9217
5.8400,9.0182
6.0120,9.1431
6.1623,9.2935
6.2872,9.4654
6.3837,9.6548
6.4494,9.8570
6.4827,10.0670
6.4827,10.2795
82.7817,10.2795
82.7817,10.0670
82.8149,9.8570
82.8806,9.6548
82.9771,9.4654
82.9771,9.4654
82.9771,9.4654
83.1021,9.2935
83.2524,9.1431
83.4244,9.0182
83.6138,8.9217
83.6138,8.9217
83.6138,8.9217
83.8159,8.8560
83.8159,8.8560
83.8160,8.8560
83.9772,8.8305
84.0259,8.8227
84.2385,8.8227
84.2871,8.8305
84.4484,8.8560
84.6506,8.9217
84.8400,9.0182
85.0120,9.1431
85.1623,9.2935
85.2872,9.4654
85.3837,9.6548
85.4494,9.8570
85.4827,10.0670
85.4827,10.2795
87.6317,10.2795
87.6317,5.6582
63.6128,5.6582
63.5923,5.8937
63.5923,5.8937
63.5311,6.1219
63.5311,6.1219
63.5311,6.1219
63.5171,6.1519
63.4312,6.3361
63.4312,6.3361
63.3229,6.4908
63.2957,6.5296
63.2957,6.5297
63.1738,6.6516
63.1403,6.7129
63.1453,6.7826
63.1871,6.8385
63.2181,6.8554
63.3495,6.9045
63.3495,6.9045
63.4647,6.9907
63.4647,6.9907
63.5510,7.1059
63.5510,7.1059
63.6013,7.2408
63.6077,7.3004
63.6077,7.3004
63.6077,7.3004
63.6077,9.0961
63.6077,9.0961
63.6013,9.1557
63.5510,9.2906
63.5510,9.2906
63.4647,9.4058
63.4647,9.4058
63.3495,9.4920
63.3495,9.4920
63.2147,9.5423
63.2147,9.5423
63.2077,9.5431
63.1551,9.5488
61.3593,9.5487
61.2997,9.5423
61.1649,9.4920
61.0496,9.4058
60.9634,9.2906
60.9131,9.1557
60.9067,9.0961
60.9067,7.3004
60.9131,7.2408
60.9320,7.1901
60.9634,7.1059
60.9634,7.1059
61.0496,6.9907
61.0496,6.9907
61.1649,6.9045
61.1649,6.9045
61.2963,6.8554
61.3522,6.8136
61.3766,6.7481
61.3618,6.6798
61.3406,6.6516
61.2187,6.5297
61.0832,6.3361
60.9833,6.1219
60.9221,5.8937
60.9042,5.6883
57.3628,5.6883
57.3423,5.9237
57.3423,5.9237
57.2811,6.1519
57.2811,6.1519
57.2811,6.1519
57.1952,6.3361
57.1812,6.3661
57.1812,6.3661
57.0729,6.5208
57.0457,6.5597
56.8786,6.7267
56.7058,6.8478
56.6926,6.8570
56.6490,6.9116
56.6418,6.9811
56.6733,7.0434
56.6926,7.0601
56.8783,7.1901
56.8783,7.1901
57.0453,7.3572
57.0453,7.3572
57.1808,7.5507
57.1808,7.5507
57.2806,7.7648
57.2806,7.7648
57.3378,7.9782
57.3378,7.9783
56.4402,7.9783
56.4731,8.0353
56.5072,8.1624
56.5072,8.2941
56.4731,8.4212
56.4402,8.4782
57.3378,8.4782
57.2806,8.6917
57.2806,8.6917
57.1808,8.9058
57.0453,9.0993
56.8783,9.2664
56.6848,9.4018
56.4707,9.5017
56.4707,9.5017
56.2572,9.5589
56.2572,8.6613
56.2002,8.6942
56.0730,8.7282
55.9414,8.7282
55.8142,8.6942
55.7572,8.6613
55.7572,9.5589
55.5437,9.5017
55.5437,9.5017
55.3296,9.4018
55.1361,9.2664
54.9691,9.0993
54.8336,8.9058
54.7338,8.6917
54.7338,8.6917
54.6766,8.4782
55.5742,8.4782
55.5413,8.4212
55.5072,8.2941
55.5072,8.1624
55.5413,8.0353
55.5742,7.9783
54.6766,7.9783
54.6766,7.9782
54.7338,7.7648
54.7338,7.7648
54.8336,7.5507
54.8336,7.5507
54.9691,7.3572
54.9691,7.3572
55.1361,7.1901
55.3218,7.0601
55.3654,7.0056
55.3726,6.9361
55.3411,6.8737
55.3218,6.8570
55.3178,6.8542
55.1358,6.7267
54.9687,6.5597
54.8332,6.3661
54.7333,6.1519
54.6721,5.9237
54.6515,5.6883
28.3628,5.6883
28.3423,5.9237
28.3423,5.9237
28.2811,6.1519
28.2811,6.1519
28.2811,6.1519
28.1952,6.3361
28.1812,6.3661
28.1812,6.3661
28.0729,6.5208
28.0457,6.5597
27.8786,6.7267
27.7058,6.8478
27.6926,6.8570
27.6490,6.9116
27.6418,6.9811
27.6733,7.0434
27.6926,7.0601
27.8783,7.1901
27.8783,7.1901
28.0453,7.3572
28.0453,7.3572
28.1808,7.5507
28.1808,7.5507
28.2806,7.7648
28.2806,7.7648
28.3378,7.9782
28.3378,7.9783
27.4402,7.9783
27.4731,8.0353
27.5072,8.1624
27.5072,8.2941
27.4731,8.4212
27.4402,8.4782
28.3378,8.4782
28.2806,8.6917
28.2806,8.6917
28.1808,8.9058
28.0453,9.0993
27.8783,9.2664
27.6848,9.4018
27.4707,9.5017
27.4707,9.5017
27.2572,9.5589
27.2572,8.6613
27.2002,8.6942
27.0730,8.7282
26.9414,8.7282
26.8142,8.6942
26.7572,8.6613
26.7572,9.5589
26.5437,9.5017
26.5437,9.5017
26.3296,9.4018
26.1361,9.2664
25.9691,9.0993
25.8336,8.9058
25.7338,8.6917
25.7338,8.6917
25.6766,8.4782
26.5742,8.4782
26.5413,8.4212
26.5072,8.2941
26.5072,8.1624
26.5413,8.0353
26.5742,7.9783
25.6766,7.9783
25.6766,7.9782
25.7338,7.7648
25.7338,7.7648
25.8336,7.5507
25.8336,7.5507
25.9691,7.3572
25.9691,7.3572
26.1361,7.1901
26.3218,7.0601
26.3654,7.0056
26.3726,6.9361
26.3411,6.8737
26.3218,6.8570
26.3178,6.8542
26.1358,6.7267
25.9687,6.5597
25.8332,6.3661
25.7333,6.1519
25.6721,5.9237
25.6515,5.6883
25.6721,5.4528
25.7333,5.2246
25.8332,5.0104
25.8542,4.9804
25.9687,4.8168
25.9987,4.7868
26.0906,4.6949
26.1241,4.6336
26.1191,4.5639
26.0773,4.5080
26.0463,4.4911
25.9149,4.4420
25.7996,4.3558
25.7134,4.2406
25.6631,4.1057
25.6567,4.0461
25.6567,2.2504
25.6631,2.1908
25.7044,2.0801
25.7134,2.0559
25.7134,2.0559
25.7996,1.9407
25.7996,1.9407
25.9149,1.8545
25.9149,1.8545
26.0497,1.8042
26.0497,1.8042
26.1093,1.7978
26.1093,1.7977
26.1093,1.7977
26.1093,1.7977
27.9051,1.7977
27.9051,1.7978
27.9647,1.8042
28.0995,1.8545
28.0995,1.8545
28.2147,1.9407
28.2147,1.9407
28.3010,2.0559
28.3010,2.0559
28.3513,2.1908
28.3573,2.2472
28.3577,2.2504
28.3577,2.2504
28.3577,4.0461
28.3577,4.0461
28.3513,4.1057
28.3010,4.2406
28.3010,4.2406
28.2147,4.3558
28.2147,4.3558
28.0995,4.4420
28.0995,4.4420
27.9681,4.4911
27.9122,4.5329
27.8878,4.5984
27.9026,4.6667
27.9238,4.6949
28.0457,4.8168
28.1812,5.0104
28.1812,5.0104
28.2811,5.2246
28.2811,5.2246
28.3423,5.4528
28.3423,5.4528
28.3628,5.6882
28.3628,5.6883
54.6515,5.6883
54.6721,5.4528
54.7333,5.2246
54.8332,5.0104
54.8542,4.9804
54.9687,4.8168
54.9987,4.7868
55.0906,4.6949
55.1241,4.6336
55.1191,4.5639
55.0773,4.5080
55.0463,4.4911
54.9149,4.4420
54.7996,4.3558
54.7134,4.2406
54.6631,4.1057
54.6567,4.0461
54.6567,2.2504
54.6631,2.1908
54.7044,2.0801
54.7134,2.0559
54.7134,2.0559
54.7996,1.9407
54.7996,1.9407
54.9149,1.8545
54.9149,1.8545
55.0497,1.8042
55.0497,1.8042
55.1093,1.7978
55.1093,1.7977
55.1093,1.7977
55.1093,1.7977
56.9051,1.7977
56.9051,1.7978
56.9647,1.8042
57.0995,1.8545
57.0995,1.8545
57.2147,1.9407
57.2147,1.9407
57.3010,2.0559
57.3010,2.0559
57.3513,2.1908
57.3573,2.2472
57.3577,2.2504
57.3577,2.2504
57.3577,4.0461
57.3577,4.0461
57.3513,4.1057
57.3010,4.2406
57.3010,4.2406
57.2147,4.3558
57.2147,4.3558
57.0995,4.4420
57.0995,4.4420
56.9681,4.4911
56.9122,4.5329
56.8878,4.5984
56.9026,4.6667
56.9238,4.6949
57.0457,4.8168
57.1812,5.0104
57.1812,5.0104
57.2811,5.2246
57.2811,5.2246
57.3423,5.4528
57.3423,5.4528
57.3628,5.6882
57.3628,5.6883
60.9042,5.6883
60.9015,5.6582
60.9221,5.4228
60.9833,5.1946
61.0832,4.9804
61.1977,4.8168
61.2187,4.7868
61.3858,4.6198
61.3858,4.6198
61.5718,4.4895
61.6154,4.4349
61.6226,4.3654
61.5911,4.3031
61.5718,4.2864
61.3861,4.1564
61.2191,3.9893
61.0836,3.7958
60.9838,3.5817
60.9838,3.5817
60.9266,3.3682
61.8242,3.3682
61.7913,3.3112
61.7572,3.1841
61.7572,3.0524
61.7913,2.9253
61.8242,2.8682
60.9266,2.8682
60.9266,2.8682
60.9838,2.6548
60.9838,2.6548
61.0836,2.4407
61.0836,2.4407
61.2191,2.2472
61.2191,2.2472
61.3861,2.0801
61.5796,1.9446
61.7937,1.8448
61.7937,1.8448
62.0072,1.7876
62.0072,2.6852
62.0642,2.6523
62.1914,2.6182
62.3230,2.6182
62.4502,2.6523
62.5072,2.6852
62.5072,1.7876
62.5072,1.7876
62.7207,1.8448
62.7207,1.8448
62.9348,1.9446
62.9348,1.9446
63.1283,2.0801
63.1283,2.0801
63.2953,2.2472
63.2953,2.2472
63.4308,2.4407
63.4308,2.4407
63.5306,2.6548
63.5306,2.6548
63.5878,2.8682
63.5878,2.8682
62.6902,2.8682
62.7231,2.9253
62.7572,3.0524
62.7572,3.1841
62.7231,3.3112
62.6902,3.3682
63.5878,3.3682
63.5306,3.5817
63.5306,3.5817
63.4308,3.7958
63.2953,3.9893
63.1283,4.1564
62.9426,4.2864
62.8990,4.3409
62.8918,4.4104
62.9233,4.4728
62.9426,4.4895
63.1286,4.6198
63.2957,4.7868
63.4312,4.9804
63.4312,4.9804
63.5311,5.1946
63.5311,5.1946
63.5923,5.4228
63.5923,5.4228
63.6128,5.6582
63.6128,5.6582
87.6317,5.6582
87.6317,1.2977
87.6120,1.2307
87.5592,1.1850
87.5077,1.1737
1.7567,1.1737
Z" /> 
</g>
<g style="fill:#FFFFFF; fill-opacity:1.0000; stroke:none;">
<circle cx="48.1322" cy="13.6732" r="0.4000" /> 
</g>
<g style="fill:none; 
stroke:#FFFFFF; stroke-width:0.7000; stroke-opacity:1; 
stroke-linecap:round; stroke-linejoin:round;">
<path d="M35.3822 13.9232
L35.3822 14.5232
" />
<path d="M53.8822 13.9232
L53.8822 14.5232
" />
</g>
<g style="fill:#FFFFFF; fill-opacity:1.0000; stroke:none;">
<circle cx="37.6322" cy="16.5732" r="0.4050" /> 
</g>
<g style="fill:#FFFFFF; fill-opacity:1.0000; stroke:none;">
<circle cx="39.6322" cy="16.5732" r="0.4050" /> 
</g>
<g style="fill:#FFFFFF; fill-opacity:1.0000; stroke:none;">
<circle cx="41.6322" cy="16.5732" r="0.4050" /> 
</g>
<g style="fill:#FFFFFF; fill-opacity:1.0000; stroke:none;">
<circle cx="43.6322" cy="16.5732" r="0.4050" /> 
</g>
<g style="fill:#FFFFFF; fill-opacity:1.0000; stroke:none;">
<circle cx="45.6322" cy="16.5732" r="0.4050" /> 
</g>
<g style="fill:#FFFFFF; fill-opacity:1.0000; stroke:none;">
<circle cx="47.6322" cy="16.5732" r="0.4050" /> 
</g>
<g style="fill:#FFFFFF; fill-opacity:1.0000; stroke:none;">
<circle cx="49.6322" cy="16.5732" r="0.4050" /> 
</g>
<g style="fill:#FFFFFF; fill-opacity:1.0000; stroke:none;">
<circle cx="51.6322" cy="16.5732" r="0.4050" /> 
</g>
<g style="fill:#FFFFFF; fill-opacity:1.0000; stroke:none;">
<circle cx="62.2572" cy="8.1982" r="0.5000" /> 
</g>
<g style="fill:#FFFFFF; fill-opacity:1.0000; stroke:none;">
<circle cx="62.2572" cy="5.6582" r="0.5000" /> 
</g>
<g style="fill:#FFFFFF; fill-opacity:1.0000; stroke:none;">
<circle cx="62.2572" cy="3.1182" r="0.5000" /> 
</g>
<g style="fill:#FFFFFF; fill-opacity:1.0000; stroke:none;">
<circle cx="27.0072" cy="12.1482" r="0.5000" /> 
</g>
<g style="fill:#FFFFFF; fill-opacity:1.0000; stroke:none;">
<circle cx="27.0072" cy="14.6883" r="0.5000" /> 
</g>
<g style="fill:#FFFFFF; fill-opacity:1.0000; stroke:none;">
<circle cx="27.0072" cy="17.2282" r="0.5000" /> 
</g>
<g style="fill:#FFFFFF; fill-opacity:1.0000; stroke:none;">
<circle cx="56.0072" cy="3.1482" r="0.5000" /> 
</g>
<g style="fill:#FFFFFF; fill-opacity:1.0000; stroke:none;">
<circle cx="56.0072" cy="5.6883" r="0.5000" /> 
</g>
<g style="fill:#FFFFFF; fill-opacity:1.0000; stroke:none;">
<circle cx="56.0072" cy="8.2282" r="0.5000" /> 
</g>
<g style="fill:#FFFFFF; fill-opacity:1.0000; stroke:none;">
<circle cx="5.1322" cy="10.1732" r="1.1000" /> 
</g>
<g style="fill:#FFFFFF; fill-opacity:1.0000; stroke:none;">
<circle cx="62.2572" cy="17.2532" r="0.5000" /> 
</g>
<g style="fill:#FFFFFF; fill-opacity:1.0000; stroke:none;">
<circle cx="62.2572" cy="14.7132" r="0.5000" /> 
</g>
<g style="fill:#FFFFFF; fill-opacity:1.0000; stroke:none;">
<circle cx="62.2572" cy="12.1732" r="0.5000" /> 
</g>
<g style="fill:#FFFFFF; fill-opacity:1.0000; stroke:none;">
<circle cx="84.1322" cy="10.1732" r="1.1000" /> 
</g>
<g style="fill:#FFFFFF; fill-opacity:1.0000; stroke:none;">
<circle cx="27.0072" cy="3.1482" r="0.5000" /> 
</g>
<g style="fill:#FFFFFF; fill-opacity:1.0000; stroke:none;">
<circle cx="27.0072" cy="5.6883" r="0.5000" /> 
</g>
<g style="fill:#FFFFFF; fill-opacity:1.0000; stroke:none;">
<circle cx="27.0072" cy="8.2282" r="0.5000" /> 
<path style="fill:none; 
stroke:#000000; stroke-width:0.0500; stroke-opacity:1; 
stroke-linecap:round; stroke-linejoin:round;fill:none"
d="M 88.1322,0.6733
1.1322,0.6733
1.1322,20.6732
88.1322,20.6732
Z" /> 
</g>
<g style="fill:none; 
stroke:#000000; stroke-width:0.0500; stroke-opacity:1; 
stroke-linecap:round; stroke-linejoin:round;">
<path d="M88.1322 20.6732
L88.1322 0.6733
" />
<path d="M1.1322 20.6732
L1.1322 0.6733
" />
</g> 
</svg>
